<?xml version="1.0" standalone="no"?>
<!DOCTYPE svg PUBLIC "-//W3C//DTD SVG 20010904//EN"
 "http://www.w3.org/TR/2001/REC-SVG-20010904/DTD/svg10.dtd">
<svg version="1.0" xmlns="http://www.w3.org/2000/svg"
 width="1080.000000pt" height="1080.000000pt" viewBox="0 0 1080.000000 1080.000000"
 preserveAspectRatio="xMidYMid meet">
<metadata>
Created by potrace 1.16, written by Peter Selinger 2001-2019
</metadata>
<g transform="translate(0.000000,1080.000000) scale(0.100000,-0.100000)"
fill="#0F1E54" stroke="none">
<path d="M3820 7720 c-146 -53 -416 -295 -542 -485 -124 -187 -222 -416 -248
-578 -16 -95 -8 -288 15 -372 49 -181 177 -346 325 -419 50 -24 107 -43 165
-53 186 -32 433 25 610 142 74 49 188 156 257 242 29 35 54 58 56 51 15 -58
63 -89 104 -68 48 25 113 86 215 201 91 103 108 118 129 113 21 -5 24 -3 24
20 0 54 70 140 94 116 6 -6 -14 -55 -63 -149 -87 -169 -124 -271 -111 -306 10
-25 47 -41 78 -33 32 9 220 131 300 195 42 33 78 60 79 60 1 -1 -4 -23 -9 -49
-8 -35 -8 -54 0 -73 24 -51 47 -36 260 170 110 107 208 195 217 195 25 0 17
-32 -22 -90 -72 -108 -133 -237 -133 -284 0 -60 20 -80 75 -73 39 4 100 39
214 122 41 30 91 34 91 8 0 -10 -16 -43 -35 -73 -40 -61 -47 -128 -20 -180 31
-60 120 -79 213 -46 78 28 203 109 273 178 55 53 69 63 69 46 0 -11 18 -38 40
-61 40 -39 41 -40 103 -35 101 8 254 79 382 175 37 29 47 33 41 18 -27 -64
-99 -285 -121 -370 -59 -227 -90 -514 -66 -602 15 -56 60 -93 112 -93 38 0 40
2 37 27 -2 20 -11 29 -36 37 -18 6 -37 18 -42 26 -15 23 -12 193 5 304 51 339
228 826 443 1221 122 225 326 550 411 655 30 36 27 78 -5 92 -25 12 -29 10
-62 -27 -59 -68 -148 -191 -202 -279 -57 -96 -262 -504 -351 -701 -33 -71 -65
-142 -72 -156 -16 -34 -214 -192 -286 -228 -67 -34 -181 -64 -207 -55 -31 11
-54 36 -54 58 0 30 86 204 163 330 68 110 76 133 55 154 -25 25 -49 11 -106
-61 -58 -74 -120 -184 -162 -290 -73 -186 -415 -402 -500 -317 -28 28 -25 52
15 154 73 185 36 209 -162 105 -65 -34 -134 -67 -154 -74 l-37 -13 50 89 c27
49 74 140 104 202 47 97 54 117 45 139 -15 39 -44 52 -78 34 -29 -14 -137
-112 -302 -270 -55 -54 -96 -86 -98 -78 -3 7 12 55 33 106 37 94 39 121 9 132
-19 8 -58 -27 -75 -64 -12 -29 -135 -128 -314 -255 -104 -74 -149 -97 -163
-83 -12 11 18 87 103 263 46 97 84 184 84 193 0 25 -26 43 -53 36 -13 -3 -41
-19 -62 -36 -21 -16 -39 -30 -41 -30 -2 0 -18 13 -36 28 -41 36 -84 45 -151
31 -74 -17 -157 -102 -217 -224 -105 -216 -343 -446 -551 -533 -355 -147 -686
-29 -812 288 -38 97 -49 154 -48 263 1 308 173 659 476 976 196 205 372 283
495 219 115 -59 163 -215 111 -362 -46 -132 -173 -294 -313 -403 -32 -24 -58
-50 -58 -57 0 -7 11 -23 25 -36 33 -31 45 -24 129 70 194 216 283 406 274 580
-7 121 -62 205 -167 257 -55 27 -191 29 -261 3z m1049 -1101 c12 -11 21 -25
19 -30 -2 -5 -50 -65 -108 -135 -108 -130 -223 -237 -250 -232 -33 7 -22 58
32 156 64 117 145 207 213 238 61 29 66 29 94 3z"/>
<path d="M7633 6679 c-85 -20 -195 -153 -242 -295 -43 -129 -38 -180 19 -204
22 -9 34 -9 52 0 48 25 113 86 215 201 91 103 108 118 129 113 21 -5 24 -3 24
20 0 54 70 140 94 116 6 -6 -14 -55 -63 -149 -134 -260 -145 -341 -48 -341 24
0 198 106 287 173 80 62 190 167 190 183 0 28 -31 12 -127 -64 -54 -43 -147
-113 -207 -155 -104 -74 -149 -97 -163 -83 -12 11 18 87 103 263 46 97 84 184
84 193 0 25 -26 43 -53 36 -13 -3 -41 -19 -62 -36 -21 -16 -39 -30 -41 -30 -2
0 -18 13 -36 29 -38 33 -93 44 -155 30z m136 -60 c12 -11 21 -25 19 -30 -2 -5
-50 -65 -108 -135 -108 -130 -223 -237 -250 -232 -33 7 -22 58 32 156 64 117
145 207 213 238 61 29 66 29 94 3z"/>
<path d="M5415 5853 c-49 -7 -182 -51 -296 -99 -172 -72 -378 -202 -452 -283
-30 -34 -37 -49 -37 -84 0 -61 34 -105 142 -182 97 -69 132 -80 144 -43 5 17
-1 28 -29 52 -135 117 -167 149 -167 167 0 50 218 212 420 311 160 79 253 108
342 109 69 1 74 -1 100 -30 23 -26 28 -41 28 -84 0 -29 -6 -77 -14 -107 -14
-53 -279 -707 -317 -782 -22 -43 -27 -46 -152 -96 -299 -121 -552 -331 -705
-586 -63 -104 -84 -168 -89 -272 -6 -105 5 -149 50 -200 38 -44 71 -61 133
-69 58 -8 154 20 218 65 146 100 325 374 478 730 163 377 395 972 428 1096 28
102 36 219 20 268 -16 50 -54 93 -93 105 -42 12 -114 19 -152 14z m-201 -1201
c6 -10 -154 -368 -227 -507 -129 -244 -282 -438 -382 -485 -61 -28 -129 -31
-167 -6 -36 24 -68 92 -68 147 0 107 48 218 162 371 128 173 287 303 511 419
127 66 160 78 171 61z"/>
<path d="M3509 5156 c-104 -28 -194 -104 -243 -206 -30 -64 -31 -68 -32 -217
l0 -152 -116 -119 c-127 -130 -158 -178 -158 -247 0 -56 28 -88 91 -105 84
-23 196 14 304 101 40 32 79 59 87 59 8 0 33 -16 56 -36 54 -46 151 -104 174
-104 35 0 17 30 -44 78 -114 87 -133 107 -123 130 14 31 199 185 272 228 93
54 84 101 -13 74 -65 -19 -152 -78 -248 -170 l-84 -81 -26 34 c-14 18 -36 58
-50 89 -20 44 -22 59 -13 71 7 8 55 45 107 83 268 193 330 262 330 366 0 55
-30 105 -75 124 -41 17 -133 17 -196 0z m209 -61 c27 -32 28 -57 2 -110 -26
-53 -54 -80 -239 -219 -99 -75 -158 -113 -164 -107 -5 5 -8 51 -5 103 4 106
29 170 94 246 90 106 255 152 312 87z m-404 -649 c25 -46 46 -95 46 -109 0
-28 -81 -109 -150 -150 -90 -52 -181 -52 -209 1 -14 27 34 123 97 193 41 46
157 149 167 149 2 0 24 -38 49 -84z"/>
<path d="M5614 4948 c-71 -79 -143 -224 -169 -341 -19 -87 -15 -118 20 -153
51 -51 149 -20 283 91 40 33 76 58 80 55 4 -3 14 -27 23 -54 24 -68 56 -98
116 -103 84 -8 241 58 342 144 l37 31 -10 -48 c-12 -59 2 -93 44 -110 22 -9
34 -9 52 0 48 25 113 86 215 201 91 103 108 118 129 113 21 -5 24 -3 24 20 0
36 23 79 57 105 41 33 54 11 25 -42 -63 -114 -125 -243 -147 -307 -32 -95 -19
-130 48 -130 29 0 218 119 321 202 l82 65 -20 -78 c-20 -76 -20 -78 -2 -98 11
-12 28 -21 38 -21 11 0 70 27 131 59 159 84 299 123 313 88 3 -8 -16 -53 -41
-101 -64 -123 -59 -196 14 -216 53 -14 97 2 203 72 181 122 378 359 296 358
-7 0 -26 -24 -43 -53 -16 -28 -77 -99 -135 -157 -83 -84 -121 -114 -179 -143
-77 -39 -118 -46 -127 -24 -3 8 8 47 24 88 48 119 53 147 37 185 -16 39 -44
49 -119 41 -58 -6 -208 -64 -264 -102 -40 -27 -72 -32 -72 -12 0 7 18 59 40
116 44 114 47 132 24 152 -14 12 -20 9 -43 -17 -42 -51 -325 -268 -431 -333
-19 -11 -43 -21 -54 -21 -30 0 -15 43 84 254 50 105 90 198 90 207 0 46 -56
48 -108 4 -38 -31 -62 -32 -91 -1 -30 31 -84 41 -147 25 -65 -16 -155 -106
-203 -202 -37 -72 -73 -111 -167 -174 -97 -66 -143 -86 -215 -91 -58 -4 -69
-2 -88 17 -30 30 -27 70 16 194 39 117 38 142 -7 142 -18 0 -30 -13 -55 -62
-17 -34 -49 -83 -70 -109 -66 -81 -223 -184 -280 -184 -22 0 -25 4 -25 38 0
56 28 129 105 276 53 99 66 132 58 145 -15 24 -37 24 -59 -1z m1125 -49 c12
-11 21 -25 19 -30 -2 -5 -50 -65 -108 -135 -108 -130 -223 -237 -250 -232 -33
7 -22 58 32 156 64 117 145 207 213 238 61 29 66 29 94 3z"/>
<path d="M3898 3534 c-28 -14 -38 -34 -18 -34 6 0 10 -19 10 -43 0 -43 -1 -43
-30 -39 -73 11 -130 -42 -130 -120 0 -41 5 -54 29 -79 33 -33 74 -38 109 -13
12 8 22 10 22 5 0 -6 17 -11 37 -11 29 0 34 3 25 12 -8 8 -12 62 -12 175 0 90
-3 163 -7 163 -5 -1 -20 -8 -35 -16z m-29 -160 c27 -34 30 -128 5 -138 -51
-19 -94 21 -94 87 0 72 50 100 89 51z"/>
<path d="M5997 3536 c-22 -8 -27 -15 -23 -31 3 -11 6 -83 6 -161 l0 -141 28
-1 c15 -1 45 -4 67 -7 91 -13 154 81 113 170 -21 45 -85 68 -129 45 -18 -10
-19 -7 -19 59 0 38 -3 72 -7 74 -5 2 -21 -1 -36 -7z m122 -170 c30 -32 39 -98
17 -131 -20 -31 -42 -32 -73 -3 -19 18 -23 32 -23 83 0 34 3 65 7 68 14 15 51
6 72 -17z"/>
<path d="M3430 3490 c-59 -58 -89 -118 -90 -178 0 -86 54 -135 127 -116 49 12
78 53 78 111 0 37 -5 49 -28 69 -30 26 -66 31 -98 13 -19 -10 -19 -9 -4 28 9
21 32 54 50 73 19 20 35 39 35 43 0 17 -22 3 -70 -43z"/>
<path d="M7850 3515 c-8 -9 -30 -15 -60 -15 -54 0 -55 -1 -65 -83 l-7 -57 41
0 c32 0 44 -5 56 -24 14 -22 14 -27 -1 -65 -10 -24 -37 -60 -68 -86 -50 -44
-47 -62 5 -27 110 73 152 149 119 212 -12 23 -73 44 -106 36 -17 -5 -24 -2
-24 8 0 35 12 46 52 46 28 0 46 7 63 25 25 24 32 45 16 45 -5 0 -14 -7 -21
-15z"/>
<path d="M3074 3481 c-36 -22 -64 -83 -64 -139 0 -77 67 -152 135 -152 70 0
135 75 135 155 -1 56 -32 120 -69 139 -41 21 -99 20 -137 -3z m109 -31 c79
-93 42 -273 -48 -232 -59 27 -92 175 -52 235 25 38 67 37 100 -3z"/>
<path d="M4406 3484 c13 -29 17 -240 4 -264 -10 -19 -8 -20 75 -20 94 0 129
12 164 56 47 60 31 171 -32 216 -25 18 -48 23 -126 26 -89 4 -94 4 -85 -14z
m144 -19 c42 -22 64 -69 64 -137 1 -50 -3 -62 -26 -85 -20 -20 -37 -26 -70
-27 l-43 -1 -3 133 -3 132 26 0 c14 0 39 -7 55 -15z"/>
<path d="M6913 3476 c-34 -29 -25 -45 11 -21 24 16 28 16 51 1 45 -30 27 -88
-59 -190 l-57 -66 101 0 c98 0 100 0 106 25 8 30 -1 44 -18 27 -7 -7 -37 -12
-67 -12 l-55 0 56 58 c58 58 78 94 78 138 0 62 -92 87 -147 40z"/>
<path d="M7194 3481 c-36 -22 -64 -83 -64 -139 0 -77 67 -152 135 -152 70 0
135 75 135 155 -1 56 -32 120 -69 139 -41 21 -99 20 -137 -3z m109 -31 c79
-93 42 -273 -48 -232 -59 27 -92 175 -52 235 25 38 67 37 100 -3z"/>
<path d="M7493 3476 c-34 -29 -25 -45 11 -21 24 16 28 16 51 1 45 -30 27 -88
-59 -190 l-57 -66 101 0 c98 0 100 0 106 25 8 30 -1 44 -18 27 -7 -7 -37 -12
-67 -12 l-55 0 56 58 c58 58 78 94 78 138 0 62 -92 87 -147 40z"/>
<path d="M4063 3401 c-41 -26 -53 -49 -53 -104 0 -106 114 -143 191 -61 27 29
19 42 -13 20 -31 -22 -84 -20 -108 4 -11 11 -20 24 -20 29 0 5 -3 16 -6 25 -5
14 5 16 75 16 78 0 81 1 81 23 0 55 -89 84 -147 48z"/>
<path d="M4938 3405 c-75 -42 -78 -166 -4 -201 45 -22 95 -12 131 26 30 32 28
55 -3 27 -28 -25 -84 -22 -110 6 -28 29 -29 86 -3 118 l19 24 31 -22 c16 -13
39 -23 50 -23 22 0 36 29 22 43 -17 17 -104 19 -133 2z"/>
<path d="M5343 3404 c-36 -18 -63 -67 -63 -114 0 -44 56 -100 99 -100 39 0 87
24 101 49 15 30 12 34 -12 17 -36 -26 -93 -21 -117 10 -12 15 -21 35 -21 45 0
17 9 19 80 19 44 0 80 4 80 10 0 23 -24 59 -47 69 -33 15 -62 14 -100 -5z"/>
<path d="M5568 3408 c-29 -10 -35 -22 -18 -33 14 -9 13 -148 -2 -163 -9 -9 -1
-12 37 -12 38 0 46 3 37 12 -7 7 -12 41 -12 81 0 55 4 73 18 83 29 22 61 17
72 -12 13 -33 13 -120 0 -145 -10 -18 -7 -19 37 -19 36 0 44 3 35 12 -7 7 -12
42 -12 85 0 69 1 74 26 85 44 20 59 2 62 -81 2 -45 -2 -78 -9 -87 -10 -12 -4
-14 35 -14 43 0 46 2 36 19 -5 11 -10 53 -10 94 0 59 -4 77 -18 90 -23 21 -58
22 -95 2 -26 -13 -31 -13 -50 0 -27 19 -60 19 -97 0 -27 -14 -30 -14 -30 0 0
17 -4 17 -42 3z"/>
<path d="M6287 3408 c-21 -8 -26 -14 -21 -27 13 -28 16 -138 4 -160 -10 -20
-8 -21 37 -21 36 0 44 3 35 12 -14 14 -16 122 -2 148 8 14 18 17 48 13 31 -4
40 -2 46 12 14 37 -23 46 -74 20 -27 -14 -30 -14 -30 0 0 17 -4 17 -43 3z"/>
<path d="M6553 3404 c-36 -18 -63 -67 -63 -114 0 -44 56 -100 99 -100 39 0 87
24 101 49 15 30 12 34 -12 17 -36 -26 -93 -21 -117 10 -12 15 -21 35 -21 45 0
17 9 19 80 19 44 0 80 4 80 10 0 23 -24 59 -47 69 -33 15 -62 14 -100 -5z"/>
</g>
</svg>
