<?xml version="1.0" standalone="no"?>
<!DOCTYPE svg PUBLIC "-//W3C//DTD SVG 20010904//EN"
 "http://www.w3.org/TR/2001/REC-SVG-20010904/DTD/svg10.dtd">
<svg version="1.0" xmlns="http://www.w3.org/2000/svg"
 width="1080.000000pt" height="1080.000000pt" viewBox="0 0 1080.000000 1080.000000"
 preserveAspectRatio="xMidYMid meet">
<metadata>
Created by potrace 1.16, written by Peter Selinger 2001-2019
</metadata>
<g transform="translate(0.000000,1080.000000) scale(0.100000,-0.100000)"
fill="#0F1E54" stroke="none">
<path d="M5665 9355 c-124 -51 -236 -145 -311 -262 -19 -28 -37 -54 -42 -57
-15 -9 -29 8 -68 82 -70 130 -201 237 -307 249 -136 16 -243 -93 -255 -258 -6
-90 10 -154 73 -284 92 -190 205 -341 349 -466 137 -119 168 -113 364 76 318
306 501 587 502 770 1 143 -146 215 -305 150z m-719 -106 c95 -59 212 -225
258 -368 20 -61 23 -66 53 -69 43 -4 84 33 191 177 108 145 155 197 211 233
52 32 114 37 163 12 28 -14 30 -19 25 -53 -6 -49 -73 -192 -125 -267 -73 -107
-400 -485 -439 -507 -20 -12 -55 13 -143 102 -291 293 -394 555 -284 724 28
42 43 45 90 16z"/>
<path d="M3688 8273 c-56 -87 -105 -251 -115 -384 -7 -103 0 -139 27 -139 60
0 151 240 167 439 9 120 -29 160 -79 84z"/>
<path d="M2323 8228 c-59 -75 46 -467 136 -508 38 -17 46 0 45 103 -2 142 -76
359 -136 401 -27 19 -33 20 -45 4z"/>
<path d="M6330 7484 c-252 -29 -397 -58 -569 -114 -259 -86 -503 -214 -738
-389 l-32 -24 -188 62 c-221 72 -417 123 -563 148 -149 25 -547 25 -715 0
-530 -79 -1054 -301 -1445 -613 -119 -95 -362 -340 -450 -454 -326 -422 -527
-898 -596 -1410 -23 -171 -23 -502 0 -665 94 -658 407 -1200 921 -1591 315
-240 680 -398 1075 -465 181 -31 544 -38 730 -14 518 65 999 255 1405 554 60
45 114 81 119 81 5 0 48 -25 94 -56 680 -453 1463 -558 2234 -300 507 170 939
510 1223 962 208 330 344 736 384 1148 14 141 14 441 0 582 -65 662 -356 1288
-803 1729 -532 525 -1187 817 -1861 830 -104 2 -206 1 -225 -1z m315 -128
c408 -18 937 -193 1287 -426 486 -323 850 -822 1041 -1428 165 -519 176 -1094
32 -1591 -90 -309 -243 -602 -448 -856 -87 -108 -292 -305 -402 -387 -321
-239 -704 -387 -1115 -429 -235 -24 -565 1 -805 61 -247 63 -530 182 -739 312
-83 51 -96 63 -96 86 0 14 109 121 123 122 5 0 68 -34 142 -75 473 -265 945
-359 1450 -289 268 37 581 154 816 305 179 115 397 319 524 489 283 380 419
787 432 1285 15 599 -142 1119 -475 1569 -101 136 -366 399 -517 512 -326 244
-659 388 -1040 451 -166 27 -508 25 -670 -4 -371 -67 -700 -217 -969 -442
-197 -165 -313 -304 -446 -534 -235 -409 -351 -899 -321 -1353 11 -158 38
-334 71 -463 94 -368 296 -744 553 -1031 42 -47 77 -92 77 -101 0 -18 -112
-129 -131 -129 -32 0 -198 200 -327 395 -155 233 -295 535 -372 803 -128 444
-144 928 -45 1347 50 214 135 437 229 606 401 717 1077 1158 1836 1198 74 4
146 6 160 5 14 -2 79 -5 145 -8z m-2605 -286 c186 -11 355 -40 502 -86 93 -29
276 -101 296 -117 29 -23 12 -55 -69 -129 -44 -40 -86 -76 -93 -80 -7 -4 -51
6 -97 23 -209 76 -439 118 -694 126 -678 20 -1327 -245 -1825 -746 -693 -697
-902 -1641 -553 -2496 83 -204 209 -409 357 -583 316 -369 812 -628 1326 -692
108 -13 450 -13 560 0 525 64 1041 312 1433 689 374 359 632 861 711 1381 113
734 -88 1344 -628 1907 -83 86 -106 117 -101 132 6 21 160 161 176 161 20 0
115 -89 212 -197 366 -409 565 -844 618 -1352 16 -159 7 -471 -20 -630 -79
-460 -237 -834 -510 -1199 -111 -149 -359 -402 -501 -512 -289 -223 -654 -412
-965 -499 -713 -201 -1373 -120 -1945 237 -355 222 -678 575 -856 937 -107
218 -171 423 -210 677 -24 153 -24 517 -1 671 75 492 256 919 560 1322 311
412 755 738 1267 928 185 69 315 99 495 117 209 20 336 22 555 10z m2795 -105
c696 -123 1203 -453 1566 -1020 184 -287 310 -631 366 -995 21 -141 24 -480 5
-620 -46 -334 -159 -638 -331 -896 -152 -225 -321 -392 -565 -555 -535 -359
-1158 -424 -1806 -187 -127 47 -402 180 -432 210 -23 23 -25 20 99 185 401
536 588 1113 570 1753 -19 639 -254 1184 -726 1682 -62 65 -101 114 -101 127
0 28 75 75 245 157 196 94 384 147 625 178 74 9 398 -3 485 -19z m-2765 -260
c199 -24 489 -109 512 -149 8 -13 2 -30 -23 -69 -207 -326 -310 -547 -384
-832 -92 -348 -114 -692 -70 -1054 72 -577 327 -1141 713 -1578 93 -105 99
-126 50 -163 -285 -211 -653 -370 -1003 -436 -187 -35 -518 -44 -700 -20 -400
53 -780 239 -1084 531 -264 254 -434 529 -540 872 -58 190 -72 280 -78 504 -6
206 4 332 37 494 145 698 631 1330 1275 1657 270 137 498 210 765 243 141 17
389 18 530 0z m1107 -523 c163 -146 317 -353 423 -566 275 -549 279 -1226 11
-1826 -103 -230 -319 -550 -371 -550 -18 0 -111 106 -204 233 -179 243 -326
557 -401 857 -144 570 -63 1166 225 1669 65 113 163 258 184 273 15 10 44 -9
133 -90z"/>
<path d="M1000 7330 c-25 -25 -25 -51 -2 -79 24 -30 468 -213 506 -209 21 2
35 12 46 31 13 24 13 30 0 54 -13 22 -57 45 -250 125 -129 53 -245 98 -257 98
-13 0 -32 -9 -43 -20z"/>
<path d="M9992 4126 c-144 -37 -247 -68 -253 -77 -13 -20 -11 -73 3 -87 20
-20 60 -14 271 39 281 70 274 68 292 85 36 36 6 105 -46 103 -13 0 -133 -29
-267 -63z"/>
<path d="M9360 2917 c0 -72 220 -265 357 -313 48 -17 54 -17 68 -3 24 23 5 60
-68 136 -106 112 -251 203 -321 203 -31 0 -36 -3 -36 -23z"/>
<path d="M8498 2219 c-46 -26 -44 -39 48 -273 70 -181 91 -226 110 -235 31
-14 72 1 83 31 10 27 7 34 -90 284 -57 146 -76 184 -96 193 -29 13 -33 13 -55
0z"/>
</g>
</svg>
