<?xml version="1.0" standalone="no"?>
<!DOCTYPE svg PUBLIC "-//W3C//DTD SVG 20010904//EN"
 "http://www.w3.org/TR/2001/REC-SVG-20010904/DTD/svg10.dtd">
<svg version="1.0" xmlns="http://www.w3.org/2000/svg"
 width="1080.000000pt" height="1080.000000pt" viewBox="0 0 1080.000000 1080.000000"
 preserveAspectRatio="xMidYMid meet">
<metadata>
Created by potrace 1.16, written by Peter Selinger 2001-2019
</metadata>
<g transform="translate(0.000000,1080.000000) scale(0.100000,-0.100000)"
fill="#0F1E54" stroke="none">
<path d="M5370 9104 c-19 -2 -87 -9 -150 -15 -345 -33 -731 -130 -1060 -266
-476 -198 -869 -460 -1235 -827 -431 -432 -737 -921 -932 -1491 -353 -1034
-236 -2177 316 -3095 248 -412 590 -779 996 -1068 381 -271 872 -483 1335
-576 271 -55 432 -70 740 -70 296 0 374 6 628 50 1476 253 2682 1380 3050
2849 151 601 151 1235 1 1824 -203 800 -655 1481 -1306 1970 -622 467 -1322
705 -2108 716 -132 2 -256 1 -275 -1z m460 -114 c924 -63 1780 -491 2382
-1190 790 -920 1042 -2223 657 -3406 -254 -781 -752 -1454 -1428 -1928 -217
-152 -552 -328 -797 -419 -603 -225 -1236 -288 -1854 -186 -1071 177 -2009
869 -2493 1838 -197 395 -292 708 -359 1191 -21 151 -18 680 5 850 90 674 337
1272 747 1810 740 970 1942 1522 3140 1440z"/>
<path d="M5328 8460 c-417 -40 -791 -146 -1147 -324 -315 -158 -551 -327 -805
-575 -508 -498 -821 -1107 -926 -1806 -27 -181 -37 -519 -21 -705 81 -907 546
-1700 1296 -2209 687 -466 1588 -623 2415 -420 574 141 1069 418 1480 829 284
283 479 557 645 902 140 294 227 589 281 963 25 168 25 581 0 750 -56 386
-132 638 -291 960 -368 746 -1043 1306 -1845 1530 -119 33 -307 72 -441 90
-133 19 -514 27 -641 15z m592 -126 c738 -80 1429 -460 1906 -1049 160 -196
357 -551 448 -806 76 -211 133 -468 156 -698 13 -135 13 -438 -1 -577 -99
-1003 -707 -1908 -1609 -2393 -330 -178 -733 -302 -1110 -342 -152 -16 -500
-16 -625 -1 -699 88 -1276 373 -1751 864 -424 438 -687 993 -771 1625 -23 175
-23 541 0 716 92 697 399 1315 893 1797 303 296 620 507 983 655 486 197 967
266 1481 209z"/>
<path d="M2826 5264 c-13 -13 -16 -44 -16 -187 0 -178 15 -319 49 -461 155
-650 654 -1247 1326 -1587 332 -168 648 -258 1033 -295 317 -31 702 5 1015 95
79 23 92 31 106 71 8 24 7 33 -6 46 -19 18 -52 15 -208 -21 -510 -118 -1016
-97 -1507 61 -409 132 -759 345 -1054 640 -400 401 -633 928 -669 1514 -3 52
-8 105 -11 118 -5 26 -35 29 -58 6z"/>
<path d="M9885 8592 c-107 -69 -260 -331 -339 -581 -85 -269 -229 -1031 -282
-1496 -25 -216 -26 -617 -1 -738 33 -161 84 -257 162 -303 60 -35 196 -91 239
-99 63 -12 66 -22 56 -180 -20 -308 -56 -624 -139 -1235 -82 -599 -85 -634
-85 -950 -1 -256 2 -298 22 -414 74 -407 216 -584 399 -495 53 26 88 66 125
146 52 110 65 212 82 628 9 209 21 493 27 630 15 340 15 1157 0 1380 -6 99
-23 295 -36 435 -86 905 -98 1621 -40 2415 19 261 20 579 1 678 -16 81 -42
141 -74 170 -30 27 -82 31 -117 9z m94 -126 c27 -43 27 -78 1 -571 -36 -702
-43 -976 -37 -1430 6 -443 11 -545 47 -930 40 -435 45 -583 45 -1275 -1 -433
-7 -846 -18 -1150 -19 -539 -23 -598 -43 -694 -26 -126 -68 -195 -132 -223
-30 -12 -37 -12 -56 1 -31 20 -98 152 -131 256 -53 172 -68 291 -69 560 0 232
2 265 47 634 26 213 68 542 92 730 56 426 63 513 72 811 5 200 4 242 -8 251
-8 6 -52 26 -99 44 -102 40 -198 86 -224 109 -112 99 -135 494 -65 1111 35
306 130 875 185 1110 53 227 202 562 293 658 39 43 73 42 100 -2z"/>
<path d="M1117 8578 c-13 -14 -34 -50 -46 -82 -19 -50 -23 -91 -31 -305 -5
-135 -10 -345 -10 -466 -1 -300 -22 -441 -73 -483 -20 -17 -32 0 -48 73 -10
44 -13 180 -14 520 0 617 -11 696 -98 703 -25 2 -42 -3 -56 -17 -28 -28 -51
-113 -51 -187 0 -34 -9 -114 -20 -179 -53 -302 -74 -615 -60 -875 10 -190 23
-233 144 -480 162 -329 181 -438 193 -1115 7 -447 -10 -787 -63 -1240 -115
-990 -149 -1438 -126 -1689 28 -306 111 -487 258 -561 51 -26 72 -30 154 -33
99 -4 215 16 256 43 13 8 41 59 67 122 114 269 157 621 126 1014 -14 180 -27
277 -92 659 -94 550 -131 871 -147 1270 -14 359 9 777 61 1085 28 166 32 181
104 342 76 169 121 297 140 397 32 169 28 669 -10 1158 -18 236 -40 288 -125
288 -17 0 -44 -7 -59 -15 -27 -13 -32 -26 -64 -162 -46 -194 -45 -181 -57
-453 -16 -345 -37 -621 -48 -632 -7 -7 -16 1 -27 22 -15 29 -16 81 -13 544 3
457 1 520 -14 591 -31 139 -95 199 -151 143z m459 -261 c1 -51 6 -191 13 -312
16 -317 14 -670 -4 -809 -16 -120 -46 -232 -91 -333 -110 -247 -159 -464 -205
-918 -25 -245 -30 -638 -10 -855 32 -353 67 -617 155 -1165 56 -344 74 -503
82 -710 10 -255 -16 -492 -82 -735 -29 -108 -39 -129 -66 -153 -73 -62 -216
-90 -284 -54 -46 24 -113 102 -140 164 -57 128 -67 195 -71 503 -7 422 14 751
77 1205 118 846 138 1426 74 2085 -28 295 -42 344 -180 657 -164 372 -176 444
-130 853 14 129 35 334 46 454 11 121 22 222 25 224 17 17 20 -122 13 -543
-10 -538 -6 -611 40 -685 36 -59 70 -75 120 -59 67 21 107 73 141 183 40 131
44 215 25 536 -16 272 -16 303 -2 395 16 100 34 162 44 152 11 -11 26 -345 32
-732 7 -378 8 -402 28 -439 11 -22 32 -48 45 -59 22 -16 31 -17 72 -6 25 6 51
17 57 25 25 29 41 178 50 454 5 157 16 335 24 395 20 139 54 320 68 363 18 57
33 21 34 -81z"/>
</g>
</svg>
