<?xml version="1.0" standalone="no"?>
<!DOCTYPE svg PUBLIC "-//W3C//DTD SVG 20010904//EN"
 "http://www.w3.org/TR/2001/REC-SVG-20010904/DTD/svg10.dtd">
<svg version="1.0" xmlns="http://www.w3.org/2000/svg"
 width="1080.000000pt" height="1080.000000pt" viewBox="0 0 1080.000000 1080.000000"
 preserveAspectRatio="xMidYMid meet">
<metadata>
Created by potrace 1.16, written by Peter Selinger 2001-2019
</metadata>
<g transform="translate(0.000000,1080.000000) scale(0.100000,-0.100000)"
fill="#0F1E54" stroke="none">
<path d="M5666 10381 c-13 -15 -25 -74 -47 -228 -33 -239 -35 -276 -13 -297
37 -38 105 -28 124 16 8 19 70 440 70 476 0 47 -100 71 -134 33z"/>
<path d="M4614 9765 c-15 -61 35 -176 116 -267 64 -71 109 -100 152 -96 31 3
33 5 36 47 4 58 -47 164 -118 243 -60 68 -106 98 -148 98 -25 0 -33 -5 -38
-25z"/>
<path d="M6460 9363 c-80 -54 -226 -202 -250 -254 -36 -81 -19 -179 31 -179
45 0 301 265 345 355 29 60 30 77 6 98 -29 26 -72 20 -132 -20z"/>
<path d="M3017 8839 c-37 -57 -167 -545 -236 -889 -93 -461 -205 -1198 -221
-1455 -6 -88 -15 -218 -21 -290 -27 -327 -22 -524 22 -865 36 -287 77 -448
154 -600 80 -159 181 -279 327 -387 57 -42 88 -72 88 -84 0 -11 -18 -101 -39
-202 -150 -693 -265 -1455 -341 -2267 -22 -237 -29 -281 -67 -418 -20 -72 -31
-96 -47 -102 -12 -4 -122 -13 -246 -19 -363 -18 -612 -53 -786 -111 -132 -44
-141 -141 -19 -203 60 -30 153 -46 405 -71 647 -65 1087 -91 1375 -81 261 9
687 53 776 81 9 2 22 18 29 35 11 27 10 34 -7 57 -30 40 -70 60 -176 87 -162
41 -391 70 -659 84 -189 10 -232 26 -275 98 -22 39 -26 56 -25 122 1 93 42
369 127 856 129 747 186 1192 230 1814 8 117 18 217 21 222 2 5 33 17 68 28
316 97 499 277 714 698 146 288 204 449 275 773 192 868 285 1607 318 2538 12
313 11 324 -7 342 -24 24 -201 82 -346 114 -62 13 -179 30 -260 36 -81 6 -192
18 -245 26 -208 32 -378 45 -629 51 l-262 6 -15 -24z m688 -79 c249 -24 503
-69 770 -137 206 -52 253 -74 188 -89 -16 -3 -34 -8 -41 -10 -43 -13 -1361
223 -1387 249 -12 11 300 3 470 -13z m-399 -99 c501 -125 1052 -221 1263 -221
77 0 101 -3 111 -16 11 -12 2 -142 -49 -737 -39 -442 -68 -727 -75 -734 -6 -7
-64 -17 -131 -23 -232 -21 -523 -93 -974 -241 -307 -101 -524 -202 -673 -314
-109 -83 -113 -80 -105 80 13 265 121 912 289 1735 44 217 84 418 88 447 10
62 15 73 39 73 10 0 108 -22 217 -49z m1204 -1816 c20 -24 7 -100 -25 -141
-140 -183 -589 -368 -1177 -483 -250 -50 -398 -71 -488 -71 -132 0 -139 18
-36 99 146 116 260 177 496 266 343 130 781 260 1135 338 43 10 83 6 95 -8z
m-32 -383 c6 -59 -67 -420 -134 -667 -71 -257 -186 -580 -281 -785 -67 -144
-150 -268 -243 -361 -101 -102 -191 -165 -358 -248 -97 -48 -125 -67 -133 -89
-33 -86 -50 -193 -74 -447 -65 -716 -105 -1024 -195 -1510 -167 -898 -185
-1070 -129 -1190 28 -60 125 -161 164 -171 23 -6 33 -1 57 25 34 36 34 36 258
21 214 -14 502 -60 536 -85 16 -11 16 -13 -7 -26 -16 -9 -67 -14 -164 -15 -77
-1 -239 -5 -360 -9 -420 -13 -1669 73 -1746 121 -15 9 -10 23 11 34 22 12 134
27 505 70 278 32 285 31 285 -20 0 -30 15 -40 62 -40 103 0 241 150 268 290
26 136 74 494 115 860 62 552 85 705 241 1613 74 433 75 439 60 491 -17 58
-25 66 -108 123 -256 174 -387 464 -427 948 -17 196 -31 450 -31 543 0 77 2
83 23 91 14 5 36 3 61 -5 68 -24 154 -17 401 36 251 54 682 163 805 204 113
37 303 120 415 181 55 30 105 53 110 51 6 -1 11 -17 13 -34z"/>
<path d="M3514 8070 c-57 -28 -87 -73 -92 -136 -4 -48 -2 -55 30 -89 60 -66
165 -59 232 15 114 126 -16 286 -170 210z"/>
<path d="M3888 7595 c-87 -32 -148 -110 -148 -189 0 -161 220 -226 348 -103
40 38 52 59 63 107 31 133 -119 238 -263 185z m130 -115 c27 -26 28 -60 2 -92
-43 -55 -134 -62 -166 -12 -49 74 97 166 164 104z"/>
<path d="M6730 8483 c-342 -62 -800 -165 -1038 -234 -218 -63 -540 -195 -571
-233 -12 -14 -10 -38 13 -174 140 -795 398 -1817 568 -2246 33 -83 79 -205
103 -271 78 -219 219 -508 373 -760 161 -266 342 -457 532 -563 74 -41 220
-89 311 -102 41 -6 79 -16 86 -23 6 -7 30 -100 53 -207 138 -649 349 -1410
589 -2120 153 -453 166 -513 137 -613 -21 -72 -45 -89 -171 -117 -334 -74
-700 -180 -829 -240 -79 -38 -93 -113 -25 -137 43 -15 357 -17 540 -3 249 20
642 84 984 160 72 16 234 52 360 80 283 63 409 99 546 156 206 86 237 165 89
225 -45 18 -415 18 -824 0 -242 -11 -290 -11 -302 0 -16 17 -87 269 -248 879
-204 774 -293 1062 -599 1923 l-31 89 80 73 c217 199 311 446 330 875 7 162
-8 472 -31 655 -31 237 -129 678 -227 1020 -230 803 -470 1481 -659 1858 -29
56 -30 57 -72 56 -23 -1 -53 -4 -67 -6z m-123 -119 c-33 -33 -1252 -434 -1318
-434 -8 0 -23 6 -34 13 -17 14 -17 15 2 34 43 43 524 214 808 288 93 24 240
58 325 74 85 17 169 35 185 39 27 8 46 -1 32 -14z m196 -36 c28 -22 277 -708
435 -1203 134 -417 312 -1031 312 -1074 0 -28 -16 -34 -48 -18 -219 113 -308
143 -632 208 -374 75 -456 90 -605 113 -308 47 -462 53 -603 24 -44 -9 -55 -9
-67 3 -13 12 -345 1385 -345 1424 0 24 26 34 220 79 266 61 803 245 1210 415
112 46 102 44 123 29z m-718 -2054 c521 -68 917 -149 1100 -226 216 -91 325
-154 325 -188 0 -35 -77 -41 -395 -30 -537 18 -925 85 -1220 211 -143 60 -201
102 -236 171 -24 47 -24 63 2 89 25 25 32 25 424 -27z m-145 -383 c80 -27 212
-64 294 -81 137 -28 234 -41 631 -87 80 -9 223 -16 335 -16 182 0 201 1 284
26 65 19 94 23 108 16 10 -5 18 -11 18 -12 0 -2 6 -52 14 -113 28 -214 38
-418 34 -684 -4 -247 -7 -272 -31 -365 -48 -180 -132 -326 -270 -472 l-70 -73
6 -83 c9 -107 22 -157 117 -427 197 -566 372 -1159 540 -1834 159 -634 204
-731 378 -802 62 -26 141 -32 143 -11 1 6 0 27 -1 44 -1 27 3 35 26 43 62 24
768 40 790 18 4 -4 0 -18 -8 -30 -12 -18 -52 -32 -224 -75 -671 -170 -1410
-315 -1669 -328 -71 -4 -166 -13 -210 -21 -111 -19 -195 -17 -195 6 0 11 139
56 365 120 296 84 351 92 482 69 61 -11 65 -10 89 12 14 13 41 56 60 95 28 55
37 87 41 147 11 141 -1 188 -171 681 -208 601 -394 1254 -527 1846 -46 208
-77 314 -122 413 -29 65 -31 68 -80 82 -93 28 -222 77 -300 116 -281 139 -443
334 -702 844 -181 357 -413 956 -384 991 11 14 0 17 209 -55z"/>
<path d="M6333 7641 c-108 -50 -90 -207 31 -262 51 -23 88 -24 133 -2 119 56
83 234 -55 273 -50 13 -60 13 -109 -9z"/>
<path d="M6002 7099 c-103 -51 -123 -173 -44 -261 50 -56 102 -78 182 -78 223
0 263 261 53 340 -70 26 -137 26 -191 -1z m176 -99 c39 -24 55 -60 42 -94 -20
-53 -107 -64 -159 -21 -54 46 -49 94 12 120 44 19 67 18 105 -5z"/>
</g>
</svg>
