<?xml version="1.0" standalone="no"?>
<!DOCTYPE svg PUBLIC "-//W3C//DTD SVG 20010904//EN"
 "http://www.w3.org/TR/2001/REC-SVG-20010904/DTD/svg10.dtd">
<svg version="1.0" xmlns="http://www.w3.org/2000/svg"
 width="1080.000000pt" height="1080.000000pt" viewBox="0 0 1080.000000 1080.000000"
 preserveAspectRatio="xMidYMid meet">
<metadata>
Created by potrace 1.16, written by Peter Selinger 2001-2019
</metadata>
<g transform="translate(0.000000,1080.000000) scale(0.100000,-0.100000)"
fill="#0F1E54" stroke="none">
<path d="M227 10783 c-3 -10 -13 -53 -22 -97 -16 -76 -19 -81 -111 -187 -69
-80 -94 -116 -94 -136 0 -24 14 -13 128 104 196 201 270 240 587 303 l140 28
-97 1 c-141 2 -285 -33 -404 -98 -30 -16 -54 -27 -54 -24 0 3 23 30 51 61 47
54 49 57 27 61 -18 2 -36 -11 -77 -55 l-53 -59 7 35 c4 19 9 45 12 58 4 17 1
22 -15 22 -11 0 -23 -8 -25 -17z"/>
<path d="M7766 10770 c29 -17 89 -40 135 -52 74 -18 103 -20 249 -16 l165 6
-92 -19 c-244 -50 -419 -141 -606 -316 -43 -40 -86 -73 -95 -73 -9 0 -59 -5
-110 -10 -113 -10 -169 -35 -290 -128 -46 -35 -131 -95 -188 -133 -169 -114
-212 -179 -309 -459 -31 -91 -72 -193 -91 -227 l-34 -63 68 0 c148 0 301 72
491 231 118 99 162 162 311 459 l138 275 72 60 c39 33 108 90 152 127 120 100
293 183 465 223 157 36 423 62 353 34 -14 -6 -68 -21 -120 -35 -52 -14 -113
-34 -136 -44 -52 -26 -139 -115 -205 -210 -121 -176 -162 -216 -294 -290 -33
-18 -87 -55 -121 -81 -34 -27 -90 -63 -125 -81 -34 -18 -64 -38 -66 -44 -5
-16 258 -27 346 -14 144 20 267 84 364 189 74 81 111 156 138 278 12 54 32
118 44 143 38 74 112 134 218 177 52 21 77 25 152 24 208 -4 552 -81 780 -175
l60 -25 -52 -1 c-64 0 -241 -34 -317 -60 -113 -39 -192 -89 -306 -196 -129
-121 -168 -145 -274 -174 -83 -22 -136 -45 -136 -59 0 -13 308 -24 365 -12 79
15 159 48 208 86 25 19 93 91 152 160 109 128 184 197 242 221 18 8 66 14 106
14 70 0 83 -4 243 -74 171 -74 487 -216 490 -219 1 -1 -52 -2 -119 -3 -132 -1
-198 -11 -322 -51 -172 -55 -288 -132 -499 -330 -220 -207 -281 -232 -476
-193 -97 19 -134 22 -240 17 -203 -10 -314 -47 -455 -153 -85 -64 -145 -92
-228 -105 -57 -10 -76 -16 -66 -21 222 -134 422 -149 682 -53 101 37 326 132
397 168 25 12 66 41 93 65 26 23 78 62 115 86 37 25 132 104 212 176 142 130
177 160 234 196 l28 18 -30 -55 c-16 -30 -47 -94 -68 -142 -48 -115 -105 -177
-234 -257 -176 -109 -214 -143 -329 -296 -55 -74 -110 -114 -154 -114 -14 0
-28 -4 -32 -10 -17 -28 149 -80 258 -80 135 0 231 51 312 167 95 136 184 283
196 324 10 31 10 57 1 114 -11 71 -10 79 14 147 34 95 48 122 96 187 48 64
110 95 269 138 91 24 122 27 244 27 154 -1 193 -10 360 -79 49 -21 123 -48
162 -60 69 -22 73 -22 73 -5 0 13 -11 20 -39 25 -46 8 -217 77 -496 202 -110
50 -254 114 -320 144 -66 29 -141 69 -168 88 -49 37 -70 77 -96 186 -18 72
-53 139 -75 144 -19 3 -19 2 -2 -24 10 -15 33 -73 52 -128 41 -121 33 -117
-89 46 -55 73 -87 107 -101 107 -18 0 -18 -2 5 -27 26 -28 148 -186 164 -212
5 -9 -8 -5 -31 9 -131 79 -185 118 -236 172 -31 33 -63 58 -69 56 -8 -3 18
-36 61 -80 54 -53 106 -93 183 -138 59 -34 106 -64 105 -66 -2 -2 -58 18 -123
43 -165 63 -325 109 -485 139 -119 23 -167 27 -400 30 -325 5 -355 8 -428 45
-65 33 -121 41 -62 9 44 -24 40 -24 -40 0 -36 11 -83 20 -105 19 l-40 0 52
-19 c28 -10 76 -24 107 -31 95 -21 67 -33 -61 -26 -126 7 -193 21 -260 55 -23
12 -53 22 -65 22 -18 0 -11 -7 28 -30z m564 -206 c-61 -58 -77 -84 -176 -301
-68 -152 -187 -235 -412 -288 -63 -14 -116 -25 -117 -23 -9 8 112 98 196 144
115 65 171 119 273 264 105 149 166 211 236 238 30 12 56 21 58 21 2 1 -24
-24 -58 -55z m53 -7 c-33 -36 -52 -81 -74 -179 -30 -132 -70 -209 -154 -294
-73 -73 -125 -107 -222 -145 -48 -18 -83 -22 -198 -25 l-140 -4 95 24 c222 54
301 88 383 164 60 57 84 93 126 197 57 138 91 196 143 246 50 48 81 60 41 16z
m923 -190 c-50 -52 -129 -135 -176 -185 -133 -142 -227 -175 -470 -162 l-95 5
45 12 c25 7 78 19 118 27 97 20 169 60 293 164 130 108 202 157 299 199 41 18
76 33 76 33 1 0 -39 -42 -90 -93z m-1981 -211 c-253 -170 -320 -238 -445 -451
-29 -49 -70 -116 -93 -150 -41 -61 -178 -204 -214 -223 -18 -10 -17 -6 7 46
15 31 49 118 75 192 95 269 137 331 298 437 56 37 140 95 186 130 105 81 171
114 241 123 125 16 125 17 -55 -104z m24 -165 c-138 -274 -165 -317 -270 -416
-151 -142 -327 -247 -439 -261 l-55 -7 88 83 c87 82 144 159 268 365 77 128
200 248 372 363 75 51 139 92 142 92 2 0 -45 -99 -106 -219z m2161 -355 c-22
-58 -71 -146 -109 -194 -51 -64 -121 -112 -289 -196 l-133 -67 75 99 c83 110
135 156 278 244 53 32 116 77 140 98 24 22 44 39 45 40 1 0 -2 -11 -7 -24z
m50 -34 c0 -62 5 -52 -120 -252 -108 -174 -159 -223 -266 -260 -73 -25 -105
-25 -218 2 l-91 21 45 12 c56 15 316 145 390 195 86 58 155 139 200 232 22 45
40 88 40 95 0 7 5 13 10 13 6 0 10 -26 10 -58z m-668 -18 c37 -8 79 -14 94
-14 49 0 20 -9 -101 -30 -66 -11 -212 -45 -325 -75 -196 -52 -310 -76 -430
-89 l-55 -7 38 20 c21 11 68 42 105 69 127 94 223 128 397 141 113 8 192 4
277 -15z m168 -38 c0 -13 -99 -66 -226 -122 -331 -145 -398 -165 -554 -164
-114 0 -177 13 -254 52 l-50 25 90 7 c170 13 295 39 615 125 41 11 129 29 196
41 67 11 132 24 145 30 25 10 38 12 38 6z"/>
<path d="M10230 10796 c0 -3 34 -44 76 -93 41 -48 135 -167 207 -263 151 -200
277 -336 284 -306 3 12 -9 33 -35 60 -47 49 -72 96 -111 211 -35 105 -31 134
38 287 40 89 46 108 32 108 -9 0 -22 -12 -28 -27 -6 -16 -27 -65 -46 -110 -19
-46 -37 -80 -41 -76 -3 3 -6 39 -6 78 0 85 -8 135 -23 135 -6 0 -8 -44 -5
-127 l6 -128 -48 96 c-26 53 -52 111 -58 128 -6 17 -18 31 -26 31 -21 0 3 -61
95 -239 64 -124 122 -260 101 -236 -5 6 -51 66 -102 135 -142 190 -270 340
-291 340 -11 0 -19 -2 -19 -4z"/>
<path d="M1910 10710 c-69 -4 -213 -11 -320 -14 -249 -9 -312 -19 -435 -68
-55 -21 -154 -50 -220 -63 -150 -30 -236 -60 -495 -168 -113 -47 -258 -103
-322 -124 -111 -36 -118 -39 -118 -65 l0 -26 83 25 c78 24 190 67 517 201 216
88 325 117 435 116 89 -1 176 -20 240 -51 17 -9 70 -43 119 -76 204 -137 528
-256 786 -288 167 -20 279 -6 565 71 186 51 348 46 508 -15 34 -14 16 17 -70
116 -198 228 -429 356 -740 409 -132 23 -357 31 -533 20z m580 -63 c280 -67
486 -183 643 -361 l58 -65 -66 24 c-110 42 -354 112 -465 134 -136 26 -362 58
-520 71 -221 20 -421 48 -605 85 -109 23 -223 39 -290 43 l-110 5 45 19 c92
39 161 48 440 59 151 5 280 12 285 14 6 3 116 3 245 1 208 -4 247 -7 340 -29z
m-985 -152 c206 -41 257 -48 590 -80 403 -40 505 -57 768 -127 l122 -33 -79
-7 c-44 -4 -163 -29 -265 -55 -181 -46 -190 -48 -331 -47 -123 0 -163 4 -265
28 -256 59 -472 146 -620 248 -82 57 -151 95 -195 109 -55 18 114 -5 275 -36z"/>
<path d="M10710 9881 c-30 -10 -82 -31 -115 -48 -97 -49 -159 -64 -300 -69
-71 -3 -150 -10 -174 -16 -49 -13 -225 -123 -217 -137 3 -4 17 -6 30 -4 14 3
74 -10 133 -28 95 -30 122 -34 218 -34 103 0 114 2 177 32 76 36 136 87 220
190 32 40 72 80 88 90 33 19 40 43 13 42 -10 0 -43 -8 -73 -18z m-41 -92
c-116 -147 -193 -199 -326 -220 -81 -13 -160 -4 -268 30 l-60 19 114 1 c67 1
138 7 175 17 71 18 209 82 316 147 41 26 77 46 78 46 2 1 -11 -17 -29 -40z
m-104 -5 c-42 -33 -223 -114 -285 -129 -39 -9 -113 -15 -185 -15 l-120 0 50
32 c88 55 110 61 275 68 135 6 163 10 215 32 72 31 76 32 50 12z"/>
<path d="M898 9704 c-122 -22 -229 -67 -448 -188 -190 -106 -356 -185 -423
-201 -32 -8 -37 -35 -6 -35 39 0 224 80 359 155 367 205 466 240 665 239 159
-1 261 -28 501 -134 65 -30 137 -59 159 -66 l40 -13 -66 0 c-36 -1 -126 10
-200 23 -74 14 -159 28 -189 31 -88 11 -212 -12 -370 -66 -444 -154 -543 -178
-772 -186 -130 -5 -148 -8 -148 -23 0 -13 20 -20 98 -34 151 -27 346 -32 480
-12 143 21 213 43 387 121 253 113 405 147 560 125 114 -17 275 -15 293 4 18
18 5 26 -91 60 -43 15 -139 54 -212 87 -263 116 -431 147 -617 113z m402 -234
c0 -5 -10 -10 -23 -10 -34 0 -188 -52 -297 -100 -133 -59 -212 -87 -299 -110
-97 -24 -309 -44 -375 -34 l-51 7 108 18 c123 20 292 69 486 140 116 44 234
77 321 92 50 9 130 7 130 -3z"/>
<path d="M5105 9483 c-139 -13 -374 -76 -575 -154 -204 -79 -328 -158 -512
-326 -53 -48 -161 -146 -240 -218 -78 -71 -190 -175 -248 -231 -144 -137 -162
-149 -291 -193 -63 -21 -166 -59 -230 -84 -239 -94 -410 -133 -627 -146 -328
-19 -716 40 -1067 163 l-100 34 86 1 c47 1 149 -6 225 -15 339 -40 448 -6 804
249 158 113 297 188 401 216 41 11 137 30 214 42 90 13 189 37 280 66 113 36
162 47 254 54 63 5 122 11 133 14 33 11 19 33 -34 51 -29 9 -118 47 -198 84
-225 105 -349 140 -540 155 -201 16 -451 -53 -641 -177 -124 -80 -204 -165
-313 -331 -53 -80 -118 -168 -146 -196 -118 -118 -277 -171 -513 -171 -136 0
-171 9 -357 96 -276 128 -519 279 -822 510 l-48 36 0 -30 c0 -27 12 -39 108
-109 391 -288 749 -477 1167 -614 99 -33 240 -89 313 -124 168 -81 219 -128
392 -360 212 -284 301 -355 685 -548 99 -49 255 -130 347 -178 92 -49 174 -89
183 -89 28 0 15 27 -27 55 -161 105 -310 262 -459 481 -174 257 -283 357 -503
459 -109 51 -271 106 -381 130 -44 10 -100 28 -125 42 -25 13 -36 21 -25 19
143 -36 415 -66 585 -66 241 1 451 40 678 126 81 31 191 72 244 91 l97 35 93
-27 c331 -99 389 -99 728 4 74 23 209 57 300 77 202 43 303 74 399 126 143 75
258 184 494 468 181 217 331 375 372 390 14 5 25 13 25 18 0 11 -171 69 -255
87 -64 13 -226 17 -330 8z m395 -67 c47 -13 74 -25 60 -25 -46 -2 -260 -80
-360 -132 -122 -62 -231 -134 -373 -247 -473 -375 -566 -417 -1237 -561 -74
-16 -136 -28 -137 -27 -2 1 221 207 366 338 57 51 147 133 200 181 269 247
460 346 862 447 189 48 279 60 414 55 88 -3 142 -10 205 -29z m-20 -163 c-64
-65 -172 -185 -240 -268 -323 -390 -449 -474 -830 -550 -74 -15 -220 -51 -323
-81 -224 -63 -283 -75 -385 -75 -83 -1 -118 6 -260 49 l-93 28 243 53 c326 71
494 114 608 158 204 78 300 137 593 368 108 85 225 174 260 198 129 88 381
202 502 227 22 4 40 8 41 9 0 1 -52 -52 -116 -116z m-2475 -70 c44 -8 118 -29
165 -45 91 -32 263 -109 257 -115 -2 -2 -102 10 -221 27 -343 48 -539 39 -714
-31 -120 -48 -177 -92 -377 -294 -256 -259 -307 -292 -530 -339 -17 -4 3 10
45 31 100 51 177 128 280 283 109 163 158 219 255 292 144 107 336 185 510
207 88 10 227 4 330 -16z m197 -173 c76 -10 186 -23 245 -27 l108 -8 -105 -6
c-83 -5 -131 -15 -230 -47 -69 -21 -177 -47 -240 -57 -228 -34 -300 -53 -398
-99 -88 -43 -130 -70 -397 -252 -226 -154 -395 -207 -569 -176 l-40 7 65 13
c79 17 179 58 256 107 33 22 139 119 248 230 155 157 205 201 270 239 80 46
169 79 262 96 73 14 371 2 525 -20z m-1206 -1014 c295 -101 451 -201 577 -369
103 -137 199 -281 179 -266 -83 60 -298 222 -409 309 -287 223 -341 264 -418
316 -44 30 -75 54 -69 54 7 0 69 -20 140 -44z m169 -241 c88 -69 252 -193 365
-277 172 -126 311 -237 459 -365 27 -23 -239 108 -454 225 -223 121 -352 228
-482 400 -48 64 -106 139 -128 167 -23 27 -45 56 -49 63 -11 18 92 -58 289
-213z"/>
<path d="M0 8395 c0 -28 9 -69 20 -93 19 -42 19 -42 0 -32 -17 9 -20 7 -20
-12 0 -19 22 -38 107 -93 173 -113 307 -247 161 -162 -40 24 -117 67 -170 95
-87 47 -98 50 -98 33 0 -15 26 -34 108 -77 59 -31 144 -79 188 -105 127 -76
144 -65 65 42 -28 39 -89 98 -147 145 -112 91 -156 146 -190 242 l-24 67 0
-50z"/>
<path d="M0 7810 c0 -13 18 -51 40 -84 35 -54 90 -180 90 -206 0 -6 -26 10
-58 35 -31 25 -60 45 -64 45 -5 0 -8 -15 -8 -34 0 -31 4 -36 35 -46 20 -7 59
-27 87 -46 28 -19 53 -33 55 -30 9 9 -40 163 -73 231 -18 39 -49 90 -69 114
-31 38 -35 41 -35 21z"/>
<path d="M10365 3123 c-11 -2 -83 -20 -160 -39 -253 -64 -415 -81 -488 -51
-53 23 -59 10 -21 -43 120 -166 250 -259 464 -329 122 -40 212 -58 352 -71
157 -15 282 -10 286 11 3 15 -17 17 -175 22 -197 5 -310 22 -448 68 -162 54
-250 104 -350 201 -49 48 -87 89 -84 92 3 3 35 -3 72 -14 91 -25 214 -38 442
-45 105 -4 226 -11 270 -16 76 -10 220 -40 258 -54 13 -5 17 -2 17 13 0 16
-11 24 -52 36 -118 33 -203 42 -553 57 -132 5 -258 13 -280 17 -38 8 -35 8 37
15 42 4 155 26 250 49 154 37 186 42 293 42 92 0 139 -5 202 -22 99 -27 103
-27 103 -3 0 22 -26 32 -138 56 -67 14 -248 19 -297 8z"/>
<path d="M9620 2525 c0 -30 142 -110 260 -145 168 -51 232 -103 360 -295 40
-60 96 -138 123 -172 73 -92 214 -200 380 -293 51 -29 57 -30 57 -13 0 13 -25
34 -82 68 -107 63 -219 146 -285 213 -29 29 -94 114 -145 190 -50 75 -117 163
-147 196 -63 66 -62 66 75 12 44 -18 109 -52 145 -76 91 -61 240 -215 347
-359 83 -111 92 -120 92 -92 0 32 -85 152 -207 293 -151 174 -316 270 -554
324 -60 14 -139 34 -177 45 -67 21 -167 67 -160 74 2 2 35 -2 73 -9 39 -8 97
-17 130 -20 191 -22 397 -68 515 -116 114 -45 264 -151 339 -238 l40 -47 1 31
c0 26 -12 43 -71 99 -184 173 -405 258 -781 300 -73 8 -168 22 -211 30 -98 19
-117 19 -117 0z"/>
<path d="M6660 2405 c0 -8 12 -17 28 -21 234 -53 408 -134 647 -303 179 -126
280 -179 405 -211 110 -29 447 -39 607 -18 56 8 126 11 155 8 l53 -5 -75 -13
c-355 -60 -668 -174 -898 -325 -119 -78 -158 -110 -342 -275 -162 -147 -139
-137 -347 -152 -73 -5 -154 -15 -180 -21 -89 -21 -209 -88 -364 -206 -85 -64
-230 -166 -324 -228 -236 -155 -323 -239 -409 -396 -30 -55 -106 -223 -106
-235 0 -2 10 -4 23 -4 19 0 29 15 65 98 100 232 200 340 477 515 66 41 192
130 279 196 250 189 357 233 587 243 l75 3 -39 -28 c-22 -16 -121 -82 -221
-146 -383 -248 -526 -368 -674 -569 -56 -76 -192 -292 -192 -306 0 -3 8 -6 18
-6 13 0 36 28 72 88 139 229 296 405 491 549 88 66 418 286 468 313 17 8 -32
-97 -190 -407 -117 -230 -226 -440 -244 -468 -17 -27 -35 -56 -39 -62 -5 -9 1
-13 21 -13 24 0 34 10 71 73 43 73 339 663 386 771 48 108 95 174 159 223 34
27 114 94 177 151 233 210 321 272 515 367 296 146 617 222 1070 255 77 5 147
10 155 9 31 -1 -151 -62 -298 -100 -84 -22 -177 -48 -206 -60 -146 -54 -261
-168 -450 -445 -174 -253 -270 -350 -446 -448 -153 -86 -209 -122 -328 -219
-62 -50 -119 -86 -170 -107 -87 -36 -132 -65 -132 -84 0 -27 530 -40 670 -16
417 70 761 380 851 767 78 333 89 361 187 464 78 83 171 143 312 201 l105 43
130 -1 c411 -5 862 -102 1443 -313 l112 -40 0 23 c0 27 -23 37 -335 142 -318
108 -581 169 -905 211 -109 14 -220 17 -575 18 -575 2 -574 2 -854 184 -235
154 -351 205 -556 246 -73 15 -839 105 -892 105 -14 0 -23 -6 -23 -15z m521
-75 c483 -54 613 -91 872 -253 83 -52 167 -102 185 -111 19 -10 32 -20 29 -23
-7 -6 -115 24 -382 108 -121 39 -287 88 -370 110 -82 23 -199 56 -260 75 -113
34 -365 123 -354 123 4 1 130 -13 280 -29z m80 -136 c24 -8 123 -37 220 -64
96 -27 269 -79 385 -115 115 -37 268 -81 339 -99 l130 -34 -120 -7 c-263 -17
-480 17 -642 99 -75 38 -378 236 -361 236 3 0 25 -7 49 -16z m1389 -512 c-132
-91 -190 -151 -258 -263 -36 -60 -61 -114 -158 -344 -87 -206 -181 -316 -354
-413 -104 -59 -355 -140 -565 -182 -33 -7 -93 -23 -134 -36 -41 -13 -76 -22
-78 -21 -1 2 23 14 55 27 52 21 114 63 247 168 28 22 109 74 181 115 262 149
310 194 499 468 232 336 304 406 486 469 96 33 114 36 79 12z m12 -66 c-83
-90 -115 -161 -168 -375 -48 -196 -77 -270 -146 -378 -123 -190 -354 -364
-563 -423 -158 -46 -339 -59 -540 -41 l-70 6 210 49 c116 26 246 59 290 73
244 76 420 204 526 383 23 39 68 137 101 218 98 244 146 328 245 424 40 38
158 127 172 128 2 0 -24 -29 -57 -64z"/>
<path d="M2055 2010 c-88 -22 -135 -56 -286 -205 -146 -144 -163 -172 -173
-280 -6 -64 -12 -78 -62 -152 -59 -87 -122 -150 -178 -177 -47 -22 -215 -39
-316 -32 -182 13 -323 63 -463 164 -118 85 -186 128 -294 182 l-95 48 139 7
c76 4 181 16 233 27 118 26 210 25 320 -1 124 -30 205 -27 314 12 89 32 121
57 73 57 -13 0 -62 23 -108 51 -111 68 -195 99 -288 106 -133 10 -226 -25
-373 -140 -85 -66 -137 -85 -263 -93 -92 -5 -106 -4 -167 20 -65 25 -68 25
-68 7 0 -11 9 -23 20 -26 36 -11 143 -103 211 -181 103 -118 126 -163 144
-279 27 -181 21 -204 -101 -356 -88 -109 -102 -135 -139 -249 -45 -144 -44
-321 3 -463 10 -32 23 -53 34 -55 16 -3 16 0 4 30 -24 57 -46 184 -46 265 0
147 57 317 139 421 24 30 60 79 82 110 21 30 39 53 39 50 0 -25 -37 -209 -65
-318 -49 -193 -65 -298 -65 -414 0 -111 6 -146 24 -146 9 0 10 19 4 78 -12
108 3 217 62 461 27 115 53 237 57 271 3 33 9 63 14 65 19 12 78 -352 79 -486
0 -24 -18 -71 -53 -140 -51 -99 -97 -233 -84 -245 12 -13 24 7 36 60 7 30 34
98 61 150 67 131 72 152 60 282 -14 155 -27 229 -70 399 -31 126 -55 254 -45
243 2 -2 38 -82 80 -178 138 -313 220 -459 352 -633 44 -58 87 -128 104 -170
44 -106 76 -157 100 -157 19 0 19 1 -4 32 -25 33 -67 111 -67 124 0 4 26 -17
57 -47 81 -76 129 -111 149 -107 13 2 2 15 -37 45 -30 23 -67 56 -84 73 l-29
31 42 -15 c23 -8 95 -25 159 -36 124 -22 223 -50 285 -81 21 -11 48 -19 60
-19 17 1 9 9 -32 30 -82 43 -160 67 -312 95 -194 35 -242 59 -318 154 -149
186 -250 363 -398 697 -49 110 -105 231 -126 267 -45 82 -139 200 -207 261
l-51 45 69 -30 c92 -42 183 -93 272 -152 134 -90 715 -538 749 -577 41 -48 52
-85 52 -171 0 -229 102 -392 313 -498 115 -58 290 -124 315 -119 22 4 -32 56
-120 114 -79 51 -105 87 -153 214 -49 128 -62 148 -194 283 l-115 118 155
-104 c279 -186 578 -315 849 -367 147 -28 263 -65 320 -101 25 -15 74 -58 110
-94 35 -36 71 -65 79 -65 9 0 -13 29 -49 66 -73 74 -67 73 85 -17 46 -27 94
-49 107 -49 20 0 18 3 -15 25 -20 14 -85 52 -144 85 -59 33 -100 60 -92 60 9
0 60 -11 113 -24 104 -27 174 -60 235 -113 22 -18 47 -33 58 -33 29 1 -70 84
-142 119 -71 35 -182 65 -305 81 -47 6 -87 14 -89 16 -2 2 59 4 136 4 240 0
364 32 588 150 134 71 134 71 177 59 24 -7 86 -13 138 -13 88 -1 101 2 185 38
50 21 143 58 208 82 256 96 283 119 462 388 73 111 147 217 164 235 17 19 30
35 29 36 -11 8 -132 25 -180 25 -148 0 -396 -95 -557 -215 -72 -53 -168 -160
-397 -444 -61 -76 -62 -76 -235 -163 -96 -48 -205 -96 -243 -107 -109 -33
-295 -54 -416 -47 -106 6 -333 36 -326 43 2 2 73 8 159 12 213 11 243 26 440
208 100 92 185 141 298 171 42 12 114 39 160 60 46 22 104 43 129 47 86 14
101 37 33 50 -21 3 -81 20 -133 37 -189 60 -356 47 -516 -42 -110 -60 -172
-129 -239 -262 -31 -62 -71 -128 -88 -146 -47 -50 -134 -90 -231 -107 l-85
-14 -103 30 c-206 62 -421 164 -618 294 l-115 76 50 -8 c28 -4 120 -7 205 -7
195 1 271 22 440 118 154 89 198 104 317 110 109 6 146 13 140 30 -2 6 -17 14
-33 18 -16 4 -72 18 -124 32 -281 75 -375 57 -600 -114 -202 -153 -281 -182
-409 -149 -45 11 -100 48 -338 228 -156 117 -282 215 -281 216 2 2 37 -6 78
-17 109 -29 318 -35 435 -14 168 31 262 71 505 211 170 99 230 119 323 112 58
-4 89 -13 145 -42 39 -20 115 -48 169 -62 85 -23 119 -27 253 -27 l155 -1 119
48 c148 60 206 72 280 60 31 -6 58 -7 60 -4 6 9 -116 111 -172 144 -26 15 -85
39 -132 54 -122 37 -300 38 -490 0 -74 -14 -166 -31 -205 -37 -81 -12 -142
-33 -206 -71 -25 -15 -71 -34 -101 -43 -59 -17 -111 -43 -294 -147 -100 -57
-252 -129 -271 -129 -3 0 9 12 26 26 17 14 58 63 90 108 65 89 130 155 181
181 18 9 88 36 155 60 169 60 229 92 326 176 100 85 156 113 210 106 72 -10
41 31 -71 95 -89 51 -209 70 -295 48z m274 -67 c51 -26 69 -39 56 -41 -87 -14
-389 -88 -440 -107 -122 -45 -220 -127 -298 -245 l-29 -45 7 50 c4 27 13 61
20 75 25 47 287 296 342 324 107 54 222 50 342 -11z m-40 -87 c-2 -2 -46 -38
-97 -79 -96 -79 -169 -119 -287 -157 -98 -32 -185 -69 -219 -93 l-29 -21 19
34 c10 19 53 69 94 110 88 89 155 122 340 165 63 15 129 31 145 35 39 11 39
11 34 6z m-1379 -66 c41 -6 95 -24 145 -49 121 -60 134 -74 50 -50 -156 44
-286 35 -516 -36 -62 -19 -114 -33 -116 -32 -5 5 134 105 178 128 90 46 150
55 259 39z m185 -122 c50 -11 96 -24 103 -28 16 -8 -119 -50 -162 -50 -16 0
-85 12 -155 26 -93 19 -145 25 -199 22 -40 -3 -71 -4 -70 -3 10 9 177 48 234
54 82 10 129 6 249 -21z m1873 -48 c90 -25 174 -67 231 -114 24 -20 41 -36 38
-36 -3 0 -36 6 -74 14 -109 23 -317 36 -479 29 -82 -3 -239 -2 -349 2 l-200 8
40 18 c22 10 97 28 165 40 69 12 168 30 220 40 136 25 315 25 408 -1z m57
-142 l110 -11 -45 -13 c-25 -6 -87 -28 -139 -48 -126 -50 -232 -64 -354 -47
-121 17 -227 45 -296 77 -31 15 -70 32 -86 38 -44 16 661 20 810 4z m1560
-289 l30 -1 -30 -10 c-95 -33 -194 -107 -360 -268 -227 -220 -281 -254 -562
-359 l-133 -49 53 62 c28 35 97 116 151 182 129 154 201 223 291 279 161 101
396 181 495 169 19 -2 49 -4 65 -5z m5 -61 c-18 -24 -75 -108 -128 -188 -153
-233 -216 -288 -415 -361 -45 -17 -134 -52 -199 -80 -64 -27 -139 -52 -166
-56 -54 -6 -182 4 -182 15 0 4 60 27 132 52 161 55 322 132 403 192 33 25 119
104 190 177 72 73 152 149 180 169 39 30 199 120 213 122 2 0 -11 -19 -28 -42z
m-2185 -157 l100 -30 -136 0 c-166 -1 -196 -9 -385 -106 -139 -70 -243 -106
-349 -120 l-50 -7 60 31 c33 17 87 51 120 76 137 101 229 159 283 176 82 28
223 20 357 -20z m980 -119 l60 -20 -110 -1 c-197 -2 -307 -27 -403 -91 -47
-31 -81 -69 -157 -171 -78 -105 -109 -139 -158 -170 -76 -49 -87 -49 -38 0 22
22 64 88 95 149 87 169 197 265 361 314 82 24 264 19 350 -10z m-15 -91 c-47
-21 -121 -49 -165 -61 -138 -39 -183 -67 -371 -234 -100 -89 -180 -131 -264
-139 l-55 -6 48 19 c80 31 142 88 237 215 154 206 229 241 525 244 l130 1 -85
-39z m-1813 -337 c17 -32 45 -96 63 -141 17 -46 36 -85 41 -88 5 -4 9 -11 9
-16 0 -15 -82 44 -121 88 -47 52 -101 143 -142 239 -19 43 -46 104 -61 134
l-27 55 103 -106 c64 -65 115 -128 135 -165z m-182 96 c107 -238 165 -307 325
-390 88 -45 191 -113 145 -95 -11 4 -64 25 -118 46 -116 45 -206 94 -264 143
-59 51 -120 147 -142 225 -23 78 -39 242 -22 226 6 -6 40 -76 76 -155z"/>
<path d="M10645 1473 c-16 -2 -109 -20 -205 -39 -406 -82 -578 -170 -856 -436
-82 -79 -172 -159 -199 -179 -81 -59 -203 -115 -279 -128 -80 -14 -214 -63
-248 -91 -36 -29 -13 -43 63 -38 35 2 143 0 239 -5 367 -18 575 37 766 205 70
61 120 116 259 283 159 192 271 295 376 349 77 39 99 46 149 46 67 0 90 7 90
26 0 11 -15 14 -62 13 -35 -1 -76 -4 -93 -6z m-227 -131 c-79 -63 -162 -152
-360 -382 -139 -163 -206 -221 -319 -280 -125 -65 -205 -82 -414 -87 -99 -2
-227 -1 -285 4 l-105 8 70 23 c39 12 122 31 185 42 264 47 315 75 646 353 145
122 221 178 337 245 76 44 278 132 305 132 7 0 -20 -26 -60 -58z m-251 -30
c-118 -64 -237 -149 -392 -283 -177 -152 -247 -204 -330 -244 -107 -52 -128
-52 -54 -1 37 25 127 103 201 174 163 157 265 234 400 301 92 45 226 98 253
100 6 0 -29 -21 -78 -47z"/>
<path d="M10700 459 c-47 -39 -155 -137 -240 -217 -86 -81 -179 -168 -209
-194 l-53 -48 40 0 c37 0 48 8 188 141 82 77 200 184 262 237 93 80 112 101
112 124 0 15 -3 28 -7 28 -5 -1 -46 -33 -93 -71z"/>
</g>
</svg>
