<?xml version="1.0" standalone="no"?>
<!DOCTYPE svg PUBLIC "-//W3C//DTD SVG 20010904//EN"
 "http://www.w3.org/TR/2001/REC-SVG-20010904/DTD/svg10.dtd">
<svg version="1.0" xmlns="http://www.w3.org/2000/svg"
 width="1080.000000pt" height="1080.000000pt" viewBox="0 0 1080.000000 1080.000000"
 preserveAspectRatio="xMidYMid meet">
<metadata>
Created by potrace 1.16, written by Peter Selinger 2001-2019
</metadata>
<g transform="translate(0.000000,1080.000000) scale(0.100000,-0.100000)"
fill="#0F1E54" stroke="none">
<path d="M8327 9056 c-137 -49 -207 -164 -229 -376 l-11 -107 -44 27 c-60 38
-121 53 -201 48 -89 -5 -153 -41 -197 -112 -28 -46 -30 -56 -30 -145 0 -91 2
-100 39 -173 63 -128 183 -243 341 -328 111 -59 449 -180 504 -180 38 0 44 41
15 107 -82 185 -72 355 43 693 98 290 99 397 4 491 -66 66 -148 85 -234 55z
m143 -101 c41 -21 62 -66 61 -136 0 -70 -6 -92 -82 -327 -62 -192 -89 -317
-89 -411 1 -57 22 -190 36 -225 6 -17 4 -18 -21 -12 -76 19 -280 102 -355 144
-114 63 -234 181 -280 275 -70 144 -28 274 95 293 80 12 184 -38 241 -116 34
-47 68 -60 92 -36 14 14 18 47 23 179 8 182 22 243 72 308 56 73 139 99 207
64z"/>
<path d="M8803 8592 c-150 -54 -224 -183 -225 -392 -1 -187 24 -262 241 -723
171 -362 181 -377 234 -363 53 13 365 284 508 441 192 212 289 395 289 547 0
109 -64 229 -142 267 -63 30 -160 29 -230 -3 -66 -29 -165 -103 -197 -147
l-25 -33 -17 83 c-24 109 -57 179 -114 240 -82 88 -214 122 -322 83z m185
-101 c101 -52 143 -137 176 -356 8 -54 21 -105 29 -112 23 -23 65 -6 84 35 24
50 149 171 212 206 70 37 142 41 187 9 51 -36 69 -85 69 -184 0 -78 -3 -91
-38 -162 -42 -85 -132 -211 -215 -302 -135 -148 -427 -404 -443 -388 -29 29
-295 600 -337 723 -33 96 -36 115 -36 220 -1 85 4 128 17 165 21 62 67 119
115 145 49 25 131 26 180 1z"/>
<path d="M2962 7461 c-15 -15 -57 -82 -94 -147 -36 -66 -485 -843 -997 -1729
l-931 -1610 2 -718 c3 -698 4 -719 22 -733 17 -12 433 -14 2936 -14 2318 0
2919 3 2931 13 9 6 155 296 326 642 868 1757 1143 2315 1272 2574 l141 285 0
711 c0 627 -2 713 -16 733 l-15 22 -2776 0 -2775 0 -26 -29z m2207 -93 c-7
-13 -54 -97 -104 -188 -51 -91 -201 -363 -335 -605 -133 -242 -244 -442 -246
-444 -1 -2 -48 32 -103 75 -281 221 -622 338 -856 295 -226 -42 -397 -249
-421 -512 l-7 -69 -459 0 -459 0 12 23 c7 12 76 132 154 267 78 135 251 434
385 665 133 231 255 441 272 468 l30 47 1074 0 1075 0 -12 -22z m1094 -46
c-21 -38 -130 -235 -243 -440 l-205 -372 -65 0 c-245 -1 -579 -149 -811 -359
-55 -50 -69 -58 -78 -47 -7 8 -33 24 -59 36 -37 18 -60 21 -118 18 l-72 -3 15
29 c16 31 398 722 569 1029 l98 177 504 0 503 0 -38 -68z m1813 -664 l-362
-733 -712 -3 -712 -2 0 37 c0 59 -37 199 -72 272 -49 104 -179 226 -262 247
-14 3 -29 10 -32 15 -3 5 106 209 242 454 l247 445 1013 0 1013 0 -363 -732z
m43 -1324 c-193 -390 -510 -1031 -704 -1424 -193 -393 -400 -809 -458 -925
l-106 -210 0 591 -1 591 378 764 c208 420 571 1155 808 1633 l429 868 3 -589
2 -589 -351 -710z m-4256 1041 c167 -48 387 -173 518 -294 l61 -56 -22 -65
c-42 -124 -11 -269 74 -348 24 -22 49 -41 56 -44 25 -8 -75 -155 -169 -248
-249 -248 -538 -253 -838 -16 -89 71 -189 182 -242 271 -109 181 -131 412 -56
582 104 234 311 307 618 218z m2087 -6 c233 -124 309 -452 169 -730 -99 -197
-284 -377 -467 -453 -217 -91 -391 -69 -584 74 -75 56 -183 191 -236 295 l-20
40 35 35 c18 19 46 60 61 90 25 50 27 66 28 173 l0 117 35 36 c19 20 68 62
109 93 316 240 673 335 870 230z m-1172 -326 c100 -72 83 -295 -27 -368 -68
-46 -126 -45 -181 1 -48 41 -70 93 -70 166 1 97 41 166 125 212 39 21 117 16
153 -11z m-1653 -290 c38 -154 133 -313 267 -445 l78 -78 -840 0 c-462 0 -840
2 -840 5 0 3 75 136 166 295 l167 290 492 0 493 0 17 -67z m4535 62 c0 -3 -65
-136 -145 -295 l-145 -290 -727 0 -726 0 94 98 c52 53 109 118 127 144 49 71
110 204 128 281 l17 67 688 0 c379 0 689 -2 689 -5z m-2900 -465 c70 -350 203
-637 406 -874 43 -50 56 -71 36 -56 -35 26 -77 22 -87 -9 -7 -25 34 -138 106
-289 32 -68 53 -122 45 -119 -43 17 -141 90 -204 154 -182 183 -294 450 -343
813 -15 111 -18 439 -4 525 7 45 10 53 13 30 2 -16 16 -95 32 -175z m-205 -76
c-176 -526 -430 -887 -737 -1049 -38 -20 -68 -34 -68 -31 0 3 13 26 30 52 52
82 90 226 71 263 -16 29 -37 27 -138 -14 -48 -19 -88 -33 -90 -32 -1 2 39 39
89 82 162 140 380 349 478 459 52 59 122 127 155 151 67 48 164 146 215 217
18 27 35 46 37 44 2 -2 -17 -66 -42 -142z m472 -105 l33 -21 -36 -66 c-59
-106 -56 -107 -97 15 -20 59 -41 128 -47 153 -6 25 -13 53 -16 62 -3 9 25 -14
63 -53 37 -38 82 -79 100 -90z m-1335 -69 c35 -16 91 -38 124 -47 l62 -18
-117 -210 c-129 -234 -108 -210 -360 -414 -64 -51 -120 -100 -125 -108 -5 -9
-4 -25 3 -39 14 -31 44 -31 122 1 33 13 59 21 57 17 -2 -4 -34 -64 -73 -134
l-70 -128 -1118 0 -1118 0 25 43 c13 23 140 242 281 487 142 245 275 475 297
513 l39 67 954 0 955 0 62 -30z m3534 -162 c-51 -106 -175 -356 -275 -556
l-181 -362 -697 2 -698 3 -47 95 c-26 52 -52 107 -57 122 l-10 28 47 -24 c68
-35 239 -89 257 -82 8 3 20 17 27 31 15 33 5 43 -146 158 -163 125 -311 299
-405 478 l-23 44 62 111 62 112 57 -23 c76 -31 199 -49 280 -40 70 7 189 43
249 75 36 18 66 19 814 20 l777 0 -93 -192z m-2606 57 c12 -121 47 -294 79
-395 l21 -65 -122 -220 c-66 -121 -132 -237 -145 -257 l-23 -38 -448 1 c-420
1 -443 2 -378 15 340 73 648 351 869 784 35 69 79 164 98 212 19 48 35 84 36
80 1 -4 7 -56 13 -117z m218 -704 c31 -51 95 -133 140 -182 l84 -89 -256 0
c-141 0 -256 2 -256 4 0 2 48 91 107 197 75 135 109 188 115 178 5 -8 34 -56
66 -108z m-1120 47 c-30 -64 -107 -151 -177 -198 -28 -19 -53 -42 -56 -51 -8
-24 5 -49 29 -59 16 -7 7 -9 -32 -9 l-54 -1 50 93 c127 235 123 229 193 259
35 14 65 25 67 23 2 -2 -7 -28 -20 -57z m-428 -1073 l0 -655 -1125 0 -1125 0
0 655 0 655 1125 0 1125 0 0 -655z m1120 0 l0 -655 -510 0 -510 0 0 655 0 655
510 0 510 0 0 -655z m848 637 c20 -11 60 -27 89 -37 51 -18 53 -18 73 0 11 10
20 26 20 37 0 17 25 18 655 18 l655 0 0 -655 0 -655 -1120 0 -1120 0 0 655 0
655 355 0 c326 0 359 -2 393 -18z"/>
<path d="M8092 7228 c-26 -33 -442 -881 -442 -902 0 -30 22 -49 52 -44 19 2
57 71 245 443 122 242 222 451 222 466 1 14 -4 30 -11 37 -16 16 -53 15 -66 0z"/>
<path d="M7647 6843 c-8 -10 -57 -102 -108 -205 -83 -168 -91 -190 -81 -213
13 -28 52 -34 74 -11 7 7 55 99 107 204 86 173 94 193 83 216 -14 31 -51 35
-75 9z"/>
<path d="M4276 5506 c-103 -100 -238 -124 -388 -71 -109 39 -123 41 -141 15
-25 -35 -10 -60 56 -91 84 -40 156 -52 264 -47 78 4 103 10 155 36 76 37 168
124 168 157 0 21 -32 55 -51 55 -3 0 -32 -24 -63 -54z"/>
<path d="M5790 6290 c-17 -32 -4 -55 50 -88 61 -38 95 -89 116 -174 15 -61 15
-72 0 -144 -9 -46 -35 -119 -61 -172 -25 -52 -45 -101 -45 -111 0 -25 20 -41
52 -41 25 0 32 9 73 90 94 188 111 348 48 481 -59 126 -199 222 -233 159z"/>
<path d="M1855 5028 c-9 -13 -127 -209 -261 -436 -155 -261 -244 -421 -242
-434 4 -28 29 -42 59 -35 19 5 77 97 274 429 138 232 251 432 253 444 2 14 -5
28 -20 38 -30 22 -44 20 -63 -6z"/>
<path d="M2038 4893 c-30 -35 -218 -364 -218 -381 0 -26 20 -42 52 -42 25 0
37 16 139 188 61 103 111 198 111 211 1 41 -55 57 -84 24z"/>
</g>
</svg>
