<?xml version="1.0" standalone="no"?>
<!DOCTYPE svg PUBLIC "-//W3C//DTD SVG 20010904//EN"
 "http://www.w3.org/TR/2001/REC-SVG-20010904/DTD/svg10.dtd">
<svg version="1.0" xmlns="http://www.w3.org/2000/svg"
 width="1080.000000pt" height="1080.000000pt" viewBox="0 0 1080.000000 1080.000000"
 preserveAspectRatio="xMidYMid meet">
<metadata>
Created by potrace 1.16, written by Peter Selinger 2001-2019
</metadata>
<g transform="translate(0.000000,1080.000000) scale(0.100000,-0.100000)"
fill="#0F1E54" stroke="none">
<path d="M5059 9104 c-8 -10 -14 -65 -17 -177 -2 -89 -7 -165 -11 -169 -3 -4
-105 -23 -226 -43 -253 -41 -277 -47 -305 -82 -24 -30 -25 -77 -9 -236 10 -90
9 -111 -2 -122 -8 -8 -61 -25 -118 -40 -459 -116 -912 -348 -1311 -673 -138
-112 -373 -349 -483 -487 -793 -990 -947 -2297 -402 -3410 325 -664 832 -1179
1484 -1507 737 -371 1550 -474 2401 -304 756 152 1489 594 1963 1185 128 161
190 252 305 454 708 1236 532 2694 -454 3762 -356 385 -838 703 -1346 890
-209 77 -470 146 -663 176 -44 6 -87 16 -96 20 -13 7 -17 30 -21 111 -4 79
-10 113 -26 144 -59 115 -191 164 -447 164 -66 0 -125 4 -132 8 -8 5 -13 58
-15 164 -3 143 -5 159 -23 172 -25 19 -30 19 -46 0z m326 -434 c157 -18 222
-49 256 -124 20 -43 26 -150 10 -175 -7 -10 -71 -14 -317 -16 -270 -2 -333 -6
-499 -29 -104 -15 -203 -26 -220 -24 -35 3 -39 18 -51 180 l-7 96 39 11 c65
19 312 59 434 70 239 23 246 23 355 11z m143 -407 c59 -52 382 -1027 359
-1086 -4 -11 -70 -15 -379 -20 -328 -6 -646 -21 -915 -43 -98 -8 -104 -2 -83
80 68 267 246 694 400 961 80 138 44 125 340 125 231 0 260 -2 278 -17z m264
-19 c351 -48 819 -192 857 -263 7 -12 77 -215 156 -453 125 -373 143 -434 131
-446 -12 -12 -38 -12 -188 7 -199 24 -367 37 -591 47 -86 3 -160 10 -162 15
-3 4 -23 79 -45 166 -71 287 -147 517 -260 782 -33 78 -58 146 -55 152 8 12
26 12 157 -7z m-932 -9 c0 -9 -23 -56 -51 -105 -150 -268 -298 -618 -379 -900
-19 -63 -37 -120 -42 -126 -5 -6 -59 -17 -121 -24 -204 -22 -597 -87 -762
-126 -84 -19 -115 -18 -115 4 0 25 47 161 106 307 96 238 299 610 374 685 22
22 58 49 80 60 63 32 351 125 511 164 306 76 399 90 399 61z m2047 -344 c329
-165 714 -464 858 -666 56 -77 165 -291 165 -322 0 -30 -10 -29 -161 6 -150
36 -330 72 -547 110 -90 16 -167 32 -172 37 -4 5 -24 68 -45 139 -52 181 -125
397 -195 581 -33 86 -60 161 -60 165 0 20 45 6 157 -50z m-3198 -49 c-178
-300 -321 -607 -395 -846 -11 -33 -27 -64 -39 -71 -20 -13 -809 -245 -833
-245 -19 0 -15 19 15 69 155 265 492 625 803 857 109 82 398 263 440 277 28 8
31 -5 9 -41z m2207 -797 c30 -40 139 -758 179 -1184 20 -215 19 -228 -4 -236
-10 -3 -184 4 -385 15 -397 22 -850 26 -1098 10 -293 -18 -323 -19 -337 -11
-17 11 -9 116 35 466 47 377 135 875 159 899 8 8 54 16 117 20 56 4 175 11
263 17 223 15 752 28 920 22 103 -3 143 -8 151 -18z m489 -11 c365 -28 553
-54 571 -79 15 -20 121 -448 164 -665 61 -308 128 -755 117 -784 -4 -9 -17
-16 -31 -16 -47 0 -991 130 -1013 139 -23 11 -23 6 -43 281 -22 294 -59 584
-116 895 -19 105 -37 197 -40 206 -2 9 3 24 11 33 18 18 25 18 380 -10z
m-2047 -47 c8 -9 0 -67 -28 -206 -65 -323 -122 -689 -134 -871 -11 -149 -28
-269 -40 -279 -6 -6 -81 -17 -166 -26 -186 -19 -452 -55 -690 -93 -96 -15
-183 -26 -192 -24 -25 5 -23 49 7 284 26 205 60 404 101 583 39 174 116 453
128 469 12 15 259 64 606 121 361 58 392 62 408 42z m3192 -121 c223 -48 414
-90 425 -95 16 -7 32 -44 68 -157 119 -379 180 -716 207 -1131 10 -155 6 -202
-18 -217 -5 -3 -40 4 -78 15 -142 41 -385 99 -579 139 -110 22 -203 44 -207
48 -4 4 -19 87 -32 184 -51 363 -120 730 -202 1067 -24 101 -44 191 -44 200 0
23 21 42 40 37 8 -3 197 -43 420 -90z m-4315 -66 c3 -6 -19 -109 -49 -229 -83
-330 -152 -720 -181 -1028 -4 -40 -13 -77 -20 -83 -7 -5 -180 -49 -384 -97
-286 -67 -376 -85 -389 -76 -15 9 -17 26 -14 124 7 249 40 534 92 784 37 176
85 354 99 368 10 10 797 244 828 246 6 1 15 -4 18 -9z m4955 -111 c242 -377
409 -873 460 -1364 14 -137 11 -199 -11 -203 -16 -3 -241 70 -268 88 -11 6
-17 44 -23 152 -21 392 -88 802 -194 1192 -42 157 -49 216 -25 216 5 0 32 -36
61 -81z m-5924 -326 c-68 -228 -124 -597 -144 -943 -5 -80 -14 -156 -21 -169
-13 -24 -66 -51 -100 -51 -39 0 -51 25 -45 98 28 348 107 660 249 975 27 59
52 107 57 107 5 0 7 -8 4 -17z m3574 -823 c129 -6 244 -15 256 -20 19 -7 21
-19 27 -122 10 -170 8 -942 -3 -1193 -14 -336 -19 -384 -38 -393 -53 -25
-1769 90 -1798 121 -14 14 -39 248 -55 512 -19 309 2 1059 31 1089 25 25 1093
29 1580 6z m-1684 -129 c-3 -53 -9 -253 -12 -446 -6 -342 1 -563 28 -873 9
-101 9 -135 0 -144 -9 -9 -134 2 -535 46 -287 32 -525 62 -530 66 -11 10 -34
209 -48 420 -8 120 -10 280 -5 455 7 309 17 434 36 445 43 26 655 117 935 138
140 11 139 12 131 -107z m2359 84 c189 -22 458 -63 693 -106 77 -14 77 -13 91
-169 25 -269 33 -444 33 -750 -1 -362 -14 -596 -35 -617 -10 -10 -68 -17 -198
-24 -286 -16 -872 -26 -893 -16 -16 8 -17 17 -12 80 22 253 30 523 30 962 0
275 -3 532 -7 571 -9 82 2 103 50 98 15 -2 127 -15 248 -29z m-3532 -215 c-7
-282 -5 -703 5 -915 8 -199 8 -253 -2 -263 -10 -10 -80 0 -371 52 -197 36
-361 69 -366 73 -11 11 -36 192 -48 343 -16 195 -17 584 -3 607 10 16 715 183
757 180 l30 -2 -2 -75z m4619 44 c256 -52 592 -142 636 -170 22 -14 22 -17 22
-232 0 -120 -5 -279 -10 -353 -18 -233 -68 -582 -86 -598 -11 -10 -704 -104
-730 -99 -17 3 -18 31 -19 548 -2 399 -6 595 -18 730 -16 186 -14 210 19 210
7 0 91 -16 186 -36z m-5496 -444 c1 -187 6 -302 18 -390 32 -233 32 -218 2
-231 -49 -23 -70 -2 -96 93 -49 182 -80 421 -80 620 0 59 4 118 9 131 10 27
63 47 116 44 l29 -2 2 -265z m6424 179 l130 -50 0 -63 c0 -231 -134 -877 -188
-904 -9 -5 -54 -19 -100 -32 -120 -33 -119 -35 -88 161 39 239 55 403 68 674
11 234 15 264 40 265 4 0 66 -23 138 -51z m-6392 -890 c24 -8 34 -19 41 -47
13 -48 91 -413 91 -421 -1 -8 -52 102 -104 224 -78 183 -98 255 -68 255 5 0
23 -5 40 -11z m521 -104 c184 -35 341 -70 348 -78 7 -7 20 -60 29 -118 34
-234 101 -531 176 -782 30 -101 38 -141 30 -149 -8 -8 -64 4 -209 47 -397 116
-430 134 -508 290 -82 163 -170 432 -225 689 -34 154 -33 165 10 166 8 0 165
-29 349 -65z m1007 -160 c335 -36 512 -59 521 -68 7 -7 33 -132 57 -277 44
-260 89 -488 141 -704 35 -146 38 -143 -131 -122 -177 23 -601 100 -759 139
l-129 32 -23 60 c-72 186 -167 560 -207 812 -23 148 -21 183 8 183 8 0 243
-25 522 -55z m4751 -20 c-8 -47 -119 -273 -202 -409 -78 -129 -175 -269 -182
-262 -3 2 18 65 45 138 43 113 111 335 152 495 10 38 14 43 48 49 20 3 53 10
72 14 69 16 73 14 67 -25z m-286 -31 c26 -32 -97 -416 -218 -682 -36 -79 -74
-153 -84 -166 -22 -28 -176 -85 -404 -150 -249 -72 -238 -74 -202 45 67 219
119 464 142 670 9 79 22 155 29 169 11 23 23 26 351 76 401 61 369 58 386 38z
m-3146 -83 c300 -21 595 -37 898 -47 159 -5 189 -9 195 -22 21 -57 -126 -1004
-162 -1041 -14 -13 -49 -17 -224 -20 -364 -6 -1150 42 -1178 72 -30 32 -149
607 -200 971 -15 108 -15 120 -1 131 12 9 61 7 204 -7 103 -10 314 -26 468
-37z m2298 -98 c-6 -203 -159 -867 -207 -897 -43 -27 -461 -83 -825 -111 -216
-17 -227 -15 -218 40 3 16 21 118 41 225 38 213 68 434 87 633 7 70 17 134 23
142 9 11 92 15 441 20 237 4 462 10 500 14 39 5 90 8 115 7 l45 -1 -2 -72z
m-4390 -729 c56 -19 167 -52 247 -73 l145 -37 111 -214 c120 -232 132 -260
113 -260 -39 0 -405 271 -559 414 -75 70 -180 184 -180 196 0 15 13 13 123
-26z m4807 -113 c0 -13 -130 -130 -250 -226 -159 -128 -471 -328 -487 -312 -3
3 40 93 96 200 l102 194 124 32 c68 18 183 52 257 75 144 48 158 51 158 37z
m-4012 -90 c136 -28 362 -66 502 -86 262 -38 280 -43 280 -86 0 -57 126 -411
196 -551 33 -66 43 -108 25 -108 -21 0 -211 42 -300 66 -193 53 -366 118 -561
210 l-116 55 -61 92 c-142 213 -258 457 -217 457 3 0 117 -22 252 -49z m3330
-98 c4 -26 -80 -189 -147 -286 -78 -113 -144 -180 -208 -214 -127 -67 -435
-166 -668 -214 -124 -25 -141 -27 -154 -14 -14 13 -6 48 68 308 46 160 90 302
97 314 12 19 25 22 121 27 248 15 540 48 758 85 61 10 115 18 120 16 6 -1 11
-11 13 -22z m-2346 -53 c212 -24 519 -41 848 -46 195 -2 361 -7 368 -9 6 -2
12 -12 12 -22 0 -30 -173 -607 -186 -622 -35 -39 -785 -40 -881 -1 -36 15
-143 248 -232 504 -53 152 -60 191 -38 199 17 8 14 8 109 -3z"/>
<path d="M9240 9075 c-5 -13 -21 -86 -35 -162 -30 -156 -42 -202 -78 -290 -72
-176 -241 -353 -432 -450 -54 -28 -78 -56 -70 -82 8 -27 28 -37 90 -45 191
-25 313 -205 355 -526 14 -110 26 -140 55 -140 39 0 51 23 58 107 25 311 169
498 429 557 142 33 148 35 148 59 0 31 -7 38 -80 81 -287 169 -408 420 -370
770 14 127 9 146 -36 146 -17 0 -27 -8 -34 -25z m15 -570 c41 -117 151 -265
244 -330 23 -15 41 -33 41 -39 0 -6 -45 -32 -99 -58 -123 -58 -204 -135 -251
-236 -52 -111 -55 -116 -65 -115 -5 1 -18 31 -28 68 -33 126 -100 223 -196
284 -79 51 -79 54 37 138 84 61 171 167 228 276 52 100 57 101 89 12z"/>
<path d="M1836 8648 c-3 -13 -3 -138 1 -279 5 -214 4 -257 -8 -265 -8 -4 -39
-11 -70 -15 -143 -17 -254 -133 -233 -244 8 -42 67 -113 111 -131 80 -34 212
-5 254 56 32 45 49 285 30 433 -11 86 -7 87 107 48 55 -19 107 -31 116 -28 10
4 16 18 16 37 0 27 -6 33 -74 65 -119 57 -168 129 -184 277 -6 58 -9 63 -33
66 -20 2 -28 -2 -33 -20z m-23 -653 c38 -37 28 -173 -13 -195 -30 -16 -85 -12
-145 11 -48 18 -55 24 -55 48 0 29 55 102 93 123 18 10 53 19 99 27 4 0 13 -6
21 -14z"/>
<path d="M10086 7334 c-9 -8 -16 -32 -16 -52 0 -20 -7 -192 -16 -382 -12 -254
-20 -349 -29 -359 -12 -12 -22 -12 -72 2 -92 24 -145 29 -219 17 -92 -15 -185
-61 -250 -124 -50 -49 -54 -55 -54 -100 0 -56 17 -93 73 -154 111 -120 295
-142 474 -58 73 35 108 71 97 99 -12 32 -44 30 -128 -9 -74 -36 -88 -39 -166
-39 -75 0 -92 4 -151 32 -113 56 -129 91 -70 156 63 68 130 100 223 105 109 6
163 -9 208 -60 28 -32 43 -41 69 -41 17 0 38 6 45 14 10 10 19 86 31 259 10
135 22 253 27 263 9 18 11 18 36 1 71 -47 106 -58 187 -59 93 0 135 18 135 60
0 30 -15 35 -109 34 -66 0 -79 3 -115 28 -71 50 -116 140 -138 276 -11 66 -29
107 -49 107 -4 0 -15 -7 -23 -16z"/>
<path d="M1663 2718 c-6 -7 -13 -42 -16 -78 -9 -119 -37 -173 -143 -276 -52
-50 -94 -99 -94 -107 0 -9 19 -24 43 -35 24 -11 53 -33 65 -49 22 -31 66 -154
78 -218 11 -58 33 -40 58 46 26 88 65 159 101 183 14 9 53 27 88 39 80 29 83
45 15 95 -111 82 -157 176 -158 320 0 71 -3 92 -14 92 -7 0 -18 -6 -23 -12z
m42 -320 c17 -24 45 -61 63 -82 17 -20 32 -41 32 -46 0 -5 -24 -20 -54 -33
-36 -17 -63 -38 -78 -61 -41 -64 -52 -60 -127 44 l-49 67 32 29 c17 16 52 53
78 83 26 29 53 51 60 49 7 -2 27 -25 43 -50z"/>
<path d="M2444 2415 c-9 -13 -20 -59 -25 -102 -12 -105 -50 -224 -96 -302 -49
-84 -156 -191 -265 -266 -66 -45 -88 -66 -88 -82 0 -17 7 -24 28 -28 178 -36
257 -123 297 -325 39 -199 38 -195 65 -195 28 0 30 5 54 134 17 96 67 207 119
267 46 53 138 101 229 120 39 8 75 17 80 20 22 14 1 38 -76 89 -218 143 -308
345 -266 599 14 87 -18 129 -56 71z m30 -481 c30 -60 58 -98 118 -157 43 -43
78 -81 78 -86 0 -5 -27 -19 -61 -31 -87 -33 -160 -103 -205 -196 -20 -41 -39
-72 -44 -69 -5 3 -14 22 -21 43 -23 71 -59 131 -109 181 -28 28 -55 51 -59 51
-5 0 -12 7 -15 17 -5 12 18 40 82 102 59 57 104 111 131 159 24 40 48 71 54
69 7 -2 30 -39 51 -83z"/>
</g>
</svg>
