<?xml version="1.0" standalone="no"?>
<!DOCTYPE svg PUBLIC "-//W3C//DTD SVG 20010904//EN"
 "http://www.w3.org/TR/2001/REC-SVG-20010904/DTD/svg10.dtd">
<svg version="1.0" xmlns="http://www.w3.org/2000/svg"
 width="1080.000000pt" height="1080.000000pt" viewBox="0 0 1080.000000 1080.000000"
 preserveAspectRatio="xMidYMid meet">
<metadata>
Created by potrace 1.16, written by Peter Selinger 2001-2019
</metadata>
<g transform="translate(0.000000,1080.000000) scale(0.100000,-0.100000)"
fill="#0F1E54" stroke="none">
<path d="M4875 10031 c-3 -5 -14 -7 -25 -4 -11 3 -27 0 -35 -7 -10 -8 -29 -10
-54 -6 -22 3 -42 2 -46 -4 -3 -5 -12 -7 -20 -4 -8 3 -29 -1 -47 -10 -20 -10
-43 -14 -60 -11 -18 4 -28 2 -28 -5 0 -6 -5 -8 -10 -5 -6 4 -24 -1 -42 -9 -36
-18 -50 -21 -28 -5 11 8 9 8 -10 3 -14 -4 -45 -13 -70 -19 -27 -8 -39 -14 -30
-18 10 -4 9 -6 -5 -5 -35 2 -95 -14 -89 -24 4 -6 -1 -8 -14 -4 -12 4 -26 1
-33 -7 -8 -8 -22 -12 -33 -9 -13 3 -17 1 -12 -6 5 -8 2 -10 -8 -6 -9 3 -16 1
-16 -5 0 -6 -3 -10 -7 -10 -28 5 -53 -2 -47 -13 5 -8 2 -9 -9 -5 -9 3 -22 0
-29 -7 -7 -7 -18 -11 -25 -9 -16 6 -84 -33 -75 -42 4 -5 -1 -5 -10 -2 -10 3
-24 -1 -33 -9 -8 -8 -20 -12 -26 -8 -8 5 -9 3 -5 -5 5 -8 3 -11 -5 -10 -20 4
-59 -11 -59 -22 0 -6 -4 -7 -10 -4 -5 3 -17 -3 -27 -15 -19 -22 -38 -27 -28
-7 4 6 -1 3 -9 -7 -9 -11 -16 -16 -16 -10 0 5 -5 1 -11 -8 -5 -10 -15 -18 -20
-18 -6 0 -7 5 -4 10 8 13 -88 -39 -96 -52 -3 -6 -10 -10 -15 -10 -27 -3 -43
-12 -37 -21 3 -6 1 -7 -5 -3 -15 9 -55 -18 -44 -29 4 -5 2 -5 -5 -1 -12 7 -95
-39 -101 -56 -2 -4 -7 -6 -12 -3 -4 2 -19 -6 -34 -20 -15 -13 -29 -23 -31 -22
-10 4 -154 -97 -149 -105 3 -5 1 -7 -5 -6 -16 5 -71 -36 -71 -52 0 -12 -2 -13
-9 -1 -7 11 -10 9 -16 -8 -3 -12 -10 -19 -15 -16 -5 3 -13 -3 -19 -12 -6 -10
-11 -14 -11 -10 0 9 -71 -43 -102 -74 -9 -9 -14 -20 -10 -25 4 -4 2 -4 -5 0
-7 4 -38 -19 -78 -57 -36 -36 -65 -62 -65 -59 0 3 -18 -12 -40 -33 -22 -21
-40 -43 -40 -48 0 -5 -19 -27 -42 -49 -24 -22 -36 -36 -28 -32 8 4 -3 -10 -26
-32 -50 -48 -96 -108 -89 -117 3 -4 2 -5 -1 -2 -9 6 -64 -67 -58 -77 3 -5 0
-8 -6 -8 -6 0 -8 -4 -5 -10 3 -5 1 -10 -4 -10 -13 0 -65 -80 -57 -87 3 -4 -2
-12 -12 -20 -11 -10 -12 -12 -2 -8 10 4 9 1 -3 -8 -19 -16 -73 -112 -57 -102
5 3 10 1 10 -4 0 -6 -7 -11 -15 -11 -8 0 -16 -8 -17 -17 0 -10 -2 -24 -2 -31
-1 -7 -7 -17 -15 -21 -7 -5 -14 -20 -14 -35 1 -14 -3 -23 -8 -20 -5 3 -9 2
-10 -3 0 -4 -3 -17 -6 -28 -2 -11 -5 -28 -6 -37 -1 -9 -3 -15 -6 -12 -9 8 -31
-71 -25 -91 4 -16 3 -17 -5 -5 -10 13 -11 13 -12 0 0 -8 -3 -24 -5 -35 -3 -11
-6 -33 -8 -50 -1 -16 -8 -43 -15 -60 -7 -16 -15 -52 -17 -80 -5 -66 -10 -96
-19 -117 -4 -10 -5 -25 -2 -33 4 -8 2 -17 -4 -21 -6 -4 -8 -27 -3 -61 5 -41 4
-54 -5 -49 -7 5 -11 -5 -11 -31 0 -28 3 -34 10 -23 7 10 10 -22 10 -100 0 -78
-3 -110 -10 -100 -7 11 -10 1 -9 -35 0 -38 3 -45 10 -30 6 13 7 -3 3 -47 -4
-45 -3 -68 4 -68 7 0 9 -13 5 -34 -3 -18 -1 -36 5 -40 6 -3 8 -15 5 -25 -3
-10 0 -22 6 -25 6 -4 11 -12 11 -17 0 -6 -4 -7 -10 -4 -5 3 -10 -1 -10 -10 0
-9 4 -14 8 -11 5 3 9 -15 9 -39 0 -24 5 -50 11 -58 7 -8 9 -17 5 -20 -3 -4 0
-13 7 -22 7 -8 10 -25 6 -39 -3 -14 -2 -27 4 -31 5 -3 7 -12 3 -20 -3 -8 0
-15 7 -15 6 0 8 -5 5 -10 -4 -6 -1 -17 5 -25 7 -8 10 -21 7 -29 -7 -17 13 -86
24 -86 5 0 9 -15 9 -32 0 -56 3 -67 17 -72 9 -4 11 -14 8 -29 -4 -16 -1 -30
10 -41 12 -12 13 -16 3 -16 -8 0 -7 -4 5 -11 9 -5 17 -15 17 -22 0 -7 -4 -6
-10 3 -15 24 -12 2 5 -30 9 -17 12 -30 8 -30 -4 0 1 -6 12 -13 10 -8 15 -18
12 -24 -3 -5 -1 -26 5 -47 6 -20 14 -32 18 -26 4 6 7 -3 7 -21 0 -19 6 -35 16
-41 10 -5 17 -14 17 -21 0 -8 -4 -6 -11 3 -9 12 -9 11 -4 -5 4 -11 10 -28 12
-37 3 -10 9 -18 14 -18 5 0 8 -3 7 -7 -3 -16 15 -63 24 -63 5 0 7 -4 4 -9 -8
-12 19 -62 29 -53 4 4 6 0 3 -8 -6 -18 26 -97 50 -124 9 -11 12 -17 6 -13 -5
3 3 -23 20 -58 16 -35 34 -61 39 -58 6 3 7 1 3 -5 -9 -14 14 -63 27 -55 6 3 7
1 3 -5 -9 -14 14 -63 27 -55 6 3 7 1 3 -5 -8 -14 14 -63 26 -56 5 3 8 2 7 -3
-4 -25 3 -43 19 -43 10 0 13 -3 6 -8 -8 -5 -6 -15 6 -34 9 -16 20 -26 23 -23
4 3 5 2 2 -1 -6 -9 34 -84 45 -84 5 0 7 -6 4 -13 -3 -8 2 -20 11 -27 8 -7 15
-18 15 -25 0 -7 12 -25 28 -40 15 -16 22 -25 15 -21 -7 4 -3 -11 9 -34 12 -22
26 -40 30 -40 5 0 7 -4 4 -8 -3 -5 6 -20 20 -35 14 -15 22 -27 19 -27 -6 0 66
-119 96 -157 9 -12 20 -19 24 -15 3 4 5 2 4 -3 -5 -17 12 -56 22 -49 5 3 9 2
8 -3 -4 -21 2 -33 16 -33 8 0 14 -3 13 -7 -5 -18 14 -53 25 -47 7 4 9 4 5 -1
-11 -11 11 -47 24 -39 6 4 8 3 5 -3 -4 -5 3 -20 14 -31 11 -12 16 -22 12 -22
-4 0 0 -7 10 -14 10 -8 18 -16 17 -18 -4 -11 15 -38 28 -38 8 0 12 -3 9 -6
-11 -11 13 -45 26 -38 7 4 9 4 5 -1 -9 -10 10 -47 21 -41 4 3 8 -1 8 -8 0 -19
56 -96 70 -96 7 0 12 -4 10 -10 -2 -11 103 -155 160 -217 45 -50 53 -69 23
-53 -12 6 -31 11 -43 10 -12 -1 -24 -1 -27 -1 -3 1 -111 2 -240 2 -129 -1
-250 -1 -268 -1 -17 1 -42 -5 -54 -11 -16 -9 -23 -9 -26 0 -5 14 -32 15 -32 0
0 -7 -14 -8 -41 -4 -26 5 -39 4 -36 -2 4 -6 -6 -10 -21 -10 -60 -1 -102 -7
-102 -15 0 -5 -4 -7 -9 -4 -12 8 -101 -24 -101 -36 0 -5 -5 -6 -10 -3 -6 4
-23 -7 -40 -23 -16 -16 -31 -28 -33 -26 -2 3 -21 -16 -41 -41 -21 -25 -34 -45
-29 -45 4 0 3 -4 -4 -8 -6 -4 -13 -14 -15 -21 -2 -8 -11 -23 -21 -33 -10 -11
-16 -26 -13 -34 3 -8 2 -12 -3 -9 -9 5 -27 -32 -23 -47 1 -5 -2 -8 -7 -8 -5 0
-11 -8 -15 -17 -3 -10 -15 -33 -26 -51 -11 -18 -17 -38 -14 -44 4 -7 2 -8 -4
-4 -11 6 -14 0 -11 -20 0 -4 -5 -10 -12 -14 -23 -15 -131 -214 -121 -225 4 -5
2 -6 -4 -2 -5 3 -19 -11 -29 -31 -10 -20 -25 -45 -33 -54 -8 -9 -11 -22 -7
-27 3 -6 2 -11 -4 -11 -11 0 -67 -99 -63 -112 1 -4 -2 -8 -8 -8 -5 0 -16 -13
-25 -30 -9 -16 -12 -30 -9 -30 4 0 -3 -11 -15 -24 -13 -14 -20 -29 -16 -35 3
-6 2 -11 -2 -11 -5 0 -14 -9 -21 -21 -11 -17 -11 -20 0 -14 7 5 3 -2 -10 -14
-12 -12 -19 -27 -16 -33 4 -6 3 -8 -3 -5 -12 7 -36 -40 -27 -54 3 -5 0 -8 -8
-7 -7 2 -12 -2 -11 -9 1 -6 -4 -17 -12 -23 -8 -7 -15 -16 -15 -21 0 -4 -14
-31 -30 -59 -17 -28 -25 -48 -18 -45 7 4 6 0 -3 -7 -25 -21 -60 -88 -53 -100
4 -6 2 -8 -4 -4 -6 3 -14 -4 -18 -16 -4 -13 -5 -23 -3 -23 2 0 -5 -10 -16 -22
-10 -12 -34 -50 -52 -85 -19 -35 -48 -87 -65 -115 -16 -29 -27 -53 -23 -53 3
0 -3 -10 -15 -22 -11 -12 -20 -26 -20 -31 0 -5 -9 -22 -21 -38 -11 -16 -17
-33 -14 -39 3 -5 2 -10 -4 -10 -6 0 -17 -13 -26 -30 -9 -16 -12 -30 -8 -30 4
0 -1 -6 -10 -12 -9 -7 -17 -19 -19 -27 -2 -8 -11 -23 -21 -33 -10 -11 -16 -26
-13 -34 3 -8 2 -12 -3 -9 -9 5 -27 -32 -23 -48 1 -5 -2 -6 -7 -3 -9 6 -27 -31
-23 -47 1 -5 -2 -6 -8 -2 -5 3 -10 -1 -10 -9 0 -9 -3 -16 -8 -16 -4 0 -16 -17
-27 -38 -11 -20 -26 -43 -33 -50 -7 -8 -9 -19 -5 -25 3 -7 3 -9 -2 -5 -4 4
-17 -7 -29 -25 -12 -18 -39 -56 -60 -85 -21 -28 -34 -52 -29 -53 4 0 0 -4 -10
-8 -10 -4 -19 -11 -20 -16 0 -6 -10 -18 -21 -27 -12 -10 -17 -17 -12 -18 5 0
-3 -9 -18 -21 -14 -11 -23 -25 -20 -31 4 -6 2 -8 -4 -4 -12 7 -44 -33 -36 -46
3 -4 -1 -8 -9 -8 -17 0 -42 -44 -33 -59 4 -6 2 -11 -3 -11 -17 0 -13 -30 4
-36 8 -4 13 -9 10 -14 -5 -8 41 -52 73 -69 11 -6 29 -11 39 -10 13 1 11 3 -7
10 -19 7 -17 7 10 2 19 -4 53 -6 75 -5 148 5 206 11 219 21 11 9 16 9 21 0 6
-8 11 -7 17 5 8 14 18 16 46 12 24 -4 47 -1 64 8 18 10 28 11 28 4 0 -6 9 -3
19 6 16 14 30 16 80 10 33 -3 68 -3 78 1 10 4 46 6 80 5 34 -1 64 3 68 9 8 14
55 14 55 1 0 -15 88 -12 93 3 6 18 858 18 865 0 5 -17 122 -18 122 -2 0 7 15
9 48 4 83 -13 302 -15 1447 -15 1194 0 1507 2 1623 15 51 5 72 4 72 -4 0 -16
167 -15 173 2 3 9 101 12 443 13 485 1 805 7 962 19 73 5 102 4 102 -4 0 -15
247 -15 252 0 3 8 159 12 563 14 512 2 526 1 155 -4 l-405 -6 407 -3 c390 -2
409 -1 427 17 11 11 23 16 27 13 4 -4 4 -2 0 5 -3 6 -2 15 4 18 16 10 9 113
-7 127 -10 8 -11 13 -2 19 14 8 21 79 8 79 -5 0 -8 3 -8 8 3 20 -2 32 -13 26
-6 -4 -8 -3 -5 3 4 6 -4 27 -18 47 -14 20 -25 41 -25 46 0 5 -8 13 -17 19 -10
5 -17 12 -15 15 6 15 1 26 -10 20 -6 -4 -8 -3 -5 3 4 6 -4 27 -18 47 -14 20
-25 41 -25 47 0 6 -5 7 -12 3 -7 -4 -8 -3 -4 4 9 15 -18 55 -29 44 -5 -4 -5
-2 -1 5 7 13 -8 45 -38 81 -19 22 -31 57 -17 48 4 -3 7 11 7 29 0 23 -3 30 -9
22 -6 -8 -7 -4 -4 12 4 17 1 25 -14 28 -10 3 -19 11 -19 18 0 6 -11 17 -24 23
-13 6 -27 20 -31 31 -3 12 -11 21 -16 21 -6 0 -8 4 -5 8 3 5 -2 18 -12 28 -9
11 -18 26 -20 34 -2 8 -11 23 -20 34 -9 10 -16 20 -15 22 5 12 -11 43 -20 37
-6 -3 -7 -1 -3 5 7 11 -24 74 -53 106 -9 10 -14 19 -12 20 2 0 1 11 -3 24 -4
12 -12 19 -18 16 -6 -4 -8 -2 -5 3 9 14 -17 65 -28 55 -5 -4 -5 -2 -1 5 9 16
-14 64 -27 56 -6 -3 -7 -1 -4 4 4 6 -3 23 -15 39 -13 16 -16 25 -8 20 13 -6
13 -6 0 6 -8 7 -16 21 -18 31 -5 28 -38 78 -46 70 -4 -4 -4 0 -1 9 3 8 -2 23
-11 33 -10 10 -19 26 -19 37 -1 11 -9 25 -18 29 -9 5 -14 16 -11 23 3 8 -5 24
-18 36 -13 13 -16 19 -9 15 9 -5 6 4 -7 22 -12 17 -19 33 -15 36 3 4 -2 9 -11
13 -9 3 -13 10 -10 15 6 11 -26 69 -39 69 -4 0 -6 3 -4 8 3 4 -3 23 -14 42
-10 19 -21 43 -25 53 -3 9 -10 17 -15 17 -5 0 -9 3 -8 8 3 18 -14 51 -24 45
-5 -3 -7 -1 -4 5 8 12 -33 92 -50 99 -6 3 -9 11 -7 18 3 7 -4 23 -16 35 -12
12 -19 24 -17 27 10 9 -15 63 -26 56 -6 -4 -8 -1 -5 8 7 17 -46 132 -56 122
-4 -4 -4 0 -1 9 4 10 -2 25 -14 37 -24 24 -27 35 -8 26 6 -4 5 -1 -4 7 -9 7
-14 19 -12 26 3 6 -2 12 -11 12 -9 0 -16 5 -16 11 0 5 4 8 9 4 5 -3 3 8 -5 25
-9 17 -19 28 -23 26 -4 -3 -8 4 -8 16 -2 22 -82 148 -95 148 -4 0 -8 5 -8 11
0 19 -80 90 -92 83 -7 -4 -8 -3 -4 4 8 13 -28 35 -39 24 -5 -4 -5 -1 -1 6 4 6
4 12 -1 13 -4 0 -17 3 -28 6 -22 5 -166 6 -205 0 -14 -2 -32 -7 -40 -12 -13
-8 -550 -15 -550 -7 0 2 17 23 38 48 20 25 36 48 35 52 -1 4 7 12 17 17 10 6
42 42 72 80 29 39 58 75 64 80 24 22 53 73 46 80 -4 5 -2 5 4 2 11 -7 29 19
25 36 -1 5 3 6 8 3 11 -7 58 64 53 79 -2 5 0 7 4 2 4 -4 22 14 41 40 18 25 31
48 29 50 -2 2 10 18 25 34 16 17 26 35 23 40 -3 5 -1 9 4 9 5 0 21 18 36 40
14 22 24 40 20 40 -3 0 2 7 10 16 9 8 14 20 10 25 -3 5 0 8 8 7 7 -2 12 3 11
10 -2 6 1 12 5 12 13 0 43 59 36 72 -4 7 -3 8 4 4 13 -8 36 30 27 44 -3 6 0
10 8 10 12 0 50 62 52 85 0 6 8 19 18 30 9 11 17 25 18 30 0 6 7 18 16 27 8 9
12 22 7 29 -4 7 -3 10 2 6 5 -3 17 8 26 24 11 19 13 29 6 29 -7 0 -6 5 3 13 8
6 22 21 29 31 13 17 13 19 1 11 -8 -5 -1 9 15 30 16 22 22 35 14 30 -11 -6
-10 -3 3 12 9 11 14 23 10 26 -3 4 -1 7 5 7 6 0 9 7 6 15 -4 8 -1 15 5 15 6 0
25 30 42 68 72 156 81 176 83 186 1 6 7 21 14 33 14 26 16 45 2 23 -6 -9 -10
-10 -10 -3 0 7 7 16 16 21 9 5 17 20 17 34 1 15 5 24 10 21 4 -2 7 -1 8 4 0 4
3 17 6 28 2 11 5 28 6 37 1 9 4 15 8 12 4 -2 9 3 13 11 3 8 0 15 -7 15 -8 0
-9 3 -1 8 16 10 37 53 30 60 -3 3 -6 -1 -6 -8 0 -7 -3 -11 -6 -7 -4 3 3 18 15
34 15 19 20 35 16 53 -4 19 -3 21 5 10 9 -13 10 -13 11 0 0 8 3 24 6 35 2 11
5 29 7 40 1 11 7 30 14 43 7 12 10 27 7 32 -3 6 -1 10 5 10 7 0 9 8 5 21 -5
13 -2 25 6 29 13 9 18 25 23 75 1 17 8 44 15 60 8 17 14 42 14 57 0 15 4 25 9
22 4 -3 8 0 8 5 0 6 -4 11 -9 11 -5 0 -2 14 6 32 9 17 16 52 16 77 0 25 4 51
9 57 5 7 10 28 12 46 2 19 6 40 10 46 4 6 4 23 0 38 -5 19 -4 25 5 20 6 -4 11
-1 11 9 0 9 -5 13 -10 10 -7 -4 -7 1 0 17 16 40 30 164 23 214 -4 34 -3 45 5
40 8 -5 12 3 12 24 0 20 -4 29 -11 24 -8 -5 -9 3 -3 27 11 43 12 222 1 272 -6
27 -5 37 2 32 7 -4 11 6 11 27 0 26 -3 30 -11 18 -8 -11 -9 2 -4 46 3 33 2 63
-1 67 -7 7 -13 49 -14 94 0 12 -5 25 -11 29 -8 4 -7 9 2 15 10 6 11 11 3 17
-6 4 -11 16 -11 27 2 36 -15 125 -24 125 -5 0 -6 6 -3 14 3 7 -2 30 -10 51 -9
20 -13 42 -9 48 4 6 1 7 -7 2 -10 -6 -12 -4 -7 8 3 9 -1 33 -11 54 -9 21 -17
45 -18 53 -3 40 -17 79 -27 73 -5 -3 -7 -1 -4 4 10 16 -13 74 -26 66 -6 -4 -8
0 -4 10 3 9 -3 27 -13 40 -11 13 -17 27 -14 29 8 8 -18 58 -27 52 -5 -3 -6 1
-3 9 3 8 -3 22 -12 32 -10 10 -19 27 -19 38 -1 11 -10 26 -20 33 -11 8 -16 14
-12 14 4 0 3 9 -3 20 -6 11 -16 17 -22 14 -6 -4 -8 -3 -4 4 3 6 -1 18 -10 26
-8 9 -13 16 -9 16 3 0 -8 20 -26 45 -18 25 -37 45 -42 45 -6 0 -7 3 -4 6 11
12 -148 201 -165 196 -5 -1 -7 1 -4 6 7 12 -48 64 -59 55 -4 -5 -5 -3 -2 3 8
14 -17 37 -28 26 -5 -4 -5 -2 -2 4 7 12 -72 81 -86 76 -5 -1 -6 2 -3 7 7 11
-34 42 -46 35 -4 -3 -8 2 -8 11 0 9 -9 19 -20 22 -11 3 -20 9 -20 13 0 10
-110 93 -110 83 0 -4 -4 -3 -8 4 -9 14 -109 83 -121 83 -4 0 -14 7 -21 15 -7
8 -16 12 -21 9 -5 -3 -9 0 -9 7 0 7 -3 10 -6 6 -4 -3 -15 4 -25 16 -13 16 -18
18 -19 7 0 -9 -5 -7 -16 8 -9 13 -22 21 -29 18 -7 -2 -16 1 -18 8 -5 12 -65
46 -84 47 -5 1 -20 10 -35 21 -16 11 -28 16 -28 12 0 -3 -6 -2 -12 4 -29 23
-110 61 -122 56 -7 -3 -16 2 -20 11 -4 10 -12 15 -22 11 -8 -3 -12 -2 -9 4 3
6 1 11 -4 11 -20 3 -26 4 -38 12 -6 4 -19 4 -29 0 -13 -5 -15 -3 -9 7 6 10 4
12 -8 7 -9 -3 -17 -1 -19 5 -2 6 -14 12 -25 13 -12 0 -28 7 -37 14 -9 8 -27
14 -41 14 -14 0 -23 2 -20 5 9 9 -66 31 -83 25 -9 -4 -13 -2 -9 4 6 10 -55 29
-77 24 -4 -1 -29 8 -54 20 -47 23 -106 39 -157 43 -16 1 -43 8 -60 15 -16 8
-46 13 -65 13 -19 0 -39 3 -45 7 -18 14 -100 30 -123 24 -12 -3 -29 0 -37 7
-8 7 -21 10 -29 7 -7 -3 -19 0 -25 6 -6 6 -43 11 -83 12 -40 0 -81 5 -91 9 -9
5 -29 6 -42 3 -14 -2 -28 -1 -30 4 -7 11 -583 11 -590 0z m468 -196 c10 -4 36
-5 57 -2 24 3 40 1 40 -5 0 -7 18 -8 51 -4 34 5 49 4 44 -4 -3 -5 0 -10 9 -10
8 0 16 6 19 13 3 9 7 9 19 -1 9 -7 37 -14 62 -16 26 -2 50 -6 53 -10 3 -3 17
-3 29 0 15 4 24 2 24 -5 0 -6 5 -11 11 -11 5 0 7 6 3 13 -6 8 -3 8 9 -2 9 -7
24 -11 32 -7 8 3 15 0 15 -5 0 -6 9 -9 20 -6 11 3 20 1 20 -5 0 -6 11 -7 26
-4 15 4 23 3 20 -3 -3 -5 4 -9 17 -10 56 -3 77 -7 77 -15 0 -4 7 -6 15 -2 8 3
15 2 15 -3 0 -5 11 -9 25 -10 58 -4 65 -6 65 -14 0 -5 7 -7 15 -3 8 3 15 0 15
-6 0 -6 3 -9 6 -5 4 3 22 0 41 -8 19 -8 39 -12 44 -9 5 3 9 -1 9 -8 0 -9 3 -9
10 2 5 8 10 10 10 4 0 -6 18 -18 40 -27 23 -9 40 -11 40 -5 0 5 7 2 16 -7 9
-9 24 -13 35 -10 12 4 21 1 25 -9 3 -9 10 -14 14 -11 5 3 12 1 15 -5 4 -6 15
-8 25 -5 11 4 22 0 28 -11 5 -9 20 -17 34 -17 15 -1 24 -5 21 -9 -2 -5 5 -8
16 -8 11 0 23 -5 26 -10 4 -6 15 -8 25 -5 11 4 22 0 27 -10 5 -9 19 -17 30
-18 12 0 19 -5 17 -9 -3 -4 -1 -8 4 -8 5 0 31 -10 58 -22 27 -12 52 -21 57
-20 4 1 7 -2 7 -7 0 -7 28 -19 47 -19 3 0 9 -4 12 -9 11 -16 64 -46 56 -32 -5
8 4 2 19 -13 16 -15 32 -25 36 -23 5 3 10 1 12 -4 1 -5 10 -11 18 -13 8 -2 23
-11 34 -20 10 -10 24 -15 29 -11 6 3 7 1 3 -5 -6 -11 30 -28 49 -23 5 1 7 -1
3 -5 -7 -6 5 -17 82 -71 13 -10 59 -46 102 -80 43 -35 78 -59 78 -55 0 4 5 -1
11 -11 6 -9 16 -14 22 -11 7 4 9 4 5 -1 -11 -11 12 -36 25 -28 5 3 7 1 4 -4
-4 -6 3 -19 16 -29 18 -16 19 -16 8 -1 -24 31 -6 18 34 -24 22 -23 33 -38 25
-34 -8 5 19 -29 60 -76 41 -47 78 -84 83 -82 4 3 7 1 6 -4 -4 -16 13 -43 24
-36 5 3 7 1 3 -5 -3 -5 5 -23 18 -39 13 -15 31 -43 40 -61 9 -18 21 -30 27
-27 5 4 8 3 7 -2 -5 -16 45 -112 55 -106 6 3 7 1 3 -5 -9 -14 14 -63 27 -55 6
3 7 1 4 -4 -4 -6 -1 -26 7 -43 7 -18 15 -29 18 -24 3 5 3 3 1 -4 -2 -8 0 -19
4 -25 4 -7 9 -21 10 -32 2 -11 8 -24 13 -29 6 -6 10 -18 10 -27 0 -9 9 -36 19
-60 11 -24 17 -47 15 -51 -3 -4 -1 -8 5 -8 6 0 8 -7 5 -15 -4 -8 -2 -15 3 -15
8 0 10 -7 14 -65 1 -14 5 -25 9 -25 5 0 6 -9 3 -20 -3 -11 -1 -20 3 -20 9 0
11 -11 14 -85 1 -19 6 -33 10 -30 5 3 6 -10 3 -30 -3 -19 -2 -35 3 -35 5 0 10
-30 12 -66 1 -37 7 -75 13 -85 6 -13 6 -19 -1 -19 -5 0 -10 -17 -10 -37 0 -28
3 -34 10 -23 6 10 10 -36 9 -140 0 -96 -4 -147 -9 -135 -7 15 -9 10 -9 -22 -1
-24 4 -43 9 -43 7 0 7 -7 0 -21 -6 -11 -10 -35 -9 -52 2 -18 0 -38 -4 -44 -4
-7 -9 -42 -10 -78 -1 -36 -5 -65 -8 -65 -4 0 -7 -15 -7 -32 0 -18 -5 -54 -11
-80 -6 -26 -8 -55 -4 -64 4 -12 3 -15 -5 -10 -8 5 -11 -1 -10 -16 0 -13 -4
-42 -11 -66 -7 -23 -9 -47 -6 -52 3 -6 1 -10 -5 -10 -7 0 -10 -6 -7 -12 2 -7
-2 -31 -10 -53 -7 -21 -11 -45 -8 -53 2 -7 1 -10 -5 -7 -5 3 -9 -3 -9 -12 -1
-62 -8 -95 -21 -103 -11 -7 -12 -10 -2 -10 10 0 9 -4 -3 -16 -10 -11 -14 -25
-11 -40 4 -15 1 -26 -10 -32 -10 -5 -16 -23 -17 -45 0 -20 -5 -34 -9 -31 -4 3
-8 2 -9 -3 0 -4 -3 -17 -6 -28 -2 -11 -5 -30 -6 -43 -1 -12 -8 -26 -15 -31 -7
-4 -14 -21 -15 -38 -1 -17 -5 -29 -9 -27 -9 6 -21 -34 -13 -46 3 -5 1 -10 -5
-10 -7 0 -9 -7 -6 -16 3 -8 2 -13 -3 -10 -9 6 -25 -49 -22 -73 1 -7 -2 -10 -7
-7 -12 7 -25 -22 -16 -35 3 -5 1 -9 -4 -9 -6 0 -13 -7 -16 -16 -4 -10 -2 -13
6 -7 7 4 3 -5 -9 -21 -13 -15 -19 -34 -16 -43 4 -9 2 -14 -3 -11 -5 3 -17 -10
-27 -29 -9 -19 -13 -32 -7 -28 5 3 10 1 10 -4 0 -6 -5 -11 -10 -11 -6 0 -23
-27 -39 -60 -16 -33 -27 -60 -24 -60 2 0 -5 -14 -17 -30 -12 -16 -18 -30 -15
-30 3 0 -3 -13 -15 -30 -12 -17 -18 -30 -13 -30 4 0 3 -4 -3 -8 -11 -7 -50
-78 -54 -97 -1 -5 -8 -18 -17 -27 -8 -9 -12 -21 -9 -26 3 -6 -1 -13 -10 -16
-10 -4 -14 -12 -10 -23 4 -10 4 -14 0 -10 -10 10 -36 -31 -28 -45 4 -7 3 -8
-4 -4 -14 8 -36 -30 -26 -46 4 -6 3 -8 -4 -4 -12 7 -65 -81 -56 -95 3 -5 -2
-9 -10 -9 -15 0 -21 -12 -17 -33 1 -5 -3 -6 -8 -3 -9 6 -27 -31 -23 -47 1 -5
-2 -6 -7 -3 -9 6 -26 -22 -23 -36 1 -5 -3 -8 -10 -8 -6 0 -9 -2 -6 -5 3 -3 -8
-20 -23 -36 -16 -17 -26 -36 -22 -43 3 -6 3 -8 -2 -4 -7 7 -83 -91 -88 -114
-1 -6 -19 -28 -40 -50 -20 -22 -34 -45 -31 -50 4 -7 2 -8 -4 -4 -7 4 -12 3
-12 -1 0 -5 -15 -26 -34 -48 -19 -22 -33 -41 -32 -43 2 -1 -12 -18 -31 -38
-18 -20 -30 -41 -26 -47 3 -7 3 -9 -2 -5 -11 10 -57 -41 -49 -54 4 -6 2 -8 -3
-5 -6 4 -18 -2 -28 -13 -10 -11 -15 -20 -11 -20 4 0 -7 -12 -24 -26 -17 -15
-29 -29 -26 -31 2 -3 -11 -18 -30 -35 -19 -17 -31 -35 -27 -42 3 -6 3 -8 -2
-4 -11 11 -96 -81 -88 -96 3 -6 2 -7 -2 -3 -11 9 -255 -232 -255 -251 0 -7 -4
-11 -9 -8 -12 8 -33 -19 -23 -29 4 -5 2 -5 -4 -2 -12 7 -67 -41 -92 -79 -7
-10 -9 -12 -5 -4 4 8 -18 -7 -50 -34 -31 -27 -53 -54 -50 -59 4 -6 1 -7 -6 -3
-8 5 -14 0 -18 -13 -3 -11 -10 -18 -15 -15 -12 7 -48 -24 -48 -42 0 -7 -5 -16
-12 -20 -7 -5 -8 -3 -3 7 7 11 5 11 -11 -1 -35 -27 -43 -38 -36 -45 4 -5 2 -5
-5 -2 -6 4 -21 -5 -33 -20 -12 -16 -25 -28 -28 -27 -13 2 -82 -60 -82 -73 0
-8 -4 -12 -8 -9 -5 3 -29 -13 -53 -34 -24 -22 -48 -40 -52 -40 -5 0 -5 -5 -2
-10 4 -6 3 -9 -2 -8 -12 4 -83 -55 -83 -69 0 -6 -5 -15 -12 -19 -7 -5 -8 -3
-2 7 4 8 -6 3 -23 -11 -17 -14 -28 -29 -25 -34 3 -5 0 -6 -6 -2 -6 3 -22 -8
-37 -26 -15 -18 -23 -26 -19 -18 10 19 -121 -96 -147 -128 -10 -14 -19 -21
-19 -16 -1 5 -10 -2 -20 -15 -11 -13 -20 -20 -20 -15 0 4 -12 -3 -27 -17 -41
-36 -68 -56 -60 -42 9 15 -51 85 -66 76 -6 -3 -7 -1 -3 5 8 13 -28 35 -39 24
-5 -4 -5 -2 -2 4 4 6 -2 19 -13 29 -11 10 -20 15 -20 10 0 -4 -9 3 -21 16 -11
13 -18 17 -14 9 4 -8 -1 -6 -10 5 -9 11 -21 19 -26 17 -6 -1 -8 2 -4 7 7 12
-29 33 -40 23 -5 -4 -5 -2 -2 4 4 7 -4 19 -18 28 -14 9 -25 13 -25 9 0 -5 -5
0 -11 10 -6 9 -15 15 -20 11 -5 -3 -8 0 -7 8 2 7 -7 14 -20 16 -12 2 -20 7
-17 12 3 4 -6 15 -20 24 -14 9 -25 15 -25 12 0 -2 -20 16 -46 40 -25 24 -48
43 -52 42 -4 -1 -22 12 -41 30 -18 18 -38 29 -45 25 -6 -3 -8 -3 -4 2 4 4 1
13 -5 20 -26 26 -127 105 -127 99 0 -3 -12 8 -26 25 -14 17 -31 28 -36 24 -6
-3 -8 -1 -5 5 9 14 -51 64 -66 55 -7 -3 -9 -3 -5 2 11 11 -12 36 -25 28 -5 -3
-7 -1 -4 4 4 6 -3 19 -15 29 -13 12 -18 13 -13 4 5 -8 -19 15 -54 52 -35 38
-67 66 -71 63 -5 -3 -12 0 -16 6 -5 8 -3 9 7 4 12 -7 12 -6 1 6 -7 8 -18 14
-25 14 -7 1 -11 6 -10 11 2 11 -74 91 -82 87 -3 -2 -4 -1 -2 0 5 8 -118 132
-127 129 -6 -2 -8 0 -3 4 9 10 -32 54 -50 54 -8 0 -11 5 -8 11 9 13 -35 60
-48 52 -6 -3 -7 -1 -4 4 4 6 -13 32 -37 57 -23 25 -41 46 -39 46 3 0 -10 18
-27 40 -17 22 -36 37 -41 34 -5 -3 -9 -2 -8 3 4 15 -13 43 -22 37 -5 -3 -8 -1
-7 4 4 14 -75 122 -84 116 -5 -3 -7 -2 -6 3 5 15 -44 83 -54 77 -6 -4 -8 -2
-5 3 4 6 -4 22 -18 37 -13 15 -25 30 -26 34 0 4 -5 6 -10 5 -4 -2 -6 4 -3 12
4 10 0 15 -11 15 -10 0 -13 5 -9 12 4 6 -5 22 -22 36 -16 13 -23 21 -15 17 9
-5 8 1 -4 19 -9 14 -22 23 -28 19 -5 -3 -7 -1 -4 4 7 10 -95 173 -127 206 -9
9 -17 20 -18 24 -2 20 -11 32 -19 27 -5 -3 -8 -2 -7 3 4 16 -14 53 -23 47 -5
-3 -8 -2 -7 3 4 13 -33 83 -44 83 -5 0 -6 4 -3 10 3 5 -3 15 -14 21 -10 7 -17
17 -15 23 2 6 -7 23 -21 38 -14 15 -25 29 -24 30 6 9 -14 47 -22 42 -5 -3 -8
-2 -7 3 4 16 -14 53 -23 47 -5 -3 -8 -2 -7 3 4 14 -13 53 -23 53 -5 0 -8 3 -7
8 4 16 -14 52 -24 46 -6 -4 -8 -2 -4 4 3 6 2 13 -4 17 -6 4 -8 11 -5 16 4 5 0
12 -8 15 -7 2 -14 11 -14 18 0 19 -113 239 -129 252 -15 12 -20 29 -5 20 4 -3
1 10 -8 28 -9 19 -20 31 -25 28 -5 -3 -6 0 -3 5 9 14 -17 76 -27 66 -4 -4 -4
0 -1 9 4 9 2 19 -4 23 -6 3 -11 15 -11 26 0 13 -4 18 -12 13 -7 -4 -8 -3 -4 5
4 6 0 24 -10 39 -10 15 -17 31 -16 35 1 4 -3 18 -10 30 -7 12 -13 24 -13 27 0
3 -7 27 -14 53 -10 35 -17 45 -23 35 -6 -9 -8 -7 -3 8 3 13 -2 31 -15 47 -11
14 -20 29 -20 34 0 4 5 1 11 -7 9 -12 9 -11 4 5 -4 11 -10 29 -13 40 -3 11
-11 24 -19 28 -7 4 -13 13 -13 20 0 7 4 6 10 -3 14 -21 12 -3 -1 23 -11 19
-13 31 -18 77 -1 11 -3 12 -9 3 -5 -7 -8 5 -9 29 -1 23 -8 45 -15 49 -7 5 -14
25 -16 46 -4 59 -5 63 -14 63 -5 0 -6 10 -3 21 4 13 3 19 -2 16 -6 -4 -10 6
-11 21 -1 58 -5 82 -12 82 -5 0 -6 9 -3 20 3 11 1 20 -3 20 -5 0 -10 14 -11
30 0 17 -2 46 -3 65 -1 19 -5 35 -8 35 -4 0 -8 27 -9 60 -1 33 -5 65 -9 72 -5
7 -7 27 -5 45 1 17 -3 41 -9 52 -7 14 -7 21 0 21 6 0 10 25 10 61 0 37 -4 58
-10 54 -6 -4 -10 10 -10 35 0 25 4 39 10 35 6 -4 10 15 10 49 0 35 -4 56 -11
56 -8 0 -8 4 -1 13 6 7 12 45 14 85 2 39 7 72 12 72 5 0 6 13 3 29 -4 19 -2
31 6 35 9 3 8 7 -3 15 -8 6 -10 11 -4 11 12 0 37 97 28 111 -3 5 -1 9 4 9 5 0
9 6 10 13 1 6 3 23 4 37 2 14 9 31 15 38 12 12 17 41 16 79 -1 7 3 11 7 8 9
-6 31 66 23 78 -3 6 -1 7 4 4 13 -8 36 50 26 66 -3 5 -1 7 4 4 6 -4 16 6 22
23 5 17 7 30 4 30 -4 0 1 6 11 13 9 7 18 22 19 34 0 12 4 20 8 17 7 -4 15 12
21 41 1 6 10 19 20 30 10 10 16 25 13 33 -2 7 -1 10 5 7 5 -3 14 4 20 15 6 11
8 20 4 20 -4 0 2 8 13 18 29 25 83 108 76 116 -4 3 -1 6 6 6 16 0 71 61 71 79
0 8 3 12 6 9 6 -7 73 63 70 73 -2 10 35 49 44 46 11 -3 99 81 92 88 -4 4 -2 5
3 3 14 -4 85 54 85 70 0 7 4 11 9 7 5 -3 17 5 26 17 8 13 18 21 21 19 9 -6
184 127 184 140 0 5 5 7 10 4 6 -3 10 -1 10 5 0 6 5 8 10 5 6 -4 23 7 40 23
16 16 31 27 34 24 3 -2 21 7 40 22 19 14 40 26 46 26 6 0 8 5 5 10 -4 6 -3 9
2 8 16 -4 53 14 47 23 -3 5 -2 8 3 7 18 -5 53 14 47 25 -4 7 -4 9 1 5 9 -9 85
29 85 42 0 5 7 6 17 3 12 -5 14 -3 8 7 -5 8 -4 11 3 6 15 -9 63 15 55 28 -3 6
-3 8 1 4 12 -11 67 13 59 25 -3 7 -3 9 1 5 12 -10 67 13 59 25 -3 5 -1 7 4 4
6 -4 22 2 35 13 14 11 27 17 30 15 3 -3 19 0 37 6 25 9 30 14 19 21 -9 7 -6 7
9 3 12 -3 24 -1 28 5 3 5 15 10 26 10 11 0 18 3 16 8 -3 4 6 8 20 9 14 0 29 6
33 13 4 6 10 11 14 10 4 -1 17 1 29 5 12 4 27 8 32 10 6 2 24 9 40 16 17 7 33
12 38 11 4 -1 7 3 7 9 0 5 4 8 9 5 13 -8 71 14 71 27 0 7 5 5 10 -3 6 -9 10
-11 10 -3 0 7 7 10 15 7 8 -4 15 -2 15 2 0 5 12 10 26 11 15 0 30 7 35 15 7
10 9 10 9 -2 0 -9 3 -11 8 -5 4 6 21 11 37 13 17 2 42 9 58 17 15 7 25 9 22 4
-4 -5 -1 -9 4 -9 6 0 11 3 11 8 0 4 19 8 42 8 23 1 44 6 46 12 1 5 11 8 21 5
10 -3 22 0 25 6 4 6 12 11 17 11 6 0 7 -4 4 -10 -3 -5 1 -10 10 -10 9 0 13 5
10 11 -5 7 4 8 28 4 20 -4 41 -3 49 1 7 4 29 7 49 5 20 -1 39 1 42 6 6 10 324
8 350 -2z m2354 -5904 c-1 -3 10 -20 26 -36 15 -16 27 -33 27 -38 0 -4 5 -5
10 -2 6 4 10 3 9 -2 -4 -15 13 -43 22 -37 5 3 8 2 7 -3 -5 -16 45 -112 55
-106 6 3 7 1 3 -5 -3 -6 -2 -13 4 -17 6 -4 8 -10 5 -15 -3 -5 3 -13 12 -19 10
-6 15 -11 11 -11 -4 0 -2 -13 3 -30 6 -16 15 -27 20 -24 5 3 6 -2 3 -10 -4 -9
0 -18 9 -22 9 -3 18 -12 21 -20 3 -8 2 -13 -3 -9 -5 3 -4 -8 2 -25 6 -16 17
-30 24 -30 7 0 13 -5 13 -11 0 -5 -4 -8 -9 -4 -5 3 -2 -13 6 -35 9 -22 19 -38
22 -35 4 2 8 -5 8 -17 1 -11 10 -32 20 -46 9 -15 18 -29 18 -32 0 -3 16 -34
34 -70 19 -36 46 -89 61 -117 15 -29 31 -50 35 -45 5 4 5 2 2 -4 -9 -15 17
-66 28 -56 5 4 6 3 3 -3 -3 -5 2 -26 13 -45 10 -19 21 -43 25 -52 3 -10 11
-18 16 -18 5 0 6 -5 3 -10 -3 -6 0 -13 9 -16 9 -3 12 -12 9 -21 -4 -11 -2 -14
5 -9 8 5 10 2 6 -8 -4 -9 0 -18 9 -22 9 -3 13 -12 10 -21 -5 -12 -3 -14 7 -8
8 5 11 4 6 -3 -9 -15 15 -63 28 -55 6 3 8 3 4 -1 -11 -12 13 -67 25 -59 7 3 9
3 5 -1 -9 -11 12 -67 23 -60 5 3 9 2 8 -3 -1 -4 0 -11 1 -15 1 -5 3 -14 4 -20
1 -7 8 -12 15 -10 8 2 11 -3 8 -12 -3 -8 -3 -17 1 -21 4 -4 7 -10 7 -13 1 -15
98 -198 111 -208 7 -6 11 -14 8 -17 -6 -5 24 -57 39 -68 5 -3 9 -10 9 -15 3
-26 11 -43 20 -38 5 3 8 0 7 -7 -4 -24 44 -113 55 -102 4 4 4 0 0 -10 -3 -9
-10 -14 -15 -11 -5 3 -16 -2 -25 -10 -21 -21 -102 -22 -110 -1 -4 8 -12 15
-19 15 -6 0 -20 9 -30 20 -9 10 -20 18 -24 17 -3 -1 -28 22 -56 51 -27 28 -54
52 -58 52 -5 0 -15 7 -24 15 -8 9 -20 14 -27 12 -6 -2 -17 2 -24 9 -7 7 -20
10 -29 7 -10 -4 -14 -2 -10 4 4 7 -21 10 -73 10 -44 0 -80 -4 -80 -9 0 -5 -4
-7 -9 -4 -11 7 -74 -14 -82 -26 -3 -6 -10 -9 -15 -9 -19 2 -44 -11 -44 -21 0
-6 -3 -9 -6 -5 -9 9 -89 -40 -86 -53 1 -6 -2 -9 -8 -5 -11 7 -52 -18 -45 -28
3 -4 2 -5 -1 -2 -11 7 -45 -15 -39 -26 4 -5 3 -8 -2 -7 -13 3 -73 -31 -73 -43
0 -6 -4 -7 -10 -4 -5 3 -15 -3 -21 -14 -7 -10 -18 -17 -24 -15 -7 3 -18 -2
-25 -11 -7 -8 -19 -15 -27 -15 -8 0 -11 -5 -7 -12 4 -7 3 -8 -5 -4 -6 4 -18 2
-26 -4 -8 -7 -15 -9 -15 -4 0 5 -5 1 -11 -9 -7 -12 -17 -16 -30 -12 -10 4 -24
3 -31 -1 -17 -11 -58 -11 -65 -1 -2 4 -14 5 -25 1 -15 -4 -18 -3 -13 6 5 8 3
11 -6 8 -8 -3 -22 6 -32 19 -10 13 -22 21 -26 18 -5 -2 -20 18 -35 45 -15 28
-24 50 -19 50 4 0 1 5 -7 10 -22 14 -25 255 -4 288 11 17 12 27 3 43 -8 15 -8
24 0 32 14 14 15 204 1 212 -8 5 -8 11 0 20 7 9 6 16 -6 25 -9 9 -13 22 -10
36 4 13 1 26 -4 29 -6 4 -8 10 -5 15 2 4 -4 19 -15 33 -11 14 -20 28 -20 32 0
17 -63 84 -72 79 -6 -4 -8 -2 -4 4 3 5 -12 25 -34 42 -22 17 -40 28 -40 23 0
-4 -5 0 -11 10 -6 9 -14 15 -20 12 -5 -4 -9 1 -9 9 0 16 -38 42 -55 37 -5 -1
-7 1 -3 5 9 8 -32 40 -45 36 -5 -1 -6 1 -3 6 6 9 -29 43 -38 36 -3 -2 -4 -1
-1 3 3 3 -6 21 -20 39 -14 18 -25 37 -25 43 0 6 -5 11 -11 11 -5 0 -8 4 -5 9
3 5 -4 20 -15 35 -11 14 -18 30 -14 36 3 5 0 22 -8 37 -8 15 -12 34 -9 42 3 9
0 11 -7 7 -8 -6 -10 0 -5 18 4 17 2 26 -6 26 -6 0 -8 5 -5 11 4 6 -1 43 -10
83 -16 70 -16 77 0 142 10 38 19 78 19 89 1 11 11 35 24 53 16 22 19 32 10 33
-7 0 -4 4 7 8 11 5 20 14 20 22 0 8 6 14 13 14 15 0 44 34 38 44 -5 7 81 9
420 10 188 1 244 4 253 14 7 10 39 14 105 14 53 0 94 -2 93 -6z m-4348 -78
c64 -2 187 -4 274 -4 86 -1 155 -4 152 -9 -3 -5 10 -21 30 -37 19 -15 35 -32
35 -38 0 -11 192 -205 204 -205 4 0 32 -26 62 -57 31 -32 52 -51 49 -43 -4 8
12 -6 35 -33 24 -27 47 -44 53 -40 7 3 9 3 5 -2 -4 -4 14 -26 40 -50 69 -62
112 -98 112 -91 0 3 15 -10 33 -28 55 -55 123 -106 132 -98 5 4 5 1 1 -5 -4
-7 -3 -13 2 -13 4 0 17 -8 28 -18 44 -41 91 -71 99 -64 5 4 5 2 2 -4 -7 -12
20 -29 38 -25 6 2 7 -1 3 -5 -8 -8 103 -95 113 -88 4 2 10 -3 13 -12 3 -8 10
-12 16 -9 5 3 10 -1 10 -9 0 -18 54 -58 65 -48 5 4 5 2 2 -4 -6 -11 19 -29 36
-26 4 1 6 -3 5 -10 -2 -6 13 -22 32 -35 19 -13 33 -27 30 -31 -2 -4 10 -16 27
-27 18 -11 33 -24 33 -30 1 -10 19 -25 71 -59 25 -15 28 -16 43 -1 9 9 16 12
16 6 0 -6 19 3 43 20 23 17 41 35 39 40 -1 5 1 8 5 7 15 -3 43 14 37 23 -3 5
-2 9 3 8 15 -4 43 13 37 22 -3 5 -1 8 4 7 13 -4 131 94 131 110 1 7 5 11 10 7
5 -3 24 12 41 32 18 21 29 31 25 23 -4 -8 6 -1 22 15 15 17 33 32 38 33 22 8
104 89 97 96 -4 4 -2 6 3 4 15 -4 56 27 47 37 -4 5 -2 5 5 2 6 -4 20 4 32 18
11 15 23 25 28 24 4 -1 13 8 19 20 6 12 14 21 16 19 10 -6 57 36 51 45 -3 6
-1 7 5 3 6 -4 18 5 28 19 9 13 19 23 23 21 10 -7 101 80 93 89 -4 5 -2 5 4 2
11 -6 31 9 60 48 9 11 13 13 9 5 -4 -8 13 5 36 30 23 25 39 38 35 30 -4 -8 8
2 28 22 20 21 36 35 36 32 0 -3 20 14 45 37 24 23 42 46 38 52 -3 6 -1 7 4 4
6 -4 22 4 34 18 28 28 39 31 39 10 0 -8 -4 -15 -10 -15 -14 0 -12 -104 2 -118
10 -10 18 -81 19 -174 0 -9 7 -19 15 -22 10 -4 13 -13 8 -30 -3 -14 0 -29 9
-37 8 -7 12 -22 9 -33 -3 -10 -1 -17 4 -14 5 4 10 -5 11 -19 0 -14 6 -29 13
-33 6 -4 11 -11 11 -16 -1 -18 11 -44 20 -44 6 0 8 -4 4 -9 -3 -5 5 -17 17
-26 13 -8 22 -18 21 -20 -7 -14 1 -27 50 -77 65 -67 121 -110 132 -100 5 4 5
2 2 -4 -7 -11 19 -29 36 -25 5 1 6 -3 2 -8 -6 -11 28 -33 39 -26 3 3 4 2 1 -2
-8 -10 16 -33 29 -26 6 3 8 3 4 -2 -11 -11 12 -36 26 -28 6 3 8 3 4 -2 -4 -4
1 -20 12 -35 11 -15 23 -47 27 -71 5 -35 8 -39 12 -21 3 13 6 -45 6 -129 0
-113 -3 -153 -12 -156 -7 -3 -13 -13 -13 -23 0 -10 6 -20 13 -23 10 -4 10 -7
0 -18 -15 -15 -18 -166 -3 -189 6 -9 5 -17 -3 -22 -9 -6 -7 -11 6 -19 9 -5 17
-18 16 -27 0 -14 -2 -13 -9 3 -13 29 -12 8 2 -36 6 -22 15 -39 20 -39 5 0 7
-4 4 -8 -7 -12 31 -72 46 -72 6 0 8 -3 5 -7 -10 -10 44 -64 56 -56 6 3 7 1 4
-4 -6 -9 20 -27 31 -23 2 0 12 -9 23 -22 11 -13 17 -17 13 -9 -4 8 9 2 29 -13
20 -15 41 -25 47 -21 5 3 10 2 10 -2 0 -12 33 -16 108 -16 91 1 110 4 116 19
3 8 11 14 18 14 9 0 8 -3 -2 -10 -21 -14 -6 -12 27 2 15 7 32 18 36 25 5 8 12
11 17 8 13 -8 60 17 53 28 -3 6 -1 7 5 3 6 -3 21 4 33 16 12 13 19 17 14 10
-4 -8 11 -2 34 13 22 15 41 32 41 38 0 6 3 8 6 4 8 -7 154 91 154 104 0 6 5 7
10 4 6 -3 10 -1 10 4 0 6 3 11 8 10 18 -3 51 14 45 24 -4 6 -1 7 6 2 8 -4 25
2 43 15 17 13 28 18 24 11 -4 -6 -1 -11 9 -11 9 0 14 3 11 8 -2 4 13 7 34 7
21 0 36 -3 34 -7 -3 -5 1 -8 9 -8 7 0 42 -26 77 -57 35 -32 60 -51 55 -43 -5
8 7 -2 27 -22 38 -40 102 -73 120 -62 7 5 8 2 3 -6 -6 -10 -2 -11 18 -6 16 4
27 1 30 -7 4 -8 8 -8 14 -2 10 12 73 15 73 4 0 -5 7 -9 15 -9 8 0 15 5 15 10
0 6 11 8 26 4 15 -4 25 -3 21 2 -3 5 6 10 19 11 46 4 54 6 54 15 0 5 9 4 20
-2 11 -6 18 -15 15 -20 -7 -11 65 -140 78 -140 4 0 6 -4 3 -9 -3 -5 1 -14 9
-21 8 -7 15 -18 15 -26 0 -7 9 -19 20 -27 11 -8 17 -16 14 -19 -3 -4 7 -26 23
-50 15 -23 33 -53 40 -65 l12 -23 -322 0 c-177 -1 -367 -6 -422 -12 -91 -10
-995 -21 -1388 -17 -89 1 -192 -4 -237 -12 -64 -10 -92 -10 -148 1 -56 10 -77
10 -123 -1 -41 -10 -166 -14 -519 -16 -672 -2 -1154 -3 -1165 -2 -6 1 -14 0
-20 -1 -5 -1 -7 2 -3 5 9 10 -102 126 -113 119 -5 -3 -9 1 -9 9 0 20 -35 58
-45 49 -5 -4 -5 -2 -2 4 3 6 -9 27 -27 47 -18 20 -31 39 -28 41 3 3 -3 8 -12
12 -9 3 -16 12 -16 19 0 8 -9 17 -20 20 -11 4 -18 10 -15 15 3 4 -7 18 -22 30
-16 12 -21 18 -13 14 8 -4 -6 17 -31 47 -25 30 -58 60 -73 67 -14 7 -26 19
-26 27 0 19 -109 107 -122 98 -6 -3 -8 -2 -5 4 8 12 -74 65 -91 58 -7 -2 -10
-1 -7 4 5 9 -23 22 -55 26 -8 1 -28 7 -45 15 -16 7 -50 13 -74 12 -31 0 -40 2
-30 9 11 7 9 9 -8 9 -13 0 -23 -4 -23 -9 0 -6 -15 -4 -33 4 -20 8 -39 10 -47
5 -8 -5 -22 -4 -33 1 -10 6 -30 9 -45 8 -15 -2 -33 0 -40 5 -7 4 -21 4 -32 1
-11 -4 -20 -2 -20 4 0 6 -5 11 -11 11 -5 0 -7 -5 -4 -10 3 -6 -10 -1 -29 11
-19 11 -41 17 -47 13 -7 -4 -9 -3 -5 4 3 6 -2 13 -12 16 -22 7 -72 61 -72 77
0 5 -4 7 -10 4 -5 -3 -7 0 -4 8 3 8 -1 21 -9 28 -7 8 -12 20 -9 28 3 8 0 11
-7 7 -7 -5 -9 -1 -5 9 4 8 -1 26 -10 40 -12 19 -13 25 -4 26 10 0 10 2 1 6 -8
3 -11 14 -7 29 3 13 2 24 -4 24 -5 0 -7 11 -5 24 3 13 0 27 -6 30 -5 4 -8 13
-4 21 3 9 0 22 -7 30 -9 10 -9 15 -1 15 6 0 11 7 11 16 0 8 -5 12 -11 8 -8 -4
-9 3 -4 25 4 18 3 31 -3 31 -6 0 -8 9 -5 19 3 11 -2 34 -10 51 -9 17 -11 28
-6 25 5 -4 9 -1 9 4 0 6 -5 11 -11 11 -5 0 -7 5 -4 10 4 6 -3 27 -14 46 -12
19 -17 32 -11 29 6 -3 7 1 4 9 -3 9 -11 16 -17 16 -6 0 -7 3 -4 7 4 3 -1 15
-10 26 -10 11 -12 17 -5 13 11 -7 11 -4 0 13 -7 12 -16 21 -21 21 -4 0 -6 4
-3 8 8 13 -84 113 -96 106 -6 -4 -8 -3 -5 3 6 9 -38 48 -55 48 -5 0 -12 5 -16
10 -4 6 -16 17 -26 25 -18 13 -19 13 -11 0 6 -11 3 -10 -12 3 -11 9 -23 14
-26 10 -4 -3 -7 -2 -7 4 0 6 -7 14 -16 17 -9 4 -13 2 -8 -5 4 -7 -7 -1 -24 11
-17 12 -37 20 -46 17 -8 -3 -29 1 -46 9 -17 9 -37 13 -45 10 -8 -3 -15 -1 -15
5 0 6 -19 7 -50 3 -32 -4 -55 -2 -64 5 -9 8 -46 10 -109 7 -75 -3 -100 -1
-114 11 -10 8 -13 12 -8 10 6 -3 15 6 22 19 8 18 8 22 0 18 -7 -4 -2 3 11 15
12 12 19 27 16 33 -4 6 -3 8 4 4 8 -5 29 31 23 42 0 1 8 11 20 23 11 11 18 27
15 35 -3 8 -2 13 3 10 8 -6 54 79 54 100 0 7 3 11 7 9 10 -6 31 45 24 57 -4 7
-2 8 4 4 11 -6 14 0 11 21 0 3 6 10 15 15 9 5 16 14 16 20 0 5 11 19 25 30 14
11 23 23 21 27 -3 4 3 7 12 8 52 6 83 16 71 24 -8 5 0 7 21 7 46 -2 113 8 136
19 11 6 83 10 161 11 78 0 150 5 160 11 10 5 22 7 27 4 5 -3 61 -8 125 -10z
m-785 -785 c-3 -4 4 -8 15 -8 12 0 21 5 21 10 0 7 7 7 21 0 11 -7 23 -9 26 -6
4 3 12 1 18 -4 7 -6 27 -12 44 -13 17 -1 31 -5 31 -8 0 -3 6 -6 13 -6 6 0 40
-14 74 -30 79 -40 175 -139 178 -186 1 -10 8 -23 16 -28 8 -5 10 -9 5 -9 -5 0
-3 -7 4 -15 7 -8 10 -22 6 -31 -7 -17 12 -104 25 -119 12 -13 11 -28 -1 -20
-5 3 -10 -1 -10 -10 0 -9 5 -13 11 -9 8 4 9 0 4 -15 -7 -24 12 -129 27 -148 6
-7 7 -24 4 -38 -4 -14 -2 -25 3 -25 6 0 8 -7 5 -15 -4 -8 -1 -15 6 -15 6 0 9
-4 5 -9 -3 -5 -1 -12 5 -16 5 -3 10 -12 10 -18 0 -7 -4 -6 -10 3 -16 24 -11 2
6 -33 9 -18 22 -35 28 -39 6 -4 8 -8 3 -8 -13 0 22 -58 45 -74 12 -9 18 -16
13 -16 -5 0 6 -16 25 -35 18 -19 38 -31 43 -28 6 3 7 1 4 -4 -4 -6 20 -25 53
-42 33 -18 60 -30 60 -26 0 3 13 -1 29 -10 17 -8 37 -12 45 -9 9 3 16 1 16 -4
0 -6 8 -11 18 -10 35 0 128 -10 145 -17 10 -4 41 -4 68 -1 38 5 49 4 43 -5 -5
-9 -1 -10 15 -6 13 3 43 -1 69 -8 25 -8 49 -12 54 -9 4 3 8 1 8 -4 0 -5 8 -12
18 -16 20 -7 45 -22 93 -58 20 -15 39 -25 43 -21 3 3 6 2 6 -4 0 -5 26 -36 57
-69 31 -32 53 -52 48 -44 -5 9 -5 12 1 7 5 -5 9 -12 9 -15 0 -17 48 -71 57
-66 6 4 8 2 5 -3 -6 -9 20 -52 43 -73 3 -3 23 -27 44 -55 53 -67 72 -85 82
-77 4 4 4 2 0 -5 -3 -6 -2 -14 4 -18 5 -3 10 -11 10 -17 0 -8 -66 -9 -237 -2
-251 9 -585 14 -1098 17 -221 2 -329 6 -377 16 -53 11 -80 12 -137 3 -89 -15
-374 -15 -442 -1 -43 9 -71 8 -153 -6 -78 -14 -127 -16 -222 -11 -77 4 -125 3
-129 -4 -3 -5 -25 -7 -51 -3 -34 4 -48 2 -55 -8 -8 -12 -10 -12 -19 1 -8 13
-11 12 -23 -4 -11 -15 -21 -17 -50 -12 -22 4 -37 3 -37 -3 0 -5 -9 -7 -20 -4
-13 3 -20 0 -20 -8 0 -11 -2 -11 -10 1 -9 13 -12 13 -20 -1 -7 -13 -24 -17
-70 -16 -34 0 -64 5 -67 11 -3 6 -3 8 2 4 9 -8 76 72 69 83 -2 4 2 9 10 12 15
6 112 148 108 160 -1 4 3 7 10 7 6 0 9 3 6 6 -3 3 5 17 18 31 13 14 22 28 20
31 -3 2 2 11 10 19 8 8 11 20 7 26 -3 7 -3 9 2 5 10 -10 48 50 40 63 -4 5 -2
9 4 9 14 0 52 75 43 85 -4 5 -2 5 5 1 11 -6 30 29 25 47 -1 5 2 6 7 3 8 -5 28
32 22 42 0 1 8 11 20 23 11 11 18 27 15 35 -3 8 -2 13 2 10 11 -7 63 94 55
107 -3 6 -1 7 5 3 11 -6 16 6 13 27 0 4 3 7 9 7 12 0 41 55 33 64 -4 3 -2 6 4
6 5 0 18 17 29 38 10 20 25 45 33 55 8 9 11 20 8 24 -4 3 -1 11 7 17 19 16 77
126 71 136 -3 4 2 10 10 13 8 4 23 24 34 47 10 22 14 37 8 33 -7 -3 1 6 16 22
21 21 24 30 15 37 -10 6 -9 8 3 8 19 0 33 26 22 42 -3 6 -1 8 5 4 9 -5 22 15
22 37 0 4 9 16 21 28 12 12 18 27 14 37 -3 9 -3 13 1 9 11 -10 36 31 28 46 -4
6 -4 9 1 5 12 -11 63 84 57 105 -1 5 2 6 7 3 9 -6 27 31 23 47 -1 5 2 6 7 3 5
-3 11 3 14 13 3 13 13 19 31 18 14 -1 26 -5 26 -9 0 -12 32 -9 60 5 27 13 242
18 234 5z"/>
<path d="M5048 9424 c-4 -3 -32 -7 -63 -9 -31 -2 -63 -9 -72 -17 -12 -9 -15
-10 -9 0 4 7 1 12 -9 12 -9 0 -14 -4 -11 -8 3 -5 -9 -9 -27 -9 -61 -1 -120
-15 -105 -25 9 -7 8 -8 -6 -4 -23 8 -86 -11 -86 -26 0 -6 -9 -8 -21 -5 -22 6
-69 -11 -69 -25 0 -4 -5 -8 -11 -8 -5 0 -7 5 -4 10 4 6 -9 4 -27 -4 -18 -8
-49 -21 -68 -29 -101 -42 -119 -51 -113 -60 3 -6 1 -7 -5 -3 -14 9 -63 -14
-55 -27 3 -6 1 -7 -5 -3 -14 9 -63 -14 -55 -27 3 -6 1 -7 -5 -3 -6 3 -21 -4
-33 -16 -12 -13 -18 -16 -14 -8 8 13 7 13 -11 0 -10 -8 -25 -22 -32 -30 -12
-13 -13 -13 -7 0 4 8 -2 5 -13 -7 -11 -12 -22 -20 -25 -17 -9 9 -136 -79 -130
-89 3 -6 1 -7 -5 -3 -6 3 -28 -10 -49 -30 -21 -20 -38 -35 -38 -34 0 1 -8 -2
-17 -5 -10 -4 -15 -11 -12 -16 3 -5 2 -8 -3 -7 -15 4 -52 -22 -58 -42 -4 -11
-10 -18 -15 -15 -4 3 -39 -25 -77 -62 -37 -37 -72 -67 -78 -68 -5 0 -9 -7 -7
-15 2 -8 0 -12 -4 -8 -10 11 -35 -12 -27 -25 3 -5 1 -7 -4 -4 -6 4 -19 -3 -29
-15 -13 -14 -14 -19 -4 -13 8 4 -9 -14 -38 -40 -29 -26 -51 -49 -49 -51 2 -3
-16 -26 -41 -52 -24 -26 -54 -57 -65 -69 -12 -13 -17 -23 -12 -23 5 0 0 -7
-11 -15 -10 -8 -16 -15 -12 -15 4 0 -9 -16 -28 -37 -19 -20 -32 -38 -30 -40 2
-3 -4 -13 -15 -24 -11 -11 -17 -25 -13 -31 4 -7 3 -8 -4 -4 -12 7 -35 -27 -25
-38 3 -3 0 -6 -7 -6 -7 0 -10 -3 -7 -7 4 -3 -2 -13 -13 -20 -11 -8 -18 -18
-15 -23 3 -4 1 -10 -4 -12 -5 -1 -11 -10 -13 -18 -2 -8 -11 -23 -20 -34 -10
-10 -15 -23 -12 -28 3 -4 1 -8 -4 -8 -9 0 -25 -37 -23 -52 1 -5 -3 -8 -8 -8
-9 0 -27 -40 -22 -49 2 -2 -1 -7 -6 -10 -13 -10 -47 -75 -34 -67 6 4 11 2 11
-3 0 -6 -4 -11 -8 -11 -5 0 -17 -19 -27 -42 -9 -24 -22 -53 -27 -65 -6 -11 -7
-27 -3 -34 5 -7 4 -10 -2 -6 -10 6 -21 -27 -26 -75 -1 -10 -5 -18 -9 -18 -4 0
-6 -13 -4 -30 2 -16 -1 -31 -6 -32 -4 -2 -9 -19 -11 -38 -1 -19 -6 -38 -12
-42 -6 -5 -4 -12 5 -18 13 -8 13 -11 1 -19 -8 -5 -12 -18 -8 -30 3 -12 1 -24
-5 -27 -6 -4 -8 -25 -4 -53 4 -32 3 -41 -4 -31 -7 10 -10 -34 -10 -135 0 -100
4 -145 10 -135 6 10 7 -2 3 -37 -3 -33 -2 -53 4 -53 6 0 8 -12 5 -26 -3 -16 1
-30 9 -35 10 -6 10 -9 2 -9 -14 0 -19 -30 -5 -30 4 0 8 -18 8 -39 1 -22 9 -54
17 -70 9 -17 11 -31 6 -31 -5 0 -9 -5 -9 -11 0 -5 4 -8 9 -5 5 4 7 -3 4 -14
-3 -11 0 -20 6 -20 5 0 8 -7 5 -15 -4 -8 -1 -15 5 -15 6 0 8 -7 5 -15 -4 -9 0
-15 7 -15 11 0 11 -3 -1 -10 -11 -7 -11 -10 -2 -10 7 0 11 -4 7 -10 -3 -5 2
-26 12 -47 9 -21 17 -42 18 -48 5 -43 18 -74 28 -68 6 4 8 0 4 -10 -8 -20 16
-80 28 -70 4 5 5 0 2 -9 -6 -18 13 -68 26 -68 5 0 6 -4 3 -9 -3 -5 4 -21 16
-37 13 -15 17 -25 10 -20 -7 4 -5 -6 5 -27 10 -19 22 -32 27 -29 5 3 6 0 1 -7
-4 -7 3 -23 16 -38 13 -15 18 -23 11 -19 -14 8 45 -96 60 -105 5 -3 9 -9 9
-13 -3 -20 1 -26 17 -27 10 0 12 -3 4 -6 -8 -3 -3 -16 18 -43 16 -21 30 -43
30 -48 0 -6 9 -17 20 -25 11 -8 17 -17 14 -20 -4 -4 1 -9 10 -13 9 -3 14 -10
11 -14 -3 -5 7 -18 21 -29 15 -12 23 -21 18 -21 -5 -1 1 -9 13 -19 12 -10 20
-21 17 -24 -3 -3 4 -10 15 -17 12 -6 19 -16 15 -21 -3 -6 3 -13 15 -16 11 -3
19 -8 16 -12 -6 -11 41 -62 50 -53 5 4 5 2 2 -5 -4 -6 13 -29 40 -54 27 -23
39 -36 28 -29 -11 8 11 -19 50 -58 69 -71 83 -84 69 -59 -5 8 -2 7 9 -2 10 -8
16 -16 13 -18 -2 -2 19 -25 48 -51 28 -26 53 -49 56 -52 14 -16 100 -82 100
-77 0 2 19 -13 41 -34 23 -22 44 -37 46 -35 3 2 13 -4 24 -15 11 -11 25 -17
31 -13 6 4 8 3 5 -3 -6 -10 88 -80 114 -85 7 -2 23 -12 37 -23 13 -11 27 -20
30 -20 4 0 15 -6 25 -15 10 -8 19 -13 21 -10 2 3 13 -3 24 -13 12 -11 26 -16
34 -11 7 4 10 4 6 -1 -10 -11 41 -37 56 -28 6 3 8 3 4 -2 -10 -11 41 -37 55
-28 5 3 7 2 4 -4 -5 -8 51 -36 68 -33 3 0 18 -6 34 -14 16 -9 31 -12 35 -9 3
4 6 0 6 -8 0 -11 2 -11 10 1 5 8 10 10 10 3 0 -13 58 -35 71 -27 5 3 9 1 9 -4
0 -8 22 -12 93 -16 15 0 27 -4 27 -8 0 -5 38 -8 85 -8 51 0 85 4 85 10 0 6 13
-4 29 -22 l28 -32 132 -2 c72 -1 133 2 136 6 3 5 14 6 25 3 11 -3 27 0 35 7
10 9 15 9 15 1 0 -6 7 -11 15 -11 8 0 15 4 15 9 0 5 9 7 20 4 11 -3 20 -1 20
3 0 5 11 10 25 11 14 1 36 3 50 4 14 1 25 6 25 11 0 5 4 7 9 4 13 -8 71 14 71
27 0 7 5 5 10 -3 7 -11 10 -11 10 -2 0 7 4 11 9 7 11 -6 61 15 61 27 0 4 5 8
11 8 5 0 7 -5 4 -10 -7 -12 67 21 76 33 3 5 10 8 15 8 17 -1 49 12 77 31 15
11 27 17 27 15 0 -3 19 5 43 19 23 13 52 28 65 34 12 5 25 16 28 24 3 8 11 13
18 10 6 -2 22 5 34 16 12 11 24 20 27 20 15 -1 75 47 75 60 0 12 2 12 9 2 6
-11 13 -7 30 14 11 14 21 23 21 18 0 -5 7 0 16 11 8 11 18 19 22 18 10 -3 52
35 52 48 0 5 4 8 9 5 5 -4 19 6 31 21 12 16 18 21 14 13 -4 -8 21 11 57 42 35
31 63 62 61 68 -1 6 2 9 8 5 13 -8 182 164 173 177 -3 6 -2 8 4 5 5 -4 23 7
38 23 16 17 26 30 22 30 -4 0 10 16 31 36 20 20 30 33 22 29 -8 -3 -3 3 13 15
15 12 25 26 22 30 -3 5 4 12 16 15 11 4 18 13 15 20 -2 7 4 15 17 19 12 3 18
8 14 12 -4 4 2 14 13 21 11 8 18 18 15 23 -3 4 2 11 11 14 8 3 12 11 8 17 -4
7 -3 9 3 6 6 -4 18 4 27 18 9 14 13 25 9 25 -4 0 2 7 13 15 10 8 16 15 12 15
-5 0 1 9 12 20 12 12 18 26 14 32 -4 7 -3 8 4 4 13 -8 35 28 24 39 -4 5 -1 5
6 1 6 -4 12 -3 12 3 0 5 6 16 13 23 22 23 49 70 43 75 -3 3 5 14 17 24 12 10
18 18 14 19 -5 0 -1 7 7 16 9 8 13 20 10 26 -4 6 -2 8 4 4 9 -6 17 7 24 39 1
6 10 19 20 29 9 10 15 23 12 28 -3 4 -1 8 4 8 9 0 25 37 23 53 -1 4 3 7 8 7
10 0 27 39 23 53 -1 4 2 7 7 7 10 0 21 27 20 44 0 5 3 12 8 15 9 7 41 62 42
74 0 4 8 21 16 37 9 17 17 44 18 59 1 16 6 27 11 23 5 -3 7 2 3 11 -4 10 -1
17 5 17 6 0 9 3 5 6 -3 4 0 19 8 35 17 31 20 52 5 29 -6 -9 -10 -10 -10 -3 0
7 8 17 18 22 9 6 14 11 10 11 -4 0 -1 19 7 41 17 48 19 60 5 39 -8 -13 -10
-12 -10 3 0 10 6 20 14 23 8 3 14 19 14 37 0 18 1 34 2 37 1 3 2 43 3 89 1 57
6 86 15 89 16 5 16 49 0 54 -9 3 -13 35 -15 99 -3 118 -5 132 -20 142 -7 4
-13 16 -13 25 0 15 2 15 10 2 12 -19 13 -11 1 26 -5 16 -12 42 -16 58 -5 22
-9 26 -15 16 -5 -8 -8 0 -7 23 1 25 -5 41 -18 50 -10 8 -15 19 -11 26 4 6 2
18 -4 26 -7 8 -9 15 -6 15 8 0 -25 62 -37 71 -5 3 -8 8 -6 10 5 9 -13 49 -22
49 -6 0 -8 4 -5 8 3 5 -3 18 -14 29 -10 12 -16 24 -13 27 4 3 -1 14 -10 23 -8
10 -15 22 -15 26 1 15 -101 167 -112 167 -6 0 -9 4 -6 9 7 10 -71 121 -85 121
-5 0 -8 3 -7 8 4 15 -23 52 -34 46 -6 -4 -8 -3 -5 3 4 6 -6 25 -22 42 -16 17
-26 31 -23 31 4 0 -3 10 -15 23 -77 82 -98 105 -98 108 0 12 -43 57 -49 52 -3
-3 -6 0 -6 8 0 19 -64 82 -74 72 -4 -4 -5 -1 -2 7 4 10 -27 47 -84 104 -50 49
-90 83 -91 75 0 -8 -4 -4 -10 9 -5 14 -13 20 -20 16 -7 -4 -9 -3 -6 3 8 13
-17 36 -28 25 -5 -4 -5 -2 -2 4 4 7 0 17 -8 24 -8 7 -15 9 -15 5 0 -4 -9 4
-21 19 -11 14 -24 24 -29 21 -5 -3 -11 3 -14 12 -10 29 -331 261 -343 249 -3
-3 -14 5 -25 17 -11 12 -16 15 -12 7 4 -8 -3 -5 -17 8 -13 13 -28 23 -32 22
-4 0 -15 6 -24 15 -8 9 -22 14 -30 11 -8 -3 -12 -2 -9 3 7 11 -102 63 -116 55
-6 -4 -8 -3 -5 3 6 9 -30 25 -49 22 -4 0 -10 3 -13 8 -9 12 -83 45 -76 33 3
-5 -10 -1 -29 11 -19 11 -40 18 -45 15 -5 -4 -25 3 -45 15 -23 13 -43 18 -57
14 -15 -5 -19 -4 -14 5 4 7 2 10 -6 9 -8 -1 -32 3 -53 9 -22 6 -51 9 -65 6
-20 -4 -23 -3 -11 5 12 8 9 10 -15 9 -16 -1 -65 4 -108 10 -81 12 -249 16
-259 6z m227 -209 c22 -1 48 -6 58 -10 9 -4 25 -4 34 -1 9 4 20 1 25 -6 6 -10
10 -10 18 2 5 8 10 10 10 5 0 -13 87 -38 101 -30 5 4 9 1 9 -6 0 -7 3 -10 6
-6 4 3 22 0 41 -8 19 -8 39 -12 44 -9 5 3 9 0 9 -5 0 -6 3 -10 8 -8 7 2 77
-25 114 -44 10 -5 24 -6 31 -3 8 3 17 -2 21 -11 4 -10 12 -15 22 -11 8 3 13 2
10 -3 -7 -11 49 -32 60 -23 4 4 4 2 1 -4 -8 -13 40 -37 55 -28 7 5 8 2 3 -6
-6 -9 -4 -12 7 -8 8 4 20 -2 27 -14 7 -11 18 -17 25 -15 7 3 18 -4 25 -15 7
-11 15 -17 18 -14 3 3 12 -2 20 -10 8 -8 20 -11 26 -7 7 3 9 2 4 -2 -9 -11 73
-66 86 -58 6 3 7 2 4 -3 -6 -11 99 -90 115 -86 5 1 7 -2 4 -7 -6 -9 22 -26 37
-22 5 1 6 -3 3 -8 -7 -11 84 -87 99 -83 5 2 7 1 3 -3 -6 -7 72 -84 83 -81 11
2 49 -36 44 -44 -5 -8 43 -56 53 -52 4 1 7 -4 7 -10 1 -7 6 -12 13 -11 7 2 11
-1 9 -5 -1 -5 20 -33 47 -63 27 -30 46 -48 41 -40 -5 10 -4 12 4 7 6 -4 9 -11
6 -16 -3 -5 6 -17 20 -28 14 -11 25 -24 25 -28 0 -15 62 -79 72 -76 5 1 7 -2
4 -7 -3 -5 6 -22 22 -39 15 -16 32 -37 37 -45 50 -75 128 -177 136 -177 5 0 8
-3 7 -7 -5 -16 46 -92 56 -86 6 3 8 3 4 -2 -8 -9 31 -85 44 -85 4 0 7 -3 6 -7
-3 -13 24 -63 34 -63 4 0 8 -3 7 -7 -3 -19 14 -52 24 -46 5 3 7 2 4 -4 -4 -6
5 -33 18 -62 14 -28 25 -59 25 -68 0 -16 2 -16 11 -3 9 13 10 13 6 -1 -7 -23
18 -96 27 -78 3 8 4 3 2 -10 -3 -13 4 -42 14 -64 12 -25 17 -49 13 -68 -3 -16
-1 -29 4 -29 4 0 7 -25 6 -55 -2 -33 1 -55 7 -55 6 0 10 -27 10 -65 0 -37 -4
-65 -10 -65 -5 0 -10 -11 -10 -25 0 -14 5 -25 11 -25 8 0 8 -5 -1 -15 -7 -8
-13 -39 -14 -69 -1 -29 -8 -61 -15 -70 -7 -9 -14 -34 -15 -55 0 -22 -4 -35 -7
-29 -6 9 -17 -29 -22 -77 -1 -11 -12 -36 -23 -55 -19 -32 -36 -80 -33 -96 0
-4 -3 -10 -8 -13 -17 -12 -33 -52 -27 -64 4 -7 4 -9 -1 -5 -11 10 -37 -41 -28
-55 3 -5 1 -7 -4 -4 -9 6 -21 -17 -21 -40 0 -3 -4 -9 -9 -12 -17 -12 -44 -62
-38 -71 3 -6 2 -10 -3 -10 -12 0 -55 -70 -47 -78 2 -3 -4 -12 -15 -19 -11 -8
-18 -19 -15 -24 4 -5 1 -9 -5 -9 -6 0 -8 -4 -5 -10 3 -5 1 -10 -5 -10 -6 0 -8
-5 -4 -12 4 -6 3 -8 -4 -4 -11 6 -55 -57 -55 -80 0 -7 -4 -11 -8 -9 -4 3 -15
-7 -24 -21 -11 -17 -12 -23 -4 -18 8 4 -5 -12 -29 -36 -30 -31 -38 -46 -29
-52 9 -6 8 -8 -4 -8 -9 0 -37 -28 -63 -62 -25 -35 -67 -86 -92 -115 -25 -28
-45 -53 -43 -55 2 -1 -20 -25 -49 -52 -28 -27 -49 -53 -45 -59 3 -5 2 -7 -4
-4 -11 7 -51 -31 -52 -48 -1 -5 -7 -10 -13 -10 -7 -1 -12 -6 -11 -13 2 -7 -1
-11 -5 -9 -13 3 -91 -70 -84 -80 4 -4 3 -5 -2 -1 -12 10 -97 -62 -89 -75 3 -5
1 -7 -4 -4 -11 7 -103 -60 -103 -75 0 -5 -4 -7 -9 -3 -5 3 -25 -9 -45 -27 -19
-18 -41 -34 -48 -36 -7 -2 -15 -7 -18 -10 -3 -4 -17 -13 -32 -21 -16 -8 -28
-18 -28 -23 0 -5 -4 -7 -8 -4 -5 3 -19 -4 -30 -15 -12 -10 -23 -19 -24 -19
-21 -1 -46 -15 -41 -23 3 -5 1 -7 -4 -4 -6 4 -23 -3 -39 -15 -15 -13 -25 -18
-21 -12 3 6 -9 4 -27 -5 -19 -9 -31 -20 -28 -25 3 -5 0 -6 -7 -2 -6 4 -24 0
-39 -10 -15 -10 -31 -17 -36 -16 -4 2 -24 -6 -43 -18 -34 -20 -62 -28 -33 -10
9 6 10 10 3 10 -6 0 -19 -8 -29 -17 -10 -10 -20 -17 -23 -15 -3 2 -15 0 -26
-4 -11 -3 -33 -8 -50 -10 -37 -5 -78 -12 -85 -14 -3 -1 -16 -2 -30 -1 -23 1
-23 0 -5 -8 15 -7 7 -9 -30 -9 -27 1 -78 -1 -111 -3 -46 -3 -60 -1 -57 8 6 14
-52 73 -71 73 -6 0 -4 -5 4 -11 11 -8 9 -9 -10 -3 -14 4 -31 9 -39 12 -8 3
-12 1 -8 -4 3 -6 -9 -10 -29 -11 -19 -1 -41 -6 -48 -13 -8 -6 -17 -7 -19 -3
-3 5 -42 8 -86 8 -45 0 -81 4 -81 8 0 5 -11 6 -24 3 -13 -3 -36 1 -52 9 -15 7
-31 12 -36 9 -4 -3 -8 0 -8 6 0 7 -7 9 -16 6 -8 -3 -13 -2 -10 3 5 7 -37 22
-70 25 -6 1 -18 6 -25 12 -21 18 -163 88 -171 86 -5 -1 -8 2 -8 7 0 5 -10 13
-22 17 -13 3 -31 13 -40 22 -10 8 -18 11 -18 6 0 -5 -4 -4 -8 1 -14 21 -65 55
-73 49 -5 -3 -9 0 -9 6 0 6 -4 9 -9 6 -5 -3 -11 0 -14 8 -3 7 -20 24 -38 37
-18 13 -29 16 -24 8 4 -7 -5 0 -21 17 -16 17 -49 46 -74 65 -25 18 -84 68
-131 111 -47 43 -90 74 -94 70 -5 -4 -5 -2 -2 4 8 14 -17 37 -28 26 -5 -4 -5
-2 -2 4 8 14 -17 37 -27 26 -4 -4 -6 -2 -4 4 3 13 -117 144 -132 144 -5 0 -9
3 -8 8 5 13 -29 52 -38 44 -5 -4 -6 -3 -2 2 10 12 -31 68 -43 60 -5 -3 -9 -2
-8 3 4 16 -13 43 -24 36 -6 -3 -7 -1 -3 5 4 6 -2 20 -14 32 -11 11 -17 20 -14
20 8 0 -45 72 -60 82 -6 4 -7 8 -3 8 4 0 3 9 -3 20 -6 11 -16 17 -22 14 -6 -4
-9 -3 -6 2 9 14 -11 56 -22 49 -6 -4 -9 -3 -8 2 4 13 -34 93 -44 93 -5 0 -7 4
-4 8 3 5 -2 20 -12 33 -9 13 -17 29 -18 35 -1 6 -12 33 -24 60 -13 27 -24 54
-26 59 -15 50 -32 84 -39 78 -4 -5 -5 -3 -1 4 7 13 -13 63 -26 63 -4 0 -8 5
-8 11 0 5 4 7 10 4 5 -3 3 10 -5 29 -8 20 -15 46 -15 58 0 19 -2 20 -11 8 -9
-12 -10 -10 -5 9 3 14 -3 42 -15 65 -10 22 -17 48 -14 58 6 18 -12 95 -28 115
-5 7 -7 27 -3 45 3 18 1 60 -4 93 -13 75 -13 261 0 340 5 33 7 70 3 83 -3 12
3 39 12 59 10 20 18 54 18 76 0 27 3 35 9 25 7 -9 8 -6 6 13 -3 14 2 31 10 38
7 7 11 22 9 32 -3 11 -1 17 4 13 5 -3 9 2 9 11 0 9 7 30 16 47 9 16 11 27 5
24 -17 -11 -13 5 4 18 9 6 17 21 18 34 0 12 4 22 8 22 10 0 24 41 20 59 -1 8
2 10 10 5 9 -5 10 -2 6 9 -3 9 0 18 9 21 9 3 13 10 10 15 -4 5 -3 11 2 13 16
7 53 78 46 89 -4 8 -3 9 4 5 7 -4 12 -2 12 4 0 13 41 73 54 79 4 2 2 7 -5 12
-12 7 -11 9 1 9 16 1 117 137 112 152 -1 5 2 7 7 4 10 -6 26 22 22 39 -2 5 1
7 5 3 7 -7 84 69 84 84 0 4 27 32 60 64 33 31 57 62 53 68 -3 6 -3 8 2 4 4 -4
40 22 79 59 39 36 105 93 146 126 41 33 74 64 72 69 -1 5 2 7 6 4 5 -3 21 4
34 17 14 12 31 23 38 25 23 5 60 39 52 47 -4 5 -2 5 5 2 6 -4 18 -1 26 7 8 8
17 13 19 10 3 -2 11 2 18 11 7 8 19 15 27 15 8 0 11 5 8 10 -4 6 -3 9 2 8 17
-4 53 14 47 24 -4 6 -3 9 2 6 15 -9 56 11 48 23 -4 7 -3 9 4 5 14 -9 63 14 55
27 -3 6 -1 7 5 3 14 -8 65 11 58 23 -3 5 6 9 21 9 15 0 29 4 31 10 2 6 9 9 17
6 7 -3 16 -1 20 5 3 6 15 11 25 11 10 0 25 6 32 13 7 6 24 14 38 15 14 2 26 8
28 12 2 5 10 6 18 3 8 -3 14 -1 14 4 0 8 16 12 63 14 9 0 17 4 17 9 0 5 7 7
15 4 8 -4 15 -1 15 5 0 6 6 8 14 5 8 -3 17 0 21 5 3 6 11 9 16 5 5 -3 17 0 26
8 12 9 15 9 9 1 -4 -8 -1 -13 9 -13 9 0 13 5 10 11 -5 7 5 8 29 4 21 -4 36 -3
36 2 0 5 12 8 28 6 15 -3 37 -1 49 4 20 7 102 7 208 -2z"/>
<path d="M5860 7984 c-16 -10 -40 -13 -67 -10 -24 3 -43 2 -43 -3 0 -5 -13 -7
-30 -5 -16 2 -30 -1 -30 -7 0 -6 -4 -7 -10 -4 -5 3 -10 2 -10 -2 0 -5 -9 -10
-20 -11 -44 -4 -50 -6 -50 -15 0 -6 -3 -7 -6 -4 -4 3 -16 1 -28 -5 -11 -7 -23
-13 -26 -13 -16 -2 -110 -60 -110 -68 0 -6 -3 -7 -7 -4 -3 4 -22 -5 -42 -20
-51 -39 -61 -50 -53 -58 4 -5 2 -5 -4 -2 -14 8 -107 -86 -97 -99 5 -5 4 -6 -1
-2 -9 7 -56 -39 -56 -54 0 -5 -28 14 -62 42 -33 27 -65 47 -69 45 -4 -3 -9 -2
-11 3 -6 15 -61 52 -69 46 -5 -3 -9 -1 -9 5 0 15 -58 43 -72 35 -6 -4 -9 -3
-6 2 3 5 -10 17 -29 27 -19 9 -32 13 -28 7 10 -16 -7 -12 -19 5 -6 9 -21 17
-34 18 -12 0 -22 4 -22 7 0 10 -91 31 -102 24 -7 -4 -8 -2 -4 4 4 7 2 12 -3
12 -6 0 -11 -5 -11 -11 0 -9 -4 -9 -14 0 -20 17 -133 26 -150 12 -7 -6 -20 -9
-29 -5 -8 3 -18 0 -22 -6 -6 -9 -10 -9 -16 1 -7 11 -9 11 -9 1 0 -7 -4 -11 -9
-7 -12 7 -61 -15 -61 -27 0 -5 -4 -7 -9 -3 -11 6 -117 -95 -113 -108 1 -5 -2
-6 -7 -2 -13 7 -30 -25 -23 -44 3 -8 0 -11 -7 -7 -7 5 -9 1 -5 -8 3 -9 2 -16
-3 -16 -12 0 -36 -50 -28 -58 3 -3 5 1 5 8 0 7 3 10 6 7 4 -4 2 -13 -5 -20
-22 -28 -33 -125 -21 -200 6 -39 14 -76 19 -81 5 -6 9 -26 10 -43 2 -54 4 -63
14 -63 5 0 6 -7 3 -16 -4 -9 -2 -13 5 -8 7 4 9 0 5 -14 -4 -12 -1 -26 9 -36 9
-9 13 -16 9 -16 -3 0 -1 -6 5 -14 6 -7 9 -20 6 -28 -4 -9 1 -23 10 -32 9 -9
13 -16 9 -16 -3 0 -1 -7 6 -15 6 -8 9 -19 5 -25 -4 -6 -1 -17 5 -25 7 -8 9
-15 4 -15 -5 0 -1 -5 9 -11 11 -7 16 -17 12 -29 -3 -10 -1 -21 5 -25 6 -3 8
-11 5 -16 -4 -5 -1 -9 5 -9 6 0 8 -4 5 -10 -3 -5 -1 -10 6 -10 7 0 9 -3 6 -6
-3 -4 -1 -16 5 -28 7 -11 11 -24 10 -28 -4 -15 47 -118 59 -118 6 0 9 -7 6
-15 -7 -18 17 -68 27 -57 5 4 7 0 5 -8 -3 -18 4 -37 44 -117 17 -35 35 -63 39
-63 4 0 8 -3 7 -7 -3 -19 14 -52 24 -46 5 3 7 1 3 -5 -9 -14 14 -63 27 -55 6
3 7 1 3 -5 -3 -6 4 -21 16 -33 13 -12 16 -19 8 -15 -8 4 -7 1 3 -7 10 -9 18
-18 18 -21 -3 -21 0 -26 11 -20 7 4 8 3 4 -4 -7 -13 23 -72 36 -72 4 0 7 -6 6
-12 -2 -7 3 -12 10 -10 8 1 11 -2 8 -7 -4 -5 4 -20 16 -32 13 -12 16 -19 8
-15 -8 4 -5 -1 7 -12 12 -11 19 -22 16 -26 -4 -3 -1 -6 6 -6 7 0 10 -4 7 -9
-5 -7 22 -51 44 -71 3 -3 6 -11 8 -19 7 -31 106 -190 115 -184 6 3 7 1 3 -5
-4 -6 2 -20 14 -32 11 -11 17 -20 14 -20 -3 0 4 -12 15 -27 27 -37 77 -92 71
-78 -3 6 5 -1 18 -15 12 -14 27 -24 33 -22 6 1 8 -2 4 -7 -3 -6 8 -17 24 -26
34 -17 53 -20 31 -4 -12 9 -11 9 5 4 45 -16 74 -15 88 5 8 11 16 18 19 15 8
-9 89 85 83 95 -4 6 -3 9 2 8 5 -2 25 15 44 36 18 22 27 36 19 32 -8 -5 2 6
23 24 20 17 34 36 31 42 -4 6 -3 9 2 5 8 -5 109 96 114 115 1 3 24 29 51 58
27 29 46 57 42 64 -3 6 -3 8 1 4 11 -10 46 24 46 45 0 10 4 16 9 13 4 -3 17 4
27 16 11 12 13 18 5 13 -8 -4 5 11 28 35 22 23 39 46 36 50 -3 4 5 10 18 14
17 5 19 8 9 15 -10 6 -8 10 8 14 12 3 19 10 16 16 -4 5 1 14 11 20 19 10 106
125 104 136 -1 3 9 15 24 26 14 12 23 24 20 29 -3 5 -2 10 3 12 9 4 82 103 82
111 0 3 14 26 30 50 17 25 30 48 30 53 0 4 8 16 18 27 12 15 13 19 2 13 -13
-7 -13 -6 0 6 8 7 22 22 30 32 13 18 13 19 0 11 -8 -4 -5 2 8 15 13 12 21 29
18 37 -3 8 -2 12 3 9 8 -5 25 29 22 47 -1 4 3 7 7 7 4 0 16 14 26 31 13 21 14
29 5 23 -7 -4 -4 4 8 20 13 15 19 34 16 43 -4 10 -2 14 4 10 12 -7 36 47 26
57 -4 3 -1 6 5 6 7 0 11 3 10 8 -1 4 3 17 10 29 6 12 9 30 5 40 -3 10 -2 15 2
10 11 -10 35 61 28 81 -5 11 -3 13 7 7 8 -5 11 -3 8 6 -3 8 -1 23 5 34 31 60
18 449 -15 429 -5 -3 -8 0 -7 7 4 21 -11 59 -23 59 -6 0 -9 3 -5 6 3 4 -7 25
-22 48 -32 45 -81 95 -81 81 0 -5 -7 0 -15 11 -8 10 -15 15 -15 9 0 -5 -7 1
-16 13 -9 13 -22 21 -30 18 -8 -3 -14 -1 -14 4 0 8 -41 26 -49 21 -2 -2 -8 3
-12 11 -7 10 -9 10 -9 -2 0 -12 -2 -12 -9 -2 -5 9 -31 15 -71 16 -39 1 -65 6
-68 14 -5 16 -61 14 -92 -4z m92 -198 c19 -10 30 -11 34 -4 4 7 9 6 14 -1 3
-6 20 -13 37 -14 17 -1 29 -5 26 -9 -2 -5 1 -8 7 -8 7 0 24 -9 38 -19 15 -10
30 -19 35 -20 4 -1 7 -4 8 -8 0 -5 8 -17 18 -28 26 -29 54 -105 53 -143 -1
-19 3 -30 8 -27 6 4 10 -17 10 -52 0 -41 -3 -54 -10 -43 -8 12 -10 9 -10 -13
0 -20 4 -26 13 -21 9 6 9 4 1 -7 -16 -20 -34 -99 -27 -117 5 -11 3 -13 -7 -7
-8 5 -11 3 -8 -6 3 -8 -1 -27 -9 -42 -8 -15 -11 -32 -8 -37 3 -6 2 -10 -2 -10
-8 0 -37 -67 -35 -80 0 -3 -4 -10 -10 -17 -5 -7 -6 -18 -2 -24 4 -8 3 -9 -4
-5 -7 4 -13 2 -13 -3 -3 -26 -4 -30 -11 -36 -4 -4 -4 -14 -1 -23 4 -10 2 -13
-5 -8 -13 8 -33 -33 -24 -48 3 -5 1 -6 -5 -3 -12 7 -36 -40 -27 -54 3 -5 0 -8
-8 -7 -7 2 -12 -2 -11 -9 1 -6 -4 -17 -12 -23 -8 -7 -15 -18 -15 -25 0 -7 -7
-18 -15 -25 -8 -7 -12 -16 -9 -21 3 -5 1 -9 -4 -9 -5 0 -15 -12 -23 -27 -8
-16 -24 -43 -36 -62 -13 -18 -20 -37 -17 -42 3 -5 -2 -9 -10 -9 -15 0 -21 -12
-17 -33 1 -5 -2 -6 -7 -3 -7 4 -51 -51 -52 -66 0 -5 -8 -16 -17 -26 -38 -41
-53 -63 -48 -72 4 -6 0 -10 -7 -10 -15 0 -44 -40 -39 -55 1 -5 -1 -7 -5 -3
-10 10 -65 -62 -57 -75 3 -5 1 -7 -4 -4 -13 8 -65 -57 -55 -68 4 -5 2 -5 -4
-2 -12 7 -29 -20 -25 -38 2 -5 -1 -7 -4 -3 -8 7 -98 -85 -96 -96 1 -4 -12 -18
-29 -32 -17 -14 -27 -31 -23 -37 3 -7 3 -9 -2 -5 -8 8 -61 -52 -57 -65 1 -5
-1 -6 -6 -3 -4 2 -17 -7 -27 -20 -11 -14 -35 -39 -52 -56 -18 -17 -33 -37 -33
-44 0 -6 -7 -15 -16 -18 -8 -3 -12 -11 -8 -17 4 -8 3 -9 -4 -5 -11 6 -38 -31
-34 -47 1 -4 -7 -2 -18 5 -11 7 -20 18 -20 25 0 6 -4 13 -8 15 -4 2 -24 29
-43 60 -20 32 -39 54 -43 50 -4 -4 -6 -2 -5 3 5 19 -12 55 -23 49 -6 -4 -8 -2
-5 3 7 12 -1 30 -52 111 -18 28 -37 52 -42 52 -6 0 -7 5 -4 10 3 6 1 10 -5 10
-6 0 -9 4 -6 8 3 5 -6 20 -20 35 -14 15 -22 27 -19 27 3 0 1 9 -5 20 -6 11
-16 17 -22 14 -6 -4 -8 -3 -5 3 8 12 -40 103 -54 103 -5 0 -8 3 -7 8 4 13 -13
52 -21 48 -4 -3 -8 1 -8 9 0 20 -35 85 -46 85 -4 0 -5 5 -2 10 3 6 -1 13 -9
16 -9 3 -14 10 -11 14 7 11 -43 110 -55 110 -5 0 -7 7 -4 15 4 8 1 15 -5 15
-6 0 -10 3 -9 8 6 15 -45 121 -55 115 -6 -3 -7 -1 -4 4 9 14 -17 76 -27 66 -5
-5 -5 2 -2 14 4 12 2 24 -4 28 -5 3 -10 16 -10 28 0 18 -2 20 -11 7 -9 -13
-10 -12 -5 2 6 21 -12 78 -26 78 -5 0 -7 4 -4 8 8 13 -16 82 -26 76 -5 -3 -8
0 -7 7 6 28 -12 90 -23 83 -6 -4 -8 -3 -5 3 8 12 -13 94 -23 88 -4 -2 -7 8 -8
23 0 15 -2 38 -5 52 -2 14 -5 34 -6 45 -2 18 -3 18 -9 3 -4 -10 -7 29 -7 86 0
57 3 99 6 94 4 -6 10 3 13 19 9 41 63 103 89 103 18 0 19 2 7 11 -11 8 -7 9
18 4 20 -4 38 -2 47 5 10 8 19 9 35 0 12 -6 34 -8 51 -5 16 4 35 2 42 -3 19
-16 88 -42 82 -32 -9 15 5 12 22 -5 8 -8 19 -13 24 -10 5 4 9 2 9 -4 0 -10
106 -64 127 -64 7 0 10 -4 8 -8 -4 -6 15 -18 30 -19 3 0 14 -9 25 -20 12 -12
25 -18 30 -15 6 4 10 -1 10 -10 0 -8 8 -19 18 -22 9 -4 25 -17 35 -30 10 -13
23 -20 29 -17 6 4 8 2 5 -3 -8 -13 17 -36 27 -25 4 4 7 2 6 -3 -8 -37 4 -69
36 -103 20 -20 32 -30 28 -22 -7 13 -6 13 10 0 24 -19 48 -19 64 0 8 8 11 9 7
3 -10 -21 3 -15 36 18 24 24 30 36 25 55 -4 15 -3 23 2 20 5 -3 6 12 2 37 -7
36 -5 45 16 66 13 13 24 27 24 32 0 4 18 27 40 51 22 24 40 46 40 51 0 4 7 7
15 7 9 0 18 7 21 15 4 8 12 15 20 15 8 0 14 4 14 9 0 5 9 13 20 16 11 4 18 11
14 16 -3 5 -2 9 3 8 19 -3 52 14 46 24 -3 5 -1 7 4 4 12 -8 66 17 57 25 -2 3
7 6 21 6 14 0 33 6 43 14 9 8 34 15 56 15 21 1 43 6 48 11 6 6 16 8 22 6 7 -3
23 0 37 5 34 14 50 13 81 -3z"/>
</g>
</svg>
