<?xml version="1.0" standalone="no"?>
<!DOCTYPE svg PUBLIC "-//W3C//DTD SVG 20010904//EN"
 "http://www.w3.org/TR/2001/REC-SVG-20010904/DTD/svg10.dtd">
<svg version="1.0" xmlns="http://www.w3.org/2000/svg"
 width="1080.000000pt" height="1080.000000pt" viewBox="0 0 1080.000000 1080.000000"
 preserveAspectRatio="xMidYMid meet">
<metadata>
Created by potrace 1.16, written by Peter Selinger 2001-2019
</metadata>
<g transform="translate(0.000000,1080.000000) scale(0.100000,-0.100000)"
fill="#0F1E54" stroke="none">
<path d="M5376 10554 c-14 -13 -16 -58 -16 -333 0 -255 -3 -321 -14 -336 -13
-18 -30 -19 -217 -21 -170 -1 -213 -5 -259 -20 -46 -16 -55 -23 -58 -46 -2
-18 4 -31 20 -42 19 -14 59 -16 263 -16 174 0 244 -3 253 -12 9 -9 12 -190 12
-753 0 -815 1 -799 -62 -917 -53 -99 -278 -357 -563 -643 -492 -496 -1039
-925 -1670 -1310 -88 -53 -170 -104 -183 -112 -17 -10 -22 -22 -20 -41 3 -25
6 -27 48 -27 58 1 220 77 370 176 65 42 116 69 125 65 19 -7 20 52 -10 -789
l-25 -709 -67 -86 c-374 -483 -867 -991 -1334 -1374 -269 -221 -644 -487 -977
-692 -147 -91 -171 -118 -117 -132 52 -13 468 225 705 404 69 52 132 95 140
96 11 1 14 -8 13 -34 -3 -43 -11 -322 -23 -850 -11 -437 -28 -754 -62 -1140
-27 -321 -29 -399 -6 -414 15 -9 23 -5 48 19 l29 30 21 245 c51 631 70 1088
70 1735 l0 480 153 126 c497 411 1024 933 1253 1244 103 138 144 186 155 180
11 -8 11 -210 -1 -530 -6 -137 -15 -689 -20 -1225 -5 -536 -14 -1112 -20
-1280 -6 -168 -11 -486 -12 -708 -1 -430 -2 -421 48 -436 11 -3 29 0 40 8 18
14 19 31 21 378 2 353 14 1029 33 1958 5 250 14 948 20 1550 5 602 12 1306 16
1564 l6 468 65 47 c742 529 1369 1107 1735 1598 40 54 77 101 82 104 18 14 49
-6 63 -39 28 -68 82 -140 210 -283 446 -501 976 -971 1528 -1355 l100 -70 6
-669 c4 -369 10 -731 14 -805 3 -74 10 -686 15 -1360 5 -674 14 -1355 19
-1515 5 -159 13 -573 17 -918 l7 -629 23 -14 c27 -18 70 -9 85 17 10 19 -3
1075 -16 1264 -3 44 -10 485 -15 980 -5 495 -15 1119 -21 1387 -6 268 -8 492
-4 498 10 16 33 -7 158 -160 381 -466 824 -903 1295 -1274 61 -49 112 -94 113
-100 1 -6 0 -177 -1 -381 -2 -569 22 -1194 70 -1775 25 -307 26 -313 55 -340
20 -19 27 -21 40 -10 19 16 20 88 0 330 -40 511 -62 1057 -67 1725 -3 314 -1
360 12 363 8 1 51 -25 95 -59 243 -187 655 -426 718 -417 25 3 34 32 16 54 -6
8 -84 55 -173 106 -255 144 -529 336 -874 610 -291 233 -447 372 -698 622
-322 322 -505 539 -688 815 l-83 126 -6 500 c-4 275 -13 596 -21 714 -13 205
-13 241 3 241 4 0 68 -39 141 -86 237 -153 360 -201 415 -160 26 19 13 34 -84
93 -612 376 -944 615 -1391 1003 -336 290 -694 668 -928 977 l-62 82 0 815 c0
796 0 816 19 826 13 6 138 10 340 10 317 0 320 0 341 22 11 12 20 32 20 44 0
47 -12 49 -361 54 -236 4 -331 8 -340 17 -9 9 -13 102 -17 330 -4 343 -8 363
-57 363 -13 0 -31 -7 -39 -16z"/>
<path d="M5943 6101 c-155 -46 -350 -214 -482 -415 -28 -43 -51 -82 -51 -87 0
-5 -9 -13 -21 -19 -36 -20 -62 8 -83 90 -17 67 -24 78 -91 146 -90 92 -173
134 -276 142 -121 8 -203 -44 -262 -170 -140 -295 -25 -792 316 -1367 123
-207 218 -266 334 -210 32 16 74 57 153 150 315 372 585 798 714 1128 90 228
111 435 54 532 -52 88 -172 120 -305 80z m174 -137 l36 -27 -6 -101 c-10 -150
-46 -278 -121 -431 -173 -347 -403 -695 -661 -1000 -117 -138 -122 -138 -202
-12 -193 300 -314 571 -399 894 -59 223 -51 327 36 462 81 125 170 123 299 -6
90 -91 151 -219 151 -321 0 -48 39 -84 87 -80 35 3 42 10 116 113 273 383 465
557 595 540 19 -2 50 -16 69 -31z"/>
<path d="M2597 2960 c-32 -10 -92 -53 -124 -90 -57 -65 -108 -210 -138 -390
-21 -126 -30 -490 -16 -651 12 -146 16 -157 45 -164 11 -3 132 -2 268 2 303
10 281 -2 297 166 31 326 3 707 -70 941 -20 67 -79 145 -128 170 -36 19 -100
26 -134 16z m100 -127 c59 -65 84 -147 109 -363 18 -153 26 -591 11 -642 -9
-34 -13 -35 -206 -47 -102 -7 -160 -7 -172 0 -18 9 -19 26 -19 252 1 298 10
402 50 536 76 254 152 343 227 264z"/>
<path d="M8085 2961 c-61 -25 -122 -126 -156 -259 -41 -163 -53 -300 -54 -627
0 -338 4 -381 38 -394 12 -5 135 -11 272 -15 198 -5 254 -4 267 6 29 22 42
151 42 413 0 206 -3 258 -22 368 -59 330 -106 433 -223 492 -49 26 -123 32
-164 16z m123 -118 c77 -100 122 -218 146 -388 37 -256 49 -633 22 -670 -13
-18 -19 -18 -92 -7 -44 7 -125 12 -180 12 -76 0 -105 4 -113 14 -9 11 -11 101
-9 353 4 327 5 341 30 435 27 99 99 266 121 280 24 16 46 7 75 -29z"/>
<path d="M5235 2780 c-208 -55 -385 -191 -529 -408 -83 -125 -129 -229 -178
-407 -154 -555 -182 -1075 -81 -1489 31 -127 48 -155 83 -136 l23 12 -6 197
c-4 108 -12 237 -18 286 -15 121 -6 566 15 703 79 522 270 880 566 1060 92 57
123 64 141 30 14 -26 2 -1123 -12 -1150 -5 -10 -28 -22 -50 -28 -31 -9 -44
-19 -54 -43 -21 -51 3 -87 60 -87 17 0 40 -6 50 -14 18 -13 20 -44 36 -467 19
-498 16 -479 81 -479 50 0 51 14 45 502 -7 507 -15 460 81 473 86 11 121 80
65 125 -24 19 -36 21 -90 16 -101 -10 -93 -62 -93 603 0 569 0 578 20 596 20
18 22 18 83 -12 181 -90 289 -222 352 -433 112 -371 150 -1000 105 -1715 -9
-138 -8 -152 9 -175 45 -61 89 0 117 160 35 207 29 802 -12 1185 -49 457 -107
674 -231 862 -135 205 -352 293 -578 233z"/>
</g>
</svg>
