<?xml version="1.0" standalone="no"?>
<!DOCTYPE svg PUBLIC "-//W3C//DTD SVG 20010904//EN"
 "http://www.w3.org/TR/2001/REC-SVG-20010904/DTD/svg10.dtd">
<svg version="1.0" xmlns="http://www.w3.org/2000/svg"
 width="1080.000000pt" height="1080.000000pt" viewBox="0 0 1080.000000 1080.000000"
 preserveAspectRatio="xMidYMid meet">
<metadata>
Created by potrace 1.16, written by Peter Selinger 2001-2019
</metadata>
<g transform="translate(0.000000,1080.000000) scale(0.100000,-0.100000)"
fill="#0F1E54" stroke="none">
<path d="M6897 10545 c-76 -29 -255 -160 -386 -280 -177 -165 -509 -601 -688
-905 -244 -416 -422 -893 -453 -1215 -8 -88 -8 -148 -1 -224 6 -58 13 -106 15
-109 3 -2 21 27 41 64 20 38 33 60 29 49 -42 -116 -64 -183 -64 -198 0 -15 -6
-16 -42 -10 -50 7 -56 18 64 -123 43 -51 78 -94 78 -97 0 -3 -43 -49 -97 -101
l-96 -96 -91 36 c-132 52 -166 76 -166 119 0 47 46 97 126 136 79 39 73 52
-29 57 -99 5 -171 -22 -227 -85 -52 -59 -66 -110 -50 -181 21 -93 112 -183
217 -214 l45 -13 -6 -70 c-25 -267 -174 -481 -438 -629 -147 -82 -394 -165
-718 -241 -85 -20 -225 -55 -310 -77 -553 -145 -750 -191 -992 -233 -494 -85
-1016 -96 -1229 -24 -31 10 -101 44 -155 77 -54 32 -106 61 -115 64 -20 8 -14
44 45 302 56 241 73 385 58 499 -5 37 -7 67 -6 67 1 0 29 -13 62 -30 267 -132
772 -145 1507 -38 271 39 279 40 550 88 127 22 349 61 495 85 146 25 301 57
345 70 102 31 263 110 339 166 l58 44 -63 6 c-35 3 -57 6 -48 7 30 3 193 91
232 124 l38 33 -393 1 c-438 1 -508 6 -1013 69 -862 109 -1141 110 -1395 5
-36 -15 -85 -39 -108 -54 -39 -25 -48 -26 -170 -26 -142 0 -209 -13 -310 -60
-118 -55 -222 -187 -222 -281 0 -31 -3 -40 -14 -36 -12 5 -13 -7 -9 -66 4 -56
1 -91 -17 -157 -64 -239 -84 -425 -61 -570 17 -106 64 -242 115 -331 l44 -75
-16 -65 c-22 -85 -21 -480 4 -1259 11 -346 19 -834 19 -1225 1 -465 5 -666 13
-705 34 -154 83 -253 173 -345 37 -38 92 -99 122 -135 118 -143 351 -282 627
-373 209 -70 203 -70 139 4 -137 159 -369 319 -705 487 -123 62 -142 75 -148
99 -13 60 -26 398 -31 818 -3 242 -10 523 -15 625 -5 102 -14 437 -20 745 -10
563 -22 823 -41 925 -11 61 -73 304 -85 335 -5 14 8 6 41 -23 70 -61 154 -99
264 -118 210 -35 881 20 1267 104 l82 18 -19 -65 c-74 -256 -83 -393 -75
-1131 8 -829 26 -1295 76 -2045 11 -159 26 -395 35 -524 20 -306 33 -396 87
-575 16 -54 33 -94 37 -90 11 12 47 154 60 234 30 192 29 205 -44 1030 -42
475 -52 617 -76 1035 -6 105 -13 564 -15 1020 -2 500 -8 868 -15 925 -24 216
-24 200 -2 200 11 0 163 36 338 79 l318 80 71 -58 c196 -159 317 -239 466
-310 115 -55 218 -87 313 -97 l62 -7 -25 28 c-45 49 -213 185 -305 247 -118
79 -266 153 -388 193 l-100 32 49 11 c702 159 884 220 1109 367 139 91 255
206 305 305 55 108 71 302 33 411 l-19 57 21 -10 c11 -5 28 -22 37 -39 10 -16
29 -33 42 -39 18 -7 24 -14 19 -26 -4 -11 -2 -15 4 -11 19 12 51 -23 136 -150
231 -345 485 -607 729 -754 l76 -46 -56 -12 c-142 -31 -759 -185 -962 -241
-250 -68 -328 -95 -445 -153 -108 -54 -266 -159 -255 -170 10 -11 221 13 344
38 71 14 244 64 385 110 380 124 644 204 958 288 l92 25 6 -41 c3 -23 -1 -103
-8 -179 -15 -158 -13 -183 43 -598 96 -709 100 -775 135 -2105 38 -1443 50
-1654 109 -1888 13 -51 21 -95 17 -98 -7 -8 -308 -103 -1061 -339 -545 -170
-641 -204 -786 -281 -87 -47 -93 -48 -126 -37 l-35 13 24 105 c68 301 68 307
67 775 -1 279 -9 583 -23 865 -15 291 -25 689 -31 1205 -10 781 -19 1032 -46
1275 -16 145 -44 287 -66 335 -12 29 -13 27 -16 -45 -2 -41 4 -176 13 -300 8
-124 19 -373 24 -555 12 -414 5 -2661 -8 -2890 -6 -93 -14 -222 -17 -285 -8
-141 8 -298 42 -399 14 -40 23 -75 21 -77 -2 -2 -32 21 -68 51 -163 138 -411
300 -892 582 -116 68 -330 166 -442 203 -38 13 -73 28 -77 33 -3 6 -13 12 -20
13 -8 1 -66 41 -129 89 -83 63 -156 108 -268 163 l-154 75 7 231 c7 248 4 309
-54 886 -80 800 -103 1229 -105 2020 -1 438 -5 660 -14 715 -24 165 -27 166
-66 31 -48 -169 -65 -296 -76 -571 -23 -565 10 -1421 97 -2520 42 -535 46
-560 115 -700 95 -191 113 -221 188 -296 113 -113 226 -164 407 -184 59 -6 63
-9 94 -51 54 -75 138 -160 228 -232 117 -93 164 -123 475 -311 147 -89 307
-188 355 -220 150 -100 269 -151 355 -151 37 0 169 41 192 60 5 4 53 13 105
20 180 22 434 94 1140 325 682 223 1324 420 1339 410 5 -3 11 -1 13 4 1 5 71
28 153 51 338 94 982 301 1202 386 129 50 252 110 370 182 48 29 84 45 86 38
5 -16 44 91 73 203 49 190 54 245 64 706 16 770 33 1241 86 2355 21 453 25
618 22 975 -5 459 -10 515 -68 722 -25 91 -25 92 3 86 35 -9 -37 62 -178 175
-300 241 -577 386 -805 421 -41 7 -90 14 -109 17 -32 5 -34 4 -20 -12 27 -33
190 -164 277 -222 207 -139 498 -277 737 -349 28 -8 53 -17 56 -19 4 -2 -6
-45 -22 -94 -51 -158 -62 -263 -55 -514 3 -121 9 -441 12 -711 7 -524 3 -666
-46 -1675 -53 -1095 -67 -1600 -51 -1839 6 -90 10 -165 9 -167 -2 -1 -55 -7
-119 -13 -162 -15 -324 -63 -632 -185 -144 -57 -372 -140 -507 -184 -253 -83
-500 -156 -506 -149 -3 2 0 35 6 73 23 164 10 381 -100 1594 -54 601 -58 641
-75 930 -23 401 -36 771 -44 1329 -8 482 -10 521 -30 595 -32 118 -84 216
-146 275 -41 39 -49 51 -37 55 10 3 218 55 465 115 547 135 1014 261 1282 348
94 30 486 182 498 193 16 14 -99 21 -195 10 -139 -14 -254 -42 -498 -120 -279
-89 -426 -132 -755 -224 -377 -105 -1386 -356 -1428 -356 -7 0 -33 42 -59 93
-182 357 -542 743 -787 842 -33 14 -69 25 -78 25 -14 1 -12 4 8 15 14 7 60 54
102 104 73 86 152 158 229 211 20 13 42 35 47 48 16 34 13 89 -5 117 l-16 25
74 0 c42 0 97 3 124 6 l49 6 -57 -35 c-65 -40 -151 -108 -144 -114 6 -6 396
35 531 57 264 41 315 45 665 44 316 -1 386 -5 830 -43 807 -69 1222 -74 1509
-20 375 71 604 237 685 499 25 81 40 170 28 169 -4 0 -29 -32 -57 -70 -119
-167 -316 -306 -537 -380 -318 -107 -673 -113 -1678 -29 -195 17 -427 34 -515
40 -221 14 -665 12 -810 -4 -66 -7 -121 -12 -123 -11 -3 3 389 192 481 232
386 166 657 214 1102 194 132 -6 321 -13 420 -16 l180 -5 -35 31 c-84 73 -252
146 -406 175 -123 23 -482 15 -669 -15 -322 -52 -475 -107 -1018 -368 -335
-160 -479 -226 -598 -273 l-96 -37 -59 33 c-32 19 -87 44 -121 56 -35 13 -63
27 -63 31 0 16 127 173 234 290 174 190 421 389 591 474 209 106 436 247 571
355 l78 63 -42 3 c-134 10 -403 -81 -607 -205 -80 -49 -79 -48 210 238 318
315 415 402 580 524 201 149 385 247 570 304 97 30 252 61 302 61 15 0 39 14
59 34 60 60 41 133 -47 180 -58 32 -173 112 -324 227 -210 159 -373 254 -490
284 -89 24 -183 28 -228 10z m139 -206 c83 -15 196 -61 286 -117 81 -49 337
-233 338 -242 0 -3 -37 -18 -83 -34 -192 -68 -434 -210 -652 -384 -135 -107
-518 -486 -641 -634 -81 -98 -187 -249 -254 -364 -27 -47 -59 -80 -140 -145
-194 -155 -322 -291 -392 -416 -17 -30 -32 -52 -34 -51 -2 2 12 42 31 89 33
84 61 176 165 549 125 450 318 822 669 1290 168 224 368 407 486 444 94 29
132 31 221 15z m-4290 -2919 c234 -19 470 -49 786 -99 365 -58 471 -71 605
-72 l98 0 -160 -34 c-88 -18 -257 -54 -375 -80 -250 -53 -793 -144 -1072 -180
-461 -58 -798 -59 -1038 -4 -163 37 -249 90 -236 144 10 40 89 111 162 145 64
31 260 86 409 115 111 22 116 25 75 40 -19 8 -46 14 -60 16 -18 1 -14 4 15 9
63 11 649 11 791 0z m4176 -1367 c9 -28 12 -152 14 -458 2 -619 49 -1532 119
-2310 49 -547 68 -775 110 -1360 24 -332 48 -519 80 -629 23 -76 21 -81 -37
-95 -28 -8 -155 -45 -281 -82 -127 -38 -231 -68 -233 -66 -1 1 2 27 7 57 19
132 21 351 5 615 -28 483 -48 1109 -61 1995 -9 583 -24 833 -85 1380 -58 516
-95 700 -160 804 -17 26 -30 50 -28 51 5 5 502 133 520 134 11 1 21 -12 30
-36z"/>
<path d="M8645 9429 c-127 -17 -358 -68 -495 -110 -420 -126 -886 -357 -1271
-630 -222 -157 -869 -642 -959 -719 -113 -98 -193 -154 -263 -185 l-52 -23 28
-11 c45 -17 167 -13 228 8 113 39 192 86 347 208 63 49 102 73 120 73 44 0
261 48 344 76 95 31 289 128 585 292 419 231 719 354 1018 416 252 53 616 79
790 57 263 -32 444 -126 543 -280 25 -40 36 -50 43 -40 15 24 10 114 -11 181
-74 241 -349 363 -775 345 -416 -19 -794 -105 -1188 -273 -161 -68 -254 -115
-532 -267 -299 -163 -580 -300 -525 -254 73 60 361 270 452 329 435 286 878
495 1253 593 181 47 319 66 515 72 161 5 202 2 315 -17 161 -27 261 -58 390
-120 84 -40 111 -59 165 -117 210 -222 207 -552 -6 -782 -141 -152 -246 -191
-647 -236 -193 -22 -197 -25 -106 -63 156 -64 244 -85 369 -86 132 0 191 14
311 75 183 95 333 281 398 494 51 164 32 363 -49 532 -79 162 -264 315 -467
385 -183 63 -293 80 -558 83 -132 2 -271 -1 -310 -6z"/>
<path d="M1854 9395 c-40 -20 -92 -69 -220 -208 -371 -402 -646 -664 -797
-760 -141 -90 -115 -172 80 -247 301 -116 1405 -410 1973 -525 530 -107 956
-158 1345 -159 241 -1 309 7 498 56 78 21 95 33 55 41 -22 4 -22 4 2 6 26 1
58 17 50 24 -3 2 -45 18 -95 37 -49 18 -162 66 -250 108 -88 41 -200 92 -250
114 -49 22 -171 80 -270 130 -613 307 -1200 710 -1773 1217 -185 164 -206 178
-257 186 -31 5 -51 1 -91 -20z m308 -348 c526 -421 1024 -774 1453 -1029 297
-176 600 -332 745 -384 l65 -23 -140 5 c-828 28 -1639 196 -2750 569 -170 58
-352 120 -403 138 l-93 33 123 105 c156 133 395 359 613 578 93 94 173 171
177 171 4 0 98 -73 210 -163z"/>
<path d="M4485 8249 c-213 -16 -496 -62 -639 -104 -73 -21 -65 -27 70 -55 176
-36 319 -44 577 -31 338 16 574 47 727 94 l45 14 -39 17 c-158 67 -411 89
-741 65z"/>
<path d="M5750 7230 c0 -5 37 -55 82 -112 147 -185 550 -581 766 -753 150
-119 147 -117 121 -53 -137 348 -430 678 -739 833 -101 50 -230 98 -230 85z"/>
<path d="M4659 7062 c-149 -115 -419 -342 -419 -354 0 -31 270 42 341 93 17
12 32 19 35 16 3 -2 -14 -47 -36 -98 -23 -52 -44 -100 -47 -107 -9 -21 63 13
123 58 100 75 153 188 161 344 5 88 4 99 -10 93 -12 -4 -17 1 -19 23 l-3 29
-126 -97z"/>
</g>
</svg>
