<?xml version="1.0" standalone="no"?>
<!DOCTYPE svg PUBLIC "-//W3C//DTD SVG 20010904//EN"
 "http://www.w3.org/TR/2001/REC-SVG-20010904/DTD/svg10.dtd">
<svg version="1.0" xmlns="http://www.w3.org/2000/svg"
 width="1080.000000pt" height="1080.000000pt" viewBox="0 0 1080.000000 1080.000000"
 preserveAspectRatio="xMidYMid meet">
<metadata>
Created by potrace 1.16, written by Peter Selinger 2001-2019
</metadata>
<g transform="translate(0.000000,1080.000000) scale(0.100000,-0.100000)"
fill="#0F1E54" stroke="none">
<path d="M5230 9244 c-151 -47 -664 -205 -1140 -351 -1073 -329 -3126 -965
-3200 -991 -135 -48 -193 -89 -209 -148 -12 -43 0 -99 88 -424 83 -304 975
-3315 1470 -4964 124 -412 141 -453 179 -430 9 6 23 22 31 36 15 27 56 -114
-995 3428 -487 1638 -547 1838 -646 2139 -51 156 -58 185 -46 197 12 12 4620
1434 4700 1451 22 4 29 1 38 -18 5 -13 202 -672 436 -1464 712 -2410 1299
-4386 1320 -4442 18 -49 52 -63 90 -38 13 8 24 20 24 25 0 5 -40 149 -90 321
-49 172 -90 318 -90 326 0 7 11 13 26 13 15 0 374 -110 798 -245 425 -135 783
-245 798 -245 21 0 29 8 42 40 9 22 16 52 16 67 0 14 144 540 319 1167 176
628 428 1533 561 2011 133 479 268 966 301 1084 32 118 59 230 59 248 0 45
-29 60 -64 32 -20 -16 -37 -55 -75 -177 -45 -141 -372 -1295 -997 -3522 -122
-436 -224 -783 -234 -793 -15 -17 -54 -6 -795 223 -429 132 -785 246 -791 253
-17 16 -376 1225 -369 1237 3 6 14 10 24 10 10 0 426 -128 925 -285 499 -157
920 -285 936 -285 15 0 37 8 49 18 16 13 81 223 286 922 146 498 352 1197 457
1554 185 629 190 649 172 666 -23 22 -2809 750 -2870 750 -29 0 -46 -6 -61
-22 -13 -14 -105 -274 -243 -685 -123 -365 -228 -671 -236 -680 -8 -12 -16
-15 -23 -8 -11 11 -161 512 -161 536 1 35 398 1254 412 1262 11 7 289 -61 949
-231 1717 -444 2581 -662 2618 -662 50 0 76 20 68 51 -4 13 -15 29 -25 36 -21
12 -1359 362 -2769 723 -667 170 -907 228 -921 221 -13 -7 -64 -158 -186 -553
-93 -299 -174 -558 -182 -575 -15 -37 -29 -42 -43 -15 -5 10 -93 298 -195 641
-102 343 -191 630 -197 637 -6 8 -23 14 -38 13 -14 0 -150 -39 -301 -85z
m2867 -1064 c1508 -396 1403 -367 1403 -382 0 -18 -861 -2932 -869 -2940 -7
-8 -1887 574 -1902 589 -4 4 -111 357 -238 785 l-231 776 211 624 c116 342
231 683 256 756 28 82 50 132 58 132 8 0 598 -153 1312 -340z"/>
<path d="M7213 7715 c-257 -80 -395 -413 -339 -820 66 -476 196 -840 408
-1142 56 -80 125 -153 144 -153 48 0 394 154 561 251 509 293 855 653 967
1008 52 165 45 265 -25 345 -72 81 -174 102 -350 71 -234 -41 -443 -134 -646
-287 -42 -32 -82 -57 -88 -55 -5 2 -13 42 -17 88 -16 198 -80 370 -192 520
-66 89 -133 142 -210 169 -64 23 -151 25 -213 5z m210 -128 c63 -26 138 -109
182 -202 68 -140 108 -363 98 -540 -5 -90 4 -111 52 -121 26 -5 38 2 87 44
118 104 286 221 393 275 142 71 413 135 516 121 101 -14 149 -78 129 -172 -16
-71 -131 -295 -207 -402 -37 -52 -126 -154 -198 -226 -215 -215 -454 -379
-818 -560 -142 -71 -181 -87 -195 -78 -42 25 -157 197 -227 339 -186 375 -295
913 -239 1183 42 207 143 341 272 361 57 10 92 5 155 -22z"/>
<path d="M3203 7931 c-975 -333 -1780 -613 -1788 -621 -14 -14 -14 -25 0 -101
8 -47 32 -144 54 -215 21 -71 147 -484 280 -919 132 -434 363 -1192 513 -1684
197 -644 278 -897 291 -905 14 -9 380 110 1900 618 1070 358 1888 636 1895
645 9 11 11 29 6 56 -6 40 -221 649 -677 1925 -548 1534 -640 1786 -655 1798
-9 6 -23 11 -31 11 -9 -1 -814 -274 -1788 -608z m2392 -1319 c350 -981 634
-1786 631 -1790 -14 -14 -3591 -1218 -3599 -1212 -9 8 -1097 3592 -1097 3615
0 8 1 15 3 15 1 0 769 263 1707 584 938 321 1708 581 1711 577 3 -3 293 -808
644 -1789z"/>
<path d="M4593 7406 c-263 -65 -512 -387 -668 -861 -24 -71 -51 -166 -60 -210
-27 -127 -25 -128 -172 16 -242 236 -470 379 -668 420 -213 44 -372 5 -490
-122 -76 -82 -97 -144 -103 -289 -9 -261 58 -400 353 -725 321 -353 512 -520
809 -705 189 -117 522 -286 615 -312 54 -15 84 4 144 96 360 546 585 1120 682
1741 53 342 40 597 -41 759 -73 147 -247 230 -401 192z m157 -116 c83 -23 143
-105 182 -248 33 -122 31 -349 -5 -557 -86 -494 -241 -952 -468 -1376 -87
-162 -207 -356 -225 -363 -8 -3 -65 17 -126 44 -240 109 -557 304 -773 477
-278 223 -673 658 -751 827 -90 196 -37 445 113 533 162 95 394 44 666 -147
88 -62 288 -252 407 -387 43 -49 62 -63 83 -63 46 0 73 37 92 126 35 171 49
223 87 339 79 241 263 564 384 674 109 100 240 147 334 121z"/>
<path d="M5911 4261 l-26 -28 0 -199 c-1 -213 -15 -313 -68 -469 l-24 -70 -56
0 c-50 0 -59 -4 -91 -34 -45 -44 -55 -35 -64 55 -6 62 -9 69 -30 72 -47 7 -76
-16 -121 -98 -47 -84 -79 -108 -65 -47 5 17 8 48 9 67 0 35 0 35 -44 35 l-45
0 -21 -55 c-26 -66 -58 -117 -63 -101 -2 6 15 130 39 275 44 277 45 313 8 360
-26 33 -63 34 -93 1 -43 -47 -99 -278 -117 -489 -9 -115 -9 -133 6 -167 12
-26 15 -49 11 -76 -16 -89 -14 -98 20 -101 26 -3 36 3 53 27 39 54 116 71 213
46 22 -6 34 0 76 39 55 51 72 55 109 26 31 -24 71 -26 117 -3 29 14 43 14 91
5 32 -7 64 -8 72 -4 8 5 33 42 56 83 24 40 50 75 59 77 11 2 21 -11 33 -45 22
-60 56 -93 97 -93 51 0 106 67 178 217 34 70 70 144 81 164 10 20 19 43 19 52
0 24 -26 38 -55 31 -37 -9 -135 -135 -180 -230 -22 -46 -40 -73 -46 -67 -21
21 -32 137 -38 423 -7 320 -12 350 -53 350 -11 0 -32 -13 -47 -29z"/>
<path d="M4246 3628 c-26 -40 -36 -114 -46 -326 -11 -266 -32 -402 -60 -402
-5 0 -10 13 -10 29 0 15 -10 40 -21 55 -17 22 -28 26 -57 24 -34 -3 -39 -8
-83 -86 -25 -46 -53 -90 -61 -99 -15 -14 -17 -13 -31 8 -9 13 -21 53 -27 89
-14 71 -29 90 -72 90 -35 0 -42 -13 -73 -146 -30 -130 -38 -146 -58 -124 -19
20 -37 76 -37 115 0 77 -31 112 -91 103 -25 -3 -27 -8 -79 -185 -11 -40 -24
-73 -29 -73 -14 0 -22 97 -15 171 8 80 -9 119 -51 119 -38 0 -56 -47 -65 -170
-13 -169 -40 -252 -70 -215 -31 38 -23 259 25 638 14 103 22 193 19 201 -3 7
-20 22 -39 32 -62 33 -99 -3 -131 -128 -13 -50 -17 -123 -20 -342 -1 -153 -5
-294 -9 -313 -3 -18 -22 -71 -41 -118 -43 -101 -42 -129 2 -133 37 -4 55 15
69 71 6 22 15 42 21 44 6 2 23 -14 37 -35 17 -26 35 -41 55 -45 45 -9 100 10
119 41 26 42 43 52 89 52 34 0 49 6 73 30 17 17 33 46 37 65 3 19 9 35 13 35
4 0 27 -20 51 -45 73 -74 118 -70 171 16 17 27 37 49 45 49 7 0 28 -9 46 -20
18 -11 45 -20 59 -20 32 0 74 32 95 72 19 36 33 32 59 -18 26 -49 58 -61 108
-40 26 10 42 26 52 49 16 38 34 50 56 36 24 -15 80 -10 108 10 31 23 78 106
111 199 13 34 27 62 31 62 5 0 14 -21 20 -46 15 -60 45 -80 93 -64 36 11 99
73 117 114 6 13 26 30 44 39 41 20 59 68 44 122 -27 96 -145 81 -163 -21 -26
-150 -74 -103 -75 73 -1 83 -3 93 -23 107 -60 42 -81 16 -132 -159 -49 -170
-85 -267 -103 -272 -35 -12 -37 245 -4 417 13 63 23 141 23 173 0 51 -4 63
-28 88 -33 35 -68 37 -88 7z"/>
<path d="M4810 2561 c-2051 -566 -2317 -641 -2333 -663 -21 -28 -11 -70 18
-82 20 -7 4627 1258 4663 1280 30 19 30 67 0 88 -12 9 -25 16 -28 15 -3 0
-1047 -287 -2320 -638z"/>
</g>
</svg>
