<?xml version="1.0" standalone="no"?>
<!DOCTYPE svg PUBLIC "-//W3C//DTD SVG 20010904//EN"
 "http://www.w3.org/TR/2001/REC-SVG-20010904/DTD/svg10.dtd">
<svg version="1.0" xmlns="http://www.w3.org/2000/svg"
 width="1080.000000pt" height="1080.000000pt" viewBox="0 0 1080.000000 1080.000000"
 preserveAspectRatio="xMidYMid meet">
<metadata>
Created by potrace 1.16, written by Peter Selinger 2001-2019
</metadata>
<g transform="translate(0.000000,1080.000000) scale(0.100000,-0.100000)"
fill="#0F1E54" stroke="none">
<path d="M9278 9879 c-14 -8 -18 -23 -18 -69 l0 -60 -60 0 c-49 0 -61 -3 -70
-20 -8 -14 -8 -26 0 -40 9 -17 21 -20 70 -20 l60 0 0 -60 c0 -49 3 -61 20 -70
14 -8 26 -8 40 0 17 9 20 21 20 70 l0 60 60 0 c49 0 61 3 70 20 8 14 8 26 0
40 -9 17 -21 20 -70 20 l-60 0 0 60 c0 48 -4 61 -19 70 -23 12 -22 12 -43 -1z"/>
<path d="M1636 9364 c-10 -10 -16 -33 -16 -65 l0 -49 -46 0 c-57 0 -84 -14
-84 -43 0 -35 19 -47 77 -47 l53 0 0 -53 c0 -57 12 -77 45 -77 33 0 45 20 45
77 l0 53 53 0 c58 0 77 12 77 47 0 29 -27 43 -84 43 l-46 0 0 46 c0 25 -5 54
-10 65 -13 23 -43 25 -64 3z"/>
<path d="M4919 9272 c-129 -67 -176 -225 -105 -347 l26 -43 -33 -7 c-67 -15
-133 -68 -170 -140 -39 -75 -30 -139 56 -409 43 -132 75 -241 72 -244 -2 -2
-56 -13 -119 -23 -346 -56 -642 -161 -863 -304 -112 -73 -257 -217 -311 -310
-69 -118 -94 -209 -100 -360 -6 -166 6 -241 69 -429 57 -173 149 -367 243
-511 35 -55 62 -103 60 -107 -3 -4 -15 -8 -27 -8 -47 0 -370 -71 -517 -114
-279 -81 -484 -190 -574 -307 -179 -229 -205 -657 -71 -1165 19 -72 51 -179
70 -238 20 -59 34 -110 32 -113 -3 -3 -55 -26 -115 -53 -350 -152 -568 -341
-632 -546 -60 -195 -47 -593 36 -1134 42 -276 145 -763 179 -852 7 -17 -25
-18 -588 -18 -528 0 -597 -2 -611 -16 -14 -13 -16 -52 -16 -270 0 -157 4 -263
10 -275 11 -19 72 -19 4478 -19 3462 0 4471 3 4480 12 17 17 17 539 0 556 -9
9 -157 12 -605 12 -411 0 -593 3 -593 11 0 5 13 63 29 127 159 632 253 1409
211 1729 -27 199 -113 338 -290 473 -117 88 -282 180 -432 239 -32 13 -58 24
-58 25 0 1 16 49 35 107 47 137 99 335 127 484 19 102 23 153 23 345 0 206 -2
232 -24 310 -53 193 -130 304 -270 395 -178 115 -484 215 -841 276 -74 12
-136 23 -138 25 -2 1 19 35 46 75 147 220 280 529 323 749 20 104 15 300 -9
393 -83 309 -366 550 -826 702 -72 24 -180 54 -239 67 l-108 23 6 60 c6 53 1
77 -40 210 -133 429 -146 467 -180 503 l-32 36 33 43 c127 166 12 402 -196
403 -104 0 -211 -75 -238 -169 -27 -87 -4 -191 55 -253 25 -26 25 -26 4 -37
-11 -7 -30 -29 -40 -49 -30 -58 -201 -611 -201 -649 l0 -33 -55 0 c-39 0 -53
3 -50 13 2 6 36 112 75 235 50 158 70 238 70 276 0 105 -82 211 -186 238 l-43
12 18 25 c28 40 41 89 41 149 0 180 -200 299 -361 214z m190 -82 c108 -54 114
-208 11 -277 -46 -32 -124 -32 -170 0 -57 38 -75 71 -75 137 0 66 18 99 75
138 42 28 107 29 159 2z m802 -3 c77 -52 101 -140 58 -217 -55 -98 -207 -107
-271 -17 -33 45 -36 125 -8 175 44 78 150 107 221 59z m-628 -417 c20 -13 45
-41 56 -61 38 -67 35 -80 -115 -551 l-16 -48 -86 -1 c-48 0 -125 -4 -172 -9
-47 -4 -86 -6 -88 -5 -9 8 -162 512 -162 532 0 30 25 91 48 117 9 10 35 27 57
38 36 16 62 18 241 16 195 -3 202 -4 237 -28z m642 16 c18 -8 40 -27 48 -43 8
-15 54 -154 102 -307 69 -221 86 -288 82 -319 -3 -22 -9 -43 -14 -47 -4 -5
-33 -4 -63 1 -122 20 -346 39 -460 39 l-120 0 0 30 c0 34 176 598 193 619 33
40 164 55 232 27z m-25 -781 c592 -55 1054 -239 1286 -512 49 -59 124 -186
124 -213 0 -6 -27 3 -60 20 -176 89 -577 236 -785 289 -860 216 -1712 157
-2632 -185 -95 -35 -209 -80 -253 -100 -45 -19 -84 -33 -88 -30 -3 3 12 39 32
80 41 80 128 189 198 247 270 224 709 369 1238 409 85 6 164 13 175 15 45 8
620 -7 765 -20z m-26 -400 c454 -49 898 -178 1337 -387 143 -68 140 -63 138
-187 -1 -101 -5 -106 -59 -69 -144 98 -328 129 -560 93 -52 -8 -120 -22 -150
-30 -30 -9 -93 -18 -141 -22 -123 -8 -137 -2 -374 192 -44 36 -99 74 -122 85
-92 43 -209 11 -281 -78 -112 -138 -209 -222 -260 -222 -51 0 -123 57 -228
182 -156 183 -258 185 -468 9 -127 -107 -182 -146 -230 -161 -51 -16 -150 -8
-286 26 -143 34 -346 44 -452 20 -84 -19 -197 -69 -244 -109 l-31 -27 -7 69
c-4 38 -4 91 0 118 l6 50 172 72 c94 40 263 104 376 142 442 150 778 217 1275
253 97 7 450 -5 589 -19z m-863 -413 c28 -16 72 -59 108 -104 65 -81 140 -147
205 -180 31 -16 52 -19 93 -15 86 9 160 67 305 239 33 39 62 62 92 73 44 17
46 17 90 -4 25 -12 98 -67 163 -122 65 -55 147 -114 183 -132 60 -30 72 -32
160 -31 69 0 125 8 205 29 129 32 344 45 435 26 76 -16 171 -64 225 -114 l47
-42 -32 -100 c-65 -200 -166 -408 -282 -577 -43 -63 -65 -87 -77 -84 -27 9
-513 54 -761 72 -332 24 -1212 24 -1535 0 -263 -19 -610 -51 -710 -65 -79 -11
-65 -21 -149 105 -106 158 -188 328 -258 533 l-38 114 22 25 c32 35 112 84
183 113 55 22 73 24 225 23 150 0 178 -3 305 -33 240 -57 310 -38 519 138 114
96 183 141 216 141 8 0 36 -13 61 -28z m1199 -1156 c944 -67 1517 -192 1795
-391 54 -38 126 -105 114 -105 -2 0 -67 11 -144 24 -511 89 -1103 153 -1750
188 -279 15 -1105 14 -1405 -1 -721 -38 -1500 -123 -2039 -222 -57 -10 -107
-17 -109 -14 -10 10 53 79 112 122 213 159 669 284 1281 352 172 20 666 57
845 65 218 9 1088 -3 1300 -18z m180 -381 c418 -27 668 -50 1025 -96 351 -44
756 -114 766 -131 11 -17 51 -169 47 -174 -2 -2 -38 8 -80 21 -211 67 -386 61
-628 -23 -96 -33 -115 -36 -215 -36 l-110 0 -150 58 c-137 54 -157 59 -230 60
-71 1 -88 -3 -145 -31 -36 -17 -119 -75 -184 -127 -140 -113 -174 -127 -239
-98 -52 23 -95 74 -172 202 -31 52 -73 116 -93 143 -44 58 -108 92 -153 82
-47 -11 -177 -144 -223 -230 -56 -104 -111 -172 -158 -196 -39 -20 -42 -20
-84 -4 -55 21 -97 68 -169 191 -62 105 -157 210 -212 233 -23 9 -40 10 -71 2
-51 -14 -99 -67 -172 -192 -105 -179 -173 -249 -243 -249 -30 0 -100 45 -224
143 -206 163 -276 172 -541 64 l-127 -51 -115 0 c-105 0 -122 3 -196 31 -141
54 -270 77 -404 70 -103 -5 -233 -32 -303 -62 -12 -5 -16 -3 -13 6 2 8 12 44
21 82 14 53 22 68 39 72 11 2 88 16 169 30 638 109 1353 186 1987 215 129 6
269 12 310 14 181 8 1072 -5 1290 -19z m-1364 -307 c28 -29 70 -87 93 -128 89
-154 157 -220 247 -240 97 -22 201 55 301 222 75 126 171 225 201 209 25 -14
55 -54 142 -196 110 -178 180 -239 275 -239 79 0 117 19 252 126 220 174 244
178 466 94 252 -96 325 -98 557 -20 l145 49 150 0 c155 0 204 -9 331 -56 51
-19 53 -21 60 -66 4 -26 2 -109 -5 -185 -18 -221 -59 -411 -143 -670 l-42
-126 -53 20 c-201 75 -608 170 -951 223 -539 82 -1001 115 -1648 115 -658 0
-1145 -35 -1674 -121 -331 -53 -677 -132 -876 -199 -48 -17 -93 -30 -100 -30
-24 0 -131 369 -170 585 -9 50 -19 167 -21 262 l-5 172 38 16 c104 43 196 59
344 59 153 0 178 -4 364 -73 74 -28 205 -38 285 -22 33 7 126 36 205 66 225
85 253 80 466 -94 52 -43 113 -88 135 -100 53 -28 150 -29 204 -2 56 29 127
113 209 249 79 131 122 178 150 163 10 -5 40 -33 68 -63z m1144 -978 c1061
-68 1926 -275 2350 -563 95 -65 216 -187 253 -256 16 -29 27 -54 24 -57 -2 -2
-105 29 -228 70 -847 284 -1728 451 -2618 497 -283 15 -1003 6 -1256 -15 -911
-77 -1757 -259 -2558 -548 -76 -28 -141 -48 -144 -45 -3 4 8 34 25 69 161 341
807 611 1832 767 277 42 634 76 950 91 129 6 264 12 300 14 154 9 790 -6 1070
-24z m-95 -411 c728 -43 1490 -179 2190 -393 200 -61 553 -180 563 -191 4 -4
9 -98 11 -210 l3 -203 -53 15 c-30 8 -99 17 -155 20 -171 10 -342 -24 -589
-115 -126 -46 -163 -56 -235 -60 -111 -6 -175 16 -391 134 -220 119 -271 137
-384 138 -107 1 -185 -22 -315 -92 -151 -80 -164 -85 -222 -90 -79 -6 -132 21
-206 106 -159 184 -195 214 -279 232 -66 15 -147 -6 -217 -54 -64 -44 -91 -79
-156 -197 -112 -205 -179 -212 -275 -27 -88 168 -165 244 -279 274 -112 29
-192 -6 -302 -132 -167 -192 -190 -209 -288 -202 -62 4 -73 9 -226 90 -130 70
-208 93 -315 92 -113 -1 -159 -17 -365 -129 -242 -131 -265 -140 -390 -139
-104 0 -107 1 -271 62 -201 74 -323 101 -490 109 -184 8 -297 -20 -425 -108
l-41 -28 -6 82 c-10 122 -8 352 2 380 8 20 38 34 193 90 852 305 1757 486
2738 547 96 6 229 12 295 14 185 5 691 -3 880 -15z m-981 -810 c69 -25 114
-75 181 -199 86 -159 147 -208 240 -194 84 12 129 58 207 208 57 108 119 170
193 191 102 30 119 19 307 -187 106 -116 160 -148 253 -148 74 0 144 23 245
80 180 103 300 129 417 92 35 -11 143 -63 240 -115 98 -53 214 -108 258 -122
70 -24 91 -27 170 -22 91 5 92 5 370 104 197 69 448 93 585 55 l65 -18 -3 -64
c-10 -241 -110 -818 -206 -1190 l-32 -125 -3182 -3 -3181 -2 -12 42 c-91 337
-193 874 -215 1141 l-7 77 41 39 c85 81 209 121 374 121 169 0 305 -31 578
-130 90 -33 134 -43 201 -47 133 -8 204 17 484 171 155 86 234 111 324 102 82
-7 137 -28 302 -114 l130 -67 87 0 c127 0 160 22 344 226 76 85 122 118 165
119 12 0 47 -9 77 -21z m4706 -1949 l0 -200 -4400 0 -4400 0 0 200 0 200 4400
0 4400 0 0 -200z"/>
<path d="M7989 8627 c-91 -61 -112 -180 -53 -298 30 -60 114 -134 182 -159 78
-30 127 -26 210 15 120 61 183 152 184 268 0 93 -29 149 -94 183 -51 26 -142
10 -190 -33 -17 -15 -19 -15 -36 0 -54 49 -149 60 -203 24z m137 -89 c16 -12
35 -30 42 -40 18 -25 68 -23 82 3 15 27 69 59 102 59 54 0 88 -74 68 -148 -21
-82 -135 -172 -215 -172 -98 1 -215 117 -215 215 0 39 22 90 42 98 29 12 67 6
94 -15z"/>
<path d="M2272 7968 c-5 -7 -15 -33 -22 -58 -33 -121 -127 -233 -242 -289 -61
-29 -68 -35 -68 -61 0 -26 7 -32 63 -59 119 -57 192 -140 238 -271 41 -114 79
-121 110 -19 39 132 116 226 235 284 67 33 74 40 74 66 0 26 -7 32 -65 58
-115 53 -213 168 -245 291 -14 53 -26 70 -50 70 -10 0 -22 -6 -28 -12z m73
-250 c25 -38 63 -79 102 -107 34 -25 62 -48 62 -51 0 -3 -22 -20 -49 -37 -48
-32 -122 -115 -143 -160 -14 -30 -19 -29 -42 10 -34 58 -85 115 -135 149 -27
18 -50 35 -50 38 0 3 13 13 28 22 43 26 128 113 153 158 13 22 25 40 28 40 3
-1 24 -28 46 -62z"/>
<path d="M8312 7218 c-7 -7 -12 -38 -12 -70 l0 -57 -62 -3 c-57 -3 -63 -5 -66
-26 -6 -38 15 -52 74 -52 l54 0 0 -49 c0 -67 7 -81 41 -81 35 0 49 23 49 84
l0 45 56 3 c41 2 60 8 68 21 20 32 -4 52 -68 55 l-56 3 0 47 c0 73 -42 116
-78 80z"/>
<path d="M9083 5218 c-5 -7 -15 -33 -22 -58 -36 -124 -122 -227 -238 -283 -61
-29 -68 -36 -68 -61 0 -26 8 -33 73 -66 40 -21 87 -50 104 -66 46 -44 106
-140 125 -203 21 -71 30 -83 62 -79 22 3 29 13 51 78 14 41 35 92 48 112 35
56 126 134 193 165 92 42 91 74 -3 117 -67 31 -155 107 -191 165 -12 20 -33
70 -47 111 -22 65 -29 75 -51 78 -14 2 -30 -3 -36 -10z m99 -280 c16 -20 55
-57 87 -81 l58 -44 -41 -26 c-52 -33 -95 -78 -139 -144 l-34 -53 -48 71 c-30
43 -69 85 -104 110 -31 22 -55 43 -54 46 1 3 14 14 29 23 49 33 124 112 152
161 l27 49 19 -38 c10 -20 32 -54 48 -74z"/>
<path d="M1441 4668 c-58 -38 -76 -81 -76 -173 0 -69 4 -86 27 -127 52 -88
159 -162 253 -175 65 -8 153 27 221 90 72 65 96 114 101 202 4 59 1 77 -19
115 -34 66 -79 93 -150 88 -39 -3 -68 -12 -95 -30 l-38 -25 -38 25 c-56 37
-140 42 -186 10z m174 -119 c38 -36 77 -38 94 -6 17 31 62 57 99 57 45 0 72
-39 72 -104 0 -64 -30 -118 -88 -163 -83 -63 -151 -67 -235 -13 -65 41 -100
97 -105 171 -4 54 -2 60 26 89 31 31 31 31 69 15 21 -9 52 -29 68 -46z"/>
<path d="M1332 2608 c-7 -7 -12 -36 -12 -65 l0 -53 -54 0 c-36 0 -60 -5 -70
-16 -39 -38 -5 -74 69 -74 l54 0 3 -56 c2 -41 8 -60 21 -68 32 -20 52 4 55 68
l3 56 54 0 c74 0 108 36 69 74 -10 11 -34 16 -70 16 l-54 0 0 53 c0 54 -12 77
-40 77 -9 0 -21 -5 -28 -12z"/>
</g>
</svg>
