<?xml version="1.0" standalone="no"?>
<!DOCTYPE svg PUBLIC "-//W3C//DTD SVG 20010904//EN"
 "http://www.w3.org/TR/2001/REC-SVG-20010904/DTD/svg10.dtd">
<svg version="1.0" xmlns="http://www.w3.org/2000/svg"
 width="1080.000000pt" height="1080.000000pt" viewBox="0 0 1080.000000 1080.000000"
 preserveAspectRatio="xMidYMid meet">
<metadata>
Created by potrace 1.16, written by Peter Selinger 2001-2019
</metadata>
<g transform="translate(0.000000,1080.000000) scale(0.100000,-0.100000)"
fill="#0F1E54" stroke="none">
<path d="M6509 9639 c-68 -101 -159 -320 -174 -422 -6 -40 -4 -48 11 -54 26
-10 66 44 129 172 61 125 103 244 112 316 5 45 4 49 -15 49 -15 0 -34 -19 -63
-61z"/>
<path d="M2977 9328 c-9 -13 -41 -66 -72 -118 -226 -377 -512 -676 -855 -895
-358 -229 -918 -439 -1384 -520 -50 -8 -94 -21 -98 -28 -15 -24 -7 -65 81
-371 235 -817 506 -1619 810 -2391 39 -99 71 -188 71 -197 0 -32 -29 -48 -88
-48 -156 0 -342 -39 -457 -95 -147 -71 -253 -221 -263 -370 -8 -131 32 -216
133 -280 69 -45 155 -65 275 -65 161 0 279 42 413 149 79 63 104 97 94 125
-11 27 -45 18 -196 -53 -179 -85 -264 -112 -353 -112 -143 -1 -258 95 -258
215 0 157 145 301 355 353 91 22 373 25 398 4 9 -7 33 -65 53 -130 57 -184
102 -266 135 -245 16 10 10 57 -30 214 -48 193 -109 376 -246 740 -170 450
-485 1379 -485 1429 0 29 23 37 127 44 116 8 256 39 359 78 170 65 542 273
829 464 433 288 873 658 1032 868 41 54 81 101 89 104 8 3 23 -2 34 -12 27
-24 325 -684 557 -1234 131 -311 393 -962 393 -976 0 -29 -31 -35 -191 -38
-139 -3 -174 -7 -229 -26 -175 -61 -307 -192 -392 -389 -30 -72 -33 -85 -33
-187 0 -105 2 -114 33 -177 67 -136 199 -208 380 -208 89 0 168 21 272 72 70
34 101 58 180 137 101 102 153 183 148 228 -7 60 -82 33 -138 -49 -112 -164
-350 -290 -516 -275 -148 14 -225 89 -240 235 -13 124 44 261 155 373 125 125
265 176 451 165 52 -3 112 -10 133 -16 44 -13 107 -66 137 -115 30 -48 79 -58
94 -19 14 36 -679 1713 -925 2240 -51 110 -198 406 -326 659 -372 735 -385
760 -410 763 -14 2 -27 -5 -36 -20z m217 -603 c102 -200 186 -373 186 -383 0
-21 -77 -136 -159 -236 -60 -74 -252 -250 -466 -426 -661 -544 -1217 -841
-1707 -910 -79 -11 -93 -8 -107 28 -14 37 -241 826 -241 839 0 22 34 36 187
74 586 146 1120 388 1466 666 181 145 403 385 542 584 63 91 94 129 106 129 4
0 91 -164 193 -365z"/>
<path d="M5161 9286 c-20 -24 14 -80 99 -170 123 -129 250 -197 250 -133 0 71
-213 280 -316 311 -13 4 -26 1 -33 -8z"/>
<path d="M8602 9063 c-13 -23 -43 -270 -82 -668 -53 -539 -76 -714 -141 -1082
-43 -244 -52 -275 -72 -267 -7 2 -30 34 -51 69 -80 137 -177 211 -313 240
-194 41 -370 -12 -513 -154 -123 -123 -187 -261 -197 -426 -10 -159 34 -285
130 -370 93 -84 178 -114 347 -121 84 -4 121 -2 139 8 36 20 47 42 35 75 l-10
28 -119 0 c-104 0 -128 4 -180 25 -80 32 -175 125 -198 194 -21 62 -22 166 -1
237 41 142 162 288 289 350 64 31 78 34 160 34 74 0 97 -4 133 -23 67 -35 109
-71 159 -137 94 -122 143 -274 143 -439 0 -76 2 -86 22 -100 28 -20 72 -20 91
-1 9 8 18 32 21 52 3 21 33 209 65 418 79 502 115 767 140 1015 30 297 63 774
65 925 l1 130 -27 3 c-18 2 -30 -3 -36 -15z"/>
<path d="M4837 4622 c-10 -10 -17 -27 -17 -38 0 -10 53 -133 117 -273 127
-275 138 -290 191 -260 16 9 28 25 30 40 3 27 -206 496 -236 532 -20 22 -64
22 -85 -1z"/>
<path d="M9782 4397 c-114 -107 -233 -218 -264 -246 -62 -57 -74 -93 -42 -125
40 -41 59 -28 325 221 140 130 257 241 261 247 25 37 -8 96 -55 96 -10 0 -111
-87 -225 -193z"/>
<path d="M7226 4232 c-3 -5 -10 -177 -16 -383 -41 -1430 -58 -1800 -85 -1828
-12 -12 -27 -3 -101 62 -104 90 -212 149 -319 172 -357 80 -638 -312 -438
-612 82 -124 227 -197 413 -210 200 -13 393 57 466 167 15 22 39 43 57 50 17
6 41 20 54 32 22 20 22 24 17 197 -4 125 -1 222 10 336 26 261 39 664 34 1083
-3 216 -4 391 -2 390 1 -2 14 -34 28 -71 66 -175 179 -276 348 -311 142 -29
260 -14 452 58 130 49 173 106 105 142 -30 15 -34 14 -112 -19 -148 -63 -218
-80 -316 -75 -114 5 -178 35 -255 119 -89 96 -148 234 -231 540 -19 72 -40
140 -46 150 -10 19 -53 26 -63 11z m-431 -2131 c49 -24 93 -57 145 -110 77
-77 200 -250 200 -281 0 -21 -27 -45 -60 -55 -14 -4 -81 -30 -150 -57 -105
-42 -136 -50 -195 -51 -183 -4 -367 113 -406 257 -24 90 21 203 107 268 70 54
115 68 209 65 69 -2 91 -7 150 -36z"/>
<path d="M9628 3604 c-10 -3 -18 -14 -18 -25 0 -63 354 -189 531 -189 87 0
107 13 74 50 -66 73 -491 191 -587 164z"/>
<path d="M4233 3411 c-281 -14 -335 -19 -349 -33 -21 -21 -21 -65 -1 -86 15
-14 48 -14 379 2 395 19 398 19 398 77 0 33 -32 60 -70 58 -14 -1 -175 -9
-357 -18z"/>
<path d="M4795 2226 c-179 -46 -455 -208 -455 -268 0 -45 144 -7 320 83 160
83 257 166 220 189 -18 12 -22 12 -85 -4z"/>
</g>
</svg>
