<?xml version="1.0" standalone="no"?>
<!DOCTYPE svg PUBLIC "-//W3C//DTD SVG 20010904//EN"
 "http://www.w3.org/TR/2001/REC-SVG-20010904/DTD/svg10.dtd">
<svg version="1.0" xmlns="http://www.w3.org/2000/svg"
 width="1080.000000pt" height="1080.000000pt" viewBox="0 0 1080.000000 1080.000000"
 preserveAspectRatio="xMidYMid meet">
<metadata>
Created by potrace 1.16, written by Peter Selinger 2001-2019
</metadata>
<g transform="translate(0.000000,1080.000000) scale(0.100000,-0.100000)"
fill="#0F1E54" stroke="none">
<path d="M5315 10294 c-834 -18 -1489 -143 -1785 -339 -280 -186 -431 -557
-525 -1290 -52 -407 -77 -817 -68 -1117 3 -109 4 -198 1 -198 -3 0 -29 4 -58
10 -67 13 -165 -2 -240 -36 -235 -107 -372 -377 -474 -934 -39 -217 -50 -323
-50 -515 0 -192 18 -340 56 -464 18 -60 43 -110 32 -65 -12 50 -20 388 -13
544 22 469 141 970 279 1177 100 147 211 214 356 214 114 0 210 -67 308 -214
79 -120 87 -139 196 -463 202 -595 285 -791 425 -1003 213 -324 432 -519 777
-694 130 -66 237 -104 378 -134 125 -26 773 -26 965 1 298 41 537 109 738 210
309 154 479 339 672 727 92 187 125 281 306 889 117 392 166 527 217 603 35
51 91 97 140 117 68 27 216 -15 307 -87 115 -91 233 -314 286 -542 59 -254 85
-664 60 -937 -11 -111 -47 -334 -67 -414 -15 -58 15 0 44 85 83 243 106 394
106 685 1 245 -6 317 -51 545 -66 336 -216 589 -412 694 -195 104 -353 75
-466 -84 -79 -110 -110 -195 -265 -720 -145 -492 -192 -625 -280 -802 -184
-372 -340 -540 -639 -688 -219 -109 -392 -159 -753 -219 -377 -62 -452 -67
-655 -41 -222 29 -397 82 -583 175 -382 192 -634 439 -853 835 -85 155 -124
254 -312 800 -64 186 -128 362 -142 390 -69 138 -181 270 -267 316 -25 13 -46
31 -46 39 0 8 7 69 15 135 8 65 26 266 40 445 14 179 32 393 40 475 72 709
189 1133 375 1354 256 306 971 454 2205 454 851 1 1343 -69 1670 -236 189 -97
267 -204 373 -518 144 -421 207 -775 287 -1604 19 -203 37 -377 38 -385 2 -8
7 86 11 210 24 670 -117 1508 -336 2006 -85 192 -166 278 -346 369 -242 121
-585 191 -1097 225 -173 11 -693 19 -920 14z"/>
<path d="M6810 10024 c-104 -13 -172 -27 -159 -34 8 -4 73 -11 144 -15 177 -9
269 -27 345 -65 286 -143 441 -407 558 -951 64 -296 62 -290 56 -154 -3 66 -9
161 -15 210 -58 530 -298 901 -642 989 -60 16 -226 27 -287 20z"/>
<path d="M4050 9988 c-186 -39 -374 -133 -493 -247 -42 -40 -87 -106 -87 -127
0 -4 26 18 58 48 97 93 267 181 487 253 88 29 100 36 100 56 0 27 -8 29 -65
17z"/>
<path d="M5220 9259 c-284 -17 -774 -77 -1018 -124 -251 -49 -378 -101 -478
-196 -73 -71 -110 -142 -132 -252 -16 -81 -16 -80 12 -311 4 -30 154 -109 296
-157 256 -85 484 -109 1044 -109 721 0 1507 66 1814 151 85 24 187 66 223 92
l24 18 -30 -5 c-16 -2 -95 -18 -174 -35 -216 -46 -928 -113 -1393 -131 -826
-32 -1368 10 -1704 132 l-87 31 6 111 c12 200 46 295 142 391 127 128 314 181
897 255 379 48 563 61 948 67 411 6 691 -6 858 -38 335 -64 458 -129 530 -280
43 -90 63 -188 76 -374 l12 -160 13 88 c14 93 17 251 6 321 -25 159 -102 286
-220 361 -116 75 -398 138 -685 154 -206 12 -787 12 -980 0z"/>
<path d="M4091 8990 c-124 -26 -260 -129 -316 -239 -34 -68 -58 -182 -49 -235
6 -40 6 -40 39 60 39 119 57 149 127 222 107 110 189 149 342 163 92 8 116 13
105 23 -10 9 -208 14 -248 6z"/>
<path d="M5770 7903 c-357 -27 -482 -39 -755 -73 -176 -21 -372 -44 -435 -50
-63 -6 -234 -25 -380 -41 -208 -24 -310 -30 -475 -30 -328 -1 -468 30 -575
128 -48 43 -51 32 -7 -33 77 -114 291 -174 618 -174 133 0 253 8 490 34 173
19 346 38 384 41 39 4 160 18 270 31 573 71 752 85 1162 91 368 6 522 -2 723
-33 52 -8 152 -24 222 -34 70 -11 176 -27 235 -37 63 -10 168 -17 253 -17 124
-1 155 2 217 22 68 21 152 73 160 99 2 6 -28 -1 -69 -17 -88 -34 -216 -53
-301 -45 -34 4 -152 22 -262 40 -543 91 -689 105 -1105 103 -179 -1 -345 -3
-370 -5z"/>
<path d="M5245 7574 c-533 -27 -1313 -196 -1641 -355 -84 -41 -121 -69 -73
-55 13 4 155 40 314 81 461 117 843 192 1180 231 192 22 770 26 980 6 159 -16
496 -70 660 -108 242 -55 666 -166 764 -199 58 -19 106 -33 108 -31 15 15
-192 112 -344 162 -395 130 -787 215 -1157 249 -154 15 -645 26 -791 19z"/>
<path d="M5285 7384 c-22 -2 -103 -9 -180 -15 -468 -36 -892 -108 -1242 -210
-115 -33 -233 -84 -233 -101 0 -5 8 -7 17 -4 9 4 139 31 288 61 437 87 778
137 1210 177 213 19 752 17 955 -5 316 -33 574 -77 935 -158 121 -28 245 -54
275 -60 30 -5 65 -12 78 -14 12 -3 22 -1 22 4 0 16 -242 105 -435 160 -182 51
-539 116 -815 147 -136 15 -768 28 -875 18z"/>
<path d="M5320 6776 c-154 -43 -275 -171 -300 -316 l-12 -70 -38 48 c-111 141
-245 200 -351 154 -122 -53 -178 -191 -135 -334 38 -127 188 -316 316 -400
200 -130 294 -176 385 -184 l50 -5 -90 48 c-168 90 -354 228 -432 321 -149
176 -198 332 -132 421 32 44 68 61 126 61 63 -1 118 -40 209 -151 75 -90 96
-103 136 -83 28 15 28 15 49 149 15 100 59 162 155 220 64 38 149 60 200 50
48 -9 98 -56 130 -123 23 -48 28 -74 32 -164 2 -58 2 -121 -2 -140 l-6 -33
-87 0 c-78 0 -93 -3 -134 -27 -93 -55 -141 -140 -141 -247 0 -56 6 -77 40
-143 l39 -77 -33 -32 c-19 -18 -32 -34 -30 -37 2 -2 23 8 45 22 l41 26 66 -54
c113 -94 258 -155 363 -156 45 0 37 6 -58 45 -112 45 -184 90 -261 165 -171
166 -174 355 -8 424 85 36 162 7 285 -108 117 -109 148 -101 163 47 5 47 15
98 23 114 53 101 169 143 248 90 75 -50 99 -126 74 -232 -31 -134 -110 -253
-279 -419 -103 -102 -108 -107 -61 -81 186 103 354 285 405 439 46 139 33 240
-42 317 -102 105 -243 106 -358 2 -51 -45 -79 -103 -88 -183 l-7 -59 -63 61
-64 61 12 85 c24 166 -22 354 -107 434 -66 63 -168 83 -273 54z"/>
<path d="M7937 6655 c-145 -40 -281 -202 -316 -376 -28 -137 -9 -303 49 -424
55 -116 193 -225 302 -241 l43 -6 -70 43 c-179 110 -257 253 -258 474 -1 160
44 278 139 371 75 73 143 98 247 90 161 -12 259 -93 304 -251 20 -69 29 -334
14 -421 -23 -138 -90 -233 -196 -279 -106 -46 -104 -45 -60 -39 172 24 255 95
312 269 25 74 27 93 27 250 1 183 -11 250 -59 345 -27 53 -93 120 -153 156
-81 49 -227 66 -325 39z"/>
<path d="M2595 6492 c-125 -44 -224 -135 -283 -261 -32 -66 -36 -84 -40 -178
-7 -158 22 -268 105 -395 78 -120 191 -182 320 -176 l68 3 -85 27 c-47 15
-106 41 -130 57 -48 32 -105 100 -139 168 -58 116 -80 297 -48 404 36 122 155
249 260 279 64 17 171 9 228 -19 137 -66 209 -195 209 -378 0 -102 -22 -209
-60 -291 -31 -67 -107 -172 -142 -196 -12 -9 -20 -18 -17 -20 10 -10 106 62
151 113 105 117 168 348 139 512 -27 150 -134 292 -256 339 -81 32 -210 38
-280 12z"/>
<path d="M8437 5671 c-120 -152 -256 -217 -417 -200 -41 5 -97 13 -124 19 -58
12 -182 76 -241 124 -62 51 -70 53 -49 16 53 -90 196 -184 330 -216 199 -47
385 28 497 200 29 44 62 116 53 116 -2 0 -24 -27 -49 -59z"/>
<path d="M3117 5558 c-83 -82 -137 -115 -240 -145 -152 -44 -330 -26 -463 47
-40 23 -74 37 -74 31 0 -16 82 -81 141 -111 59 -30 182 -60 247 -60 57 0 186
35 244 67 27 15 70 45 95 66 44 40 127 152 121 165 -2 4 -33 -23 -71 -60z"/>
<path d="M6880 5518 c-145 -131 -402 -287 -580 -352 -244 -87 -506 -127 -844
-127 -322 1 -561 45 -960 181 -98 33 -181 58 -184 56 -13 -14 161 -106 308
-163 308 -119 508 -157 835 -156 650 0 1031 128 1361 457 93 93 136 147 117
146 -4 -1 -28 -19 -53 -42z"/>
<path d="M8525 5163 c-208 -135 -763 -364 -1340 -553 -743 -243 -1498 -351
-2287 -329 -759 22 -1445 160 -1973 396 -272 122 -489 266 -654 436 -41 42
-77 75 -79 72 -2 -2 19 -37 47 -78 53 -77 183 -211 261 -270 366 -277 984
-490 1690 -582 352 -45 780 -71 1035 -61 772 30 1375 137 2060 364 564 188
937 349 1160 503 70 48 163 134 154 143 -2 3 -36 -16 -74 -41z"/>
<path d="M8641 4933 c-82 -219 -176 -411 -242 -491 -58 -70 -152 -145 -219
-175 -142 -62 -438 -147 -665 -191 -398 -76 -957 -125 -1660 -146 -455 -13
-822 -13 -831 1 -4 7 -9 8 -13 1 -10 -17 -893 15 -1186 43 -276 27 -602 84
-855 151 -242 64 -437 171 -589 324 -46 46 -174 243 -217 334 -19 40 -50 115
-69 167 -38 105 -42 104 -20 -2 27 -126 56 -211 111 -326 44 -89 74 -134 152
-225 l97 -113 -8 -65 c-5 -36 -29 -168 -54 -295 -78 -392 -63 -478 93 -539
138 -54 533 -134 711 -143 96 -5 116 -3 138 11 75 49 135 312 135 589 l0 103
173 -24 c94 -13 183 -26 196 -28 23 -5 24 -6 17 -87 -20 -243 -95 -661 -165
-917 -114 -414 -351 -1020 -567 -1452 -49 -98 -50 -98 -141 -77 -65 15 -128
-1 -147 -39 -35 -70 -76 -314 -76 -459 0 -75 2 -84 23 -98 20 -13 166 -39 329
-59 79 -9 82 -3 133 247 24 120 47 246 50 281 9 84 0 92 -110 101 -47 4 -85 8
-85 10 0 1 38 60 85 131 312 470 630 1373 700 1985 10 83 15 194 13 283 l-3
148 55 -6 c30 -3 115 -8 188 -12 l134 -7 -6 -31 c-38 -211 -41 -554 -8 -739
86 -472 290 -1059 476 -1372 l47 -79 -40 -163 c-23 -89 -41 -175 -41 -191 0
-52 31 -68 194 -102 108 -22 130 -16 146 37 l12 38 193 -192 193 -192 -39 -39
c-22 -22 -39 -49 -39 -62 0 -14 40 -63 122 -146 140 -143 148 -146 225 -88
120 90 143 130 112 188 l-19 36 80 0 c44 0 80 4 80 8 0 5 -47 17 -105 27 -103
17 -105 18 -140 61 -31 37 -35 49 -35 97 0 52 1 55 28 60 54 11 377 20 454 13
l77 -8 3 -118 3 -118 -50 -6 c-27 -3 -75 -6 -105 -7 -30 -1 -66 -4 -80 -8 -24
-7 -23 -8 10 -14 19 -3 82 -9 140 -13 141 -9 138 -13 141 173 2 101 -1 146
-10 157 -19 22 -100 36 -216 36 l-104 0 46 103 c150 337 321 886 398 1277 9
47 20 88 24 92 4 5 20 -31 35 -80 124 -386 352 -829 605 -1174 61 -84 88 -104
48 -35 -51 87 -267 509 -345 674 -116 244 -171 380 -245 600 l-65 192 14 68
c47 220 87 458 114 676 17 137 29 251 27 253 -10 10 -104 -360 -163 -640 -21
-99 -39 -175 -41 -170 -1 5 -30 140 -63 299 -64 306 -126 553 -142 570 -35 36
66 -643 138 -923 l34 -134 -41 -191 c-59 -282 -75 -341 -241 -924 l-152 -533
-73 0 c-118 0 -223 -19 -250 -46 -13 -13 -23 -32 -23 -44 0 -16 -5 -19 -23
-14 -20 4 -31 -3 -64 -43 -58 -70 -63 -82 -28 -59 17 10 40 28 52 39 13 11 24
19 26 16 2 -2 45 -62 96 -132 l94 -128 -39 -41 c-22 -22 -51 -49 -67 -60 l-27
-20 -115 102 c-63 56 -115 104 -115 107 0 8 42 67 56 78 9 8 -15 43 -102 145
-63 73 -151 180 -195 237 l-82 104 18 77 c9 42 19 85 21 94 7 26 -28 54 -76
62 -57 9 -61 2 -11 -24 23 -11 41 -26 41 -33 0 -6 -21 -73 -46 -148 l-47 -136
-103 26 c-83 20 -104 29 -104 43 0 10 11 82 25 160 14 78 25 144 25 146 0 2
13 1 30 -2 17 -3 44 -9 60 -12 19 -3 30 -12 30 -22 1 -37 19 17 58 178 44 177
74 358 93 565 17 180 18 1165 2 1301 -7 56 -15 126 -19 156 l-6 55 493 7 c548
7 1056 29 1189 50 l25 5 1 -172 c2 -358 97 -739 339 -1352 194 -492 281 -650
529 -959 72 -90 78 -100 62 -110 -63 -38 -122 -85 -135 -108 -14 -24 -13 -29
19 -81 46 -77 197 -255 234 -278 60 -36 96 -23 271 104 137 99 138 118 9 277
-30 37 -78 108 -108 156 -71 119 -81 120 -181 23 -41 -40 -77 -70 -79 -68 -7
8 -84 137 -193 324 -61 105 -143 260 -181 345 -118 260 -273 661 -351 905 -63
196 -157 592 -180 755 -11 80 -24 166 -29 191 l-9 46 161 17 c421 45 763 109
1061 198 84 25 229 82 270 107 l31 18 -4 -91 c-3 -60 5 -168 23 -316 15 -124
25 -249 23 -278 -9 -99 -46 -119 -348 -186 -178 -40 -330 -63 -445 -68 l-79
-3 -28 55 c-36 73 -69 208 -104 423 -16 97 -32 177 -36 177 -19 0 3 -360 31
-493 23 -115 55 -190 93 -222 24 -20 40 -25 88 -25 162 0 682 102 795 156 48
22 92 75 106 126 17 63 6 175 -40 403 -22 110 -44 234 -50 275 l-9 75 30 24
c57 46 176 191 203 248 48 101 84 199 110 295 26 101 59 277 52 284 -2 2 -32
-71 -66 -163z m-6151 -687 c7 -9 16 -16 20 -16 5 0 39 -18 77 -39 140 -81 421
-167 724 -222 l126 -22 -9 -51 c-56 -327 -80 -428 -125 -525 l-26 -54 -96 7
c-191 14 -658 113 -718 152 -66 42 -69 86 -32 386 29 241 33 350 13 402 -6 16
-4 17 13 8 11 -6 25 -18 33 -26z m2116 -391 c153 -3 308 -8 343 -11 l64 -6 -6
-706 c-6 -731 -12 -868 -58 -1309 l-23 -212 -37 19 c-29 15 -50 41 -99 126
-195 334 -409 959 -479 1404 -18 109 -41 488 -41 659 0 53 0 53 28 48 16 -3
154 -8 308 -12z m3315 -2506 c18 -39 66 -119 106 -177 l73 -107 -22 -17 c-13
-10 -67 -48 -121 -85 l-99 -68 -129 133 c-71 73 -129 139 -129 146 0 18 144
148 224 203 34 23 62 42 63 42 1 1 16 -31 34 -70z m-4939 -18 c63 -25 58 -24
161 -42 40 -7 74 -14 76 -15 3 -3 -100 -485 -106 -493 -3 -5 -163 15 -247 31
l-59 11 7 141 c6 143 19 252 36 318 8 26 18 39 38 46 35 13 66 14 94 3z"/>
<path d="M2507 4100 c-15 -68 -58 -322 -63 -376 -8 -76 15 -160 55 -203 32
-34 78 -47 49 -13 -54 61 -60 111 -38 292 21 161 24 271 10 305 -7 19 -8 18
-13 -5z"/>
<path d="M2490 5072 c0 -25 133 -128 295 -228 124 -76 173 -99 314 -148 132
-46 381 -97 381 -78 0 4 -41 20 -90 35 -147 45 -382 148 -590 257 -107 57
-211 113 -230 125 -56 35 -80 46 -80 37z"/>
<path d="M8216 3993 c-11 -68 -6 -236 9 -324 17 -99 11 -129 -33 -167 l-27
-22 30 11 c75 26 90 70 76 211 -28 272 -35 328 -41 328 -4 0 -10 -17 -14 -37z"/>
<path d="M5998 3834 c-4 -6 -21 -93 -38 -194 -82 -487 -180 -879 -328 -1310
l-49 -145 -136 0 c-188 0 -181 8 -179 -208 1 -90 6 -176 11 -190 18 -46 54
-61 160 -65 104 -5 114 6 23 24 -32 7 -75 19 -96 28 l-38 16 4 154 c1 85 6
158 10 161 12 13 147 6 313 -16 88 -12 160 -22 161 -22 0 -1 -2 -73 -4 -159
l-4 -157 -47 -10 c-25 -5 -70 -13 -100 -17 -78 -9 -42 -25 63 -27 127 -3 129
-1 144 169 7 77 15 159 18 184 9 71 -2 78 -154 103 -73 12 -131 24 -129 27
208 398 328 786 387 1246 20 155 25 435 8 408z"/>
<path d="M7183 1308 c-44 -31 -41 -40 7 -23 l40 14 32 -72 c18 -40 47 -100 65
-135 18 -34 33 -64 33 -65 0 -2 -36 -20 -79 -42 l-80 -38 -21 24 c-42 49 -109
145 -126 182 l-18 37 34 35 33 34 -49 -18 c-43 -17 -49 -23 -52 -51 -7 -65
129 -292 182 -306 26 -6 152 42 208 80 52 34 48 56 -36 200 -106 181 -112 186
-173 144z"/>
</g>
</svg>
